<svg xmlns="http://www.w3.org/2000/svg" xmlns:xlink="http://www.w3.org/1999/xlink" width="500" zoomAndPan="magnify" viewBox="0 0 375 374.999991" height="500" preserveAspectRatio="xMidYMid meet" version="1.0"><defs><clipPath id="b6cbb526c8"><path d="M 1.535156 48.722656 L 373 48.722656 L 373 326.222656 L 1.535156 326.222656 Z M 1.535156 48.722656 " clip-rule="nonzero"/></clipPath><clipPath id="3fef18a594"><path d="M 1.804688 180.566406 L 244.257812 180.566406 L 244.257812 326.222656 L 1.804688 326.222656 Z M 1.804688 180.566406 " clip-rule="nonzero"/></clipPath></defs><rect x="-37.5" width="450" fill="#ffffff" y="-37.499999" height="449.999989" fill-opacity="1"/><rect x="-37.5" width="450" fill="#ffffff" y="-37.499999" height="449.999989" fill-opacity="1"/><g clip-path="url(#b6cbb526c8)"><path fill="#000000" d="M 16.59375 58.90625 C 14.054688 58.90625 11.988281 60.96875 11.988281 63.511719 L 11.988281 311.453125 C 11.988281 313.992188 14.054688 316.058594 16.59375 316.058594 L 357.96875 316.058594 C 360.507812 316.058594 362.574219 313.992188 362.574219 311.453125 L 362.574219 63.511719 C 362.574219 60.96875 360.507812 58.90625 357.96875 58.90625 Z M 357.96875 326.234375 L 16.59375 326.234375 C 8.4375 326.234375 1.804688 319.605469 1.804688 311.453125 L 1.804688 63.511719 C 1.804688 55.355469 8.4375 48.726562 16.59375 48.726562 L 357.96875 48.726562 C 366.125 48.726562 372.757812 55.355469 372.757812 63.511719 L 372.757812 311.453125 C 372.757812 319.605469 366.125 326.234375 357.96875 326.234375 " fill-opacity="1" fill-rule="nonzero"/></g><path fill="#000000" d="M 367.664062 276.367188 C 366.339844 276.367188 365.015625 275.855469 364.019531 274.832031 L 266.703125 175.039062 L 181.3125 262.605469 C 179.347656 264.617188 176.125 264.660156 174.113281 262.695312 C 172.097656 260.734375 172.054688 257.511719 174.019531 255.5 L 263.054688 164.195312 C 264.015625 163.210938 265.332031 162.65625 266.703125 162.65625 C 268.074219 162.65625 269.390625 163.210938 270.351562 164.195312 L 371.3125 267.726562 C 373.273438 269.738281 373.230469 272.960938 371.21875 274.921875 C 370.230469 275.886719 368.949219 276.367188 367.664062 276.367188 " fill-opacity="1" fill-rule="nonzero"/><g clip-path="url(#3fef18a594)"><path fill="#000000" d="M 239.027344 326.234375 C 237.714844 326.234375 236.402344 325.730469 235.40625 324.722656 L 174.042969 262.628906 L 105.1875 192.953125 L 10.542969 290.011719 C 8.578125 292.023438 5.355469 292.066406 3.339844 290.101562 C 1.328125 288.140625 1.289062 284.917969 3.25 282.90625 L 101.519531 182.136719 C 102.472656 181.15625 103.78125 180.601562 105.148438 180.597656 C 105.152344 180.597656 105.160156 180.597656 105.164062 180.597656 C 106.523438 180.597656 107.832031 181.144531 108.785156 182.113281 L 181.289062 255.476562 L 242.648438 317.570312 C 244.625 319.570312 244.605469 322.792969 242.605469 324.765625 C 241.613281 325.746094 240.320312 326.234375 239.027344 326.234375 " fill-opacity="1" fill-rule="nonzero"/></g><path fill="#000000" d="M 156.769531 103.839844 C 143.589844 103.839844 132.867188 114.554688 132.867188 127.730469 C 132.867188 140.902344 143.589844 151.617188 156.769531 151.617188 C 169.945312 151.617188 180.667969 140.902344 180.667969 127.730469 C 180.667969 114.554688 169.945312 103.839844 156.769531 103.839844 Z M 156.769531 161.796875 C 137.976562 161.796875 122.6875 146.511719 122.6875 127.730469 C 122.6875 108.941406 137.976562 93.660156 156.769531 93.660156 C 175.558594 93.660156 190.851562 108.941406 190.851562 127.730469 C 190.851562 146.511719 175.558594 161.796875 156.769531 161.796875 " fill-opacity="1" fill-rule="nonzero"/></svg>