<svg xmlns="http://www.w3.org/2000/svg" xmlns:xlink="http://www.w3.org/1999/xlink" width="500" zoomAndPan="magnify" viewBox="0 0 375 374.999991" height="500" preserveAspectRatio="xMidYMid meet" version="1.0"><path fill="#000000" d="M 179.378906 121.191406 C 179.492188 120.257812 179.300781 119.320312 178.832031 118.507812 C 178.832031 118.507812 129.113281 32.382812 115.652344 9.070312 C 112.617188 3.824219 105.90625 2.027344 100.660156 5.054688 C 98.140625 6.511719 96.304688 8.910156 95.546875 11.71875 C 94.792969 14.53125 95.1875 17.523438 96.644531 20.042969 C 106.621094 37.328125 136.121094 88.421875 144.363281 102.699219 C 144.363281 102.699219 140.332031 105.027344 140.332031 105.027344 C 140.332031 105.027344 92.710938 22.542969 92.710938 22.542969 C 91.230469 19.976562 88.789062 18.109375 85.929688 17.335938 C 83.0625 16.574219 80.015625 16.972656 77.449219 18.453125 C 74.976562 19.882812 73.167969 22.238281 72.429688 25 C 71.691406 27.757812 72.074219 30.699219 73.503906 33.171875 C 73.503906 33.171875 121.324219 116 121.324219 116 C 121.324219 116 117.292969 118.328125 117.292969 118.328125 C 117.292969 118.328125 69.574219 35.671875 69.574219 35.671875 C 68.117188 33.152344 65.722656 31.316406 62.910156 30.566406 C 60.097656 29.808594 57.105469 30.207031 54.582031 31.65625 C 52.886719 32.632812 52.0625 34.628906 52.570312 36.523438 C 53.074219 38.414062 54.789062 39.722656 56.746094 39.722656 C 54.789062 39.722656 53.074219 38.414062 52.570312 36.523438 C 52.0625 34.628906 52.886719 32.632812 54.582031 31.65625 C 52.0625 33.113281 50.222656 35.515625 49.46875 38.320312 C 48.71875 41.132812 49.109375 44.125 50.566406 46.648438 C 64.027344 69.964844 113.75 156.085938 113.75 156.085938 C 114.214844 156.898438 114.933594 157.53125 115.789062 157.902344 L 145.046875 170.398438 C 145.046875 170.398438 250.742188 353.460938 250.742188 353.460938 C 259.28125 368.253906 278.195312 373.320312 292.988281 364.78125 C 291.699219 365.527344 290.828125 365.359375 290.828125 365.359375 C 292.371094 365.359375 293.800781 364.535156 294.570312 363.199219 C 295.34375 361.863281 295.34375 360.210938 294.570312 358.875 C 294.570312 358.875 185.496094 169.960938 175.574219 152.773438 C 175.574219 152.773438 179.378906 121.191406 179.378906 121.191406 Z M 99.445312 359.089844 L 172.203125 233.0625 C 173.394531 230.996094 172.6875 228.347656 170.621094 227.15625 C 168.550781 225.960938 165.90625 226.671875 164.714844 228.738281 L 89.582031 358.875 C 88.808594 360.210938 88.808594 361.863281 89.582031 363.199219 C 90.351562 364.535156 91.78125 365.359375 93.324219 365.359375 C 93.324219 365.359375 92.488281 365.519531 91.234375 364.820312 C 98.265625 368.878906 106.707031 369.988281 114.628906 367.867188 C 122.554688 365.746094 129.304688 360.566406 133.410156 353.460938 C 153.273438 319.042969 188.398438 258.210938 188.398438 258.210938 C 189.59375 256.140625 188.882812 253.5 186.820312 252.304688 C 184.753906 251.113281 182.105469 251.816406 180.914062 253.886719 C 180.914062 253.886719 145.785156 314.722656 125.921875 349.140625 C 122.96875 354.253906 118.097656 357.992188 112.390625 359.519531 C 108.097656 360.671875 103.585938 360.5 99.445312 359.089844 Z M 284.707031 359.089844 C 274.839844 362.460938 263.636719 358.511719 258.230469 349.140625 C 227.039062 295.113281 151.820312 164.824219 151.820312 164.824219 C 151.347656 164.015625 150.628906 163.375 149.769531 163.007812 L 120.511719 150.511719 C 120.511719 150.511719 58.054688 42.324219 58.054688 42.324219 C 57.742188 41.792969 57.664062 41.152344 57.824219 40.5625 C 57.980469 39.964844 58.367188 39.457031 58.90625 39.144531 C 58.25 39.523438 57.503906 39.722656 56.746094 39.722656 L 58.90625 39.144531 C 59.4375 38.839844 60.078125 38.753906 60.667969 38.914062 C 61.269531 39.070312 61.773438 39.464844 62.085938 39.996094 C 73.730469 60.167969 111.964844 126.398438 111.964844 126.398438 C 113.15625 128.464844 115.804688 129.171875 117.871094 127.980469 L 129.390625 121.328125 C 131.460938 120.132812 132.164062 117.492188 130.976562 115.421875 C 130.976562 115.421875 92.519531 48.816406 80.992188 28.851562 C 80.707031 28.363281 80.636719 27.777344 80.78125 27.242188 C 80.925781 26.695312 81.28125 26.230469 81.773438 25.945312 C 82.351562 25.609375 83.042969 25.519531 83.6875 25.691406 C 84.339844 25.863281 84.882812 26.289062 85.222656 26.867188 L 135.003906 113.09375 C 136.203125 115.164062 138.84375 115.867188 140.910156 114.679688 L 152.429688 108.027344 C 154.5 106.832031 155.203125 104.191406 154.011719 102.121094 C 154.011719 102.121094 115.777344 35.894531 104.132812 15.722656 C 103.824219 15.1875 103.738281 14.550781 103.898438 13.957031 C 104.058594 13.359375 104.453125 12.855469 104.984375 12.542969 C 106.101562 11.902344 107.515625 12.28125 108.164062 13.394531 L 170.625 121.582031 L 166.824219 153.167969 C 166.710938 154.097656 166.902344 155.035156 167.367188 155.847656 Z M 208.324219 153.199219 L 198.253906 170.636719 C 197.0625 172.707031 197.773438 175.355469 199.835938 176.542969 C 201.90625 177.742188 204.550781 177.03125 205.742188 174.960938 L 216.785156 155.847656 L 216.371094 156.085938 C 217.1875 155.183594 217.679688 153.910156 217.089844 152.167969 C 202.75 110.089844 217.914062 63.601562 254.308594 38.066406 C 263.425781 31.65625 272.378906 26.175781 280.21875 22.878906 C 284.941406 20.890625 289.191406 19.691406 292.75 19.769531 C 300.242188 19.945312 308.25 24.671875 312.214844 31.039062 C 314.125 34.097656 315.261719 38.386719 315.941406 43.457031 C 317.0625 51.863281 316.824219 62.289062 315.847656 73.308594 C 315.847656 73.308594 315.847656 73.316406 315.847656 73.316406 C 311.957031 117.625 279.265625 154.03125 235.636719 162.664062 L 232.332031 164.824219 L 211.714844 200.539062 C 210.519531 202.601562 211.230469 205.25 213.296875 206.445312 C 215.359375 207.636719 218.007812 206.925781 219.203125 204.863281 L 238.851562 170.824219 C 285.472656 160.929688 320.277344 121.695312 324.460938 74.074219 C 326.242188 53.984375 325.324219 35.71875 319.558594 26.46875 C 314.144531 17.777344 303.183594 11.363281 292.949219 11.125 C 282.21875 10.878906 265.917969 19.332031 249.339844 30.992188 C 210.3125 58.371094 193.75 107.953125 208.324219 153.199219 Z M 249.546875 64.851562 C 262.007812 50.605469 274.304688 41.339844 286.761719 39.683594 C 289.128906 39.371094 290.792969 37.195312 290.480469 34.828125 C 290.167969 32.460938 287.992188 30.796875 285.625 31.109375 C 271.484375 32.992188 257.179688 42.988281 243.039062 59.152344 C 241.464844 60.953125 241.652344 63.6875 243.445312 65.257812 C 245.242188 66.824219 247.976562 66.644531 249.546875 64.851562 Z M 249.546875 64.851562 " fill-opacity="1" fill-rule="evenodd"/></svg>