<svg xmlns="http://www.w3.org/2000/svg" xmlns:xlink="http://www.w3.org/1999/xlink" width="500" zoomAndPan="magnify" viewBox="0 0 375 374.999991" height="500" preserveAspectRatio="xMidYMid meet" version="1.0"><defs><clipPath id="db8d040d8f"><path d="M 2.058594 27.34375 L 373.308594 27.34375 L 373.308594 347 L 2.058594 347 Z M 2.058594 27.34375 " clip-rule="nonzero"/></clipPath></defs><g clip-path="url(#db8d040d8f)"><path fill="#000000" d="M 86.964844 189.125 C 86.957031 188.851562 86.945312 188.574219 86.933594 188.296875 C 84.011719 113.582031 147.960938 58.046875 213.671875 58.046875 C 279.378906 58.046875 342.082031 109.769531 342.082031 188.296875 C 342.082031 224.636719 325.1875 258.773438 302.914062 280.636719 C 277.050781 306.019531 243.585938 316.261719 215.378906 316.261719 C 162.875 316.261719 126.503906 279.199219 126.503906 279.199219 L 103.132812 301.144531 C 103.132812 301.144531 126.742188 322.089844 146.152344 331.058594 C 165.566406 340.03125 171.25 345.460938 213.671875 346.40625 C 250.105469 347.21875 284.113281 330.960938 306.222656 316.261719 C 368.472656 274.878906 373.308594 215.785156 373.308594 188.707031 C 373.308594 161.628906 367.90625 108.476562 316.070312 64.554688 C 291.832031 44.011719 260.300781 27.722656 210.683594 27.722656 C 164.40625 27.722656 129.210938 49.003906 106.253906 68.988281 C 51.960938 116.25 54.175781 188.707031 54.175781 188.707031 C 54.175781 188.707031 54.242188 188.851562 54.378906 189.125 L 2.027344 189.125 L 72.550781 261.828125 L 145.355469 189.125 Z M 86.964844 189.125 " fill-opacity="1" fill-rule="evenodd"/></g><path fill="#000000" d="M 199.28125 121.425781 L 199.28125 206.359375 L 274.855469 252.203125 L 287.710938 234.339844 L 224.167969 195.886719 L 224.167969 121.425781 Z M 199.28125 121.425781 " fill-opacity="1" fill-rule="evenodd"/></svg>