<svg xmlns="http://www.w3.org/2000/svg" xmlns:xlink="http://www.w3.org/1999/xlink" width="500" zoomAndPan="magnify" viewBox="0 0 375 374.999991" height="500" preserveAspectRatio="xMidYMid meet" version="1.0"><path fill="#000000" d="M 323.285156 102.046875 C 304.617188 76.28125 274.703125 84.269531 244.371094 150.867188 C 241.417969 157.679688 241.632812 156.117188 238.417969 151.675781 C 233.351562 144.679688 225.484375 132.441406 216.691406 129.320312 C 203.371094 47.257812 157.820312 53.933594 143.566406 69.695312 C 125.113281 90.105469 111.96875 115.601562 103.199219 141.546875 C 102.6875 142.984375 102.636719 144.667969 100.835938 145.402344 C 57.207031 171.859375 2.523438 297.21875 87.1875 302.617188 C 90.484375 303.589844 97.273438 301.632812 97.636719 306.355469 C 97.679688 309.351562 98.195312 312.335938 98.328125 315.335938 C 98.601562 321.582031 98.0625 320.960938 93.542969 320.8125 C 92.753906 320.785156 91.917969 320.746094 91.175781 320.960938 C 89.152344 321.546875 86.15625 321.351562 86.207031 324.324219 C 86.261719 327.757812 89.292969 326.773438 91.3125 326.78125 C 93.003906 326.785156 290.003906 327.105469 316.457031 326.863281 C 318.582031 326.820312 320.601562 326.054688 321.179688 323.695312 C 321.5625 322.113281 319.671875 320.9375 316.53125 320.84375 C 305.839844 321.261719 302.921875 322.34375 302.835938 320.832031 C 302.609375 316.953125 303.042969 313.671875 303.03125 304.640625 C 303.03125 302.792969 302.082031 299.835938 304.347656 299.855469 C 341.542969 300.199219 367.667969 286.835938 369.914062 260.121094 C 372.863281 225.132812 360.628906 153.582031 323.285156 102.046875 Z M 107.488281 139.867188 C 113.222656 119.839844 135.585938 74.027344 154.558594 65.914062 C 185.554688 52.667969 205.230469 82.636719 213.636719 126.824219 C 213.859375 127.96875 212.324219 129.292969 208.789062 129.28125 C 183.628906 129.195312 163.679688 168.265625 164.3125 161.070312 C 164.488281 159.074219 161.996094 131.101562 167.203125 125.914062 C 172.363281 121.019531 176.996094 115.582031 182.628906 111.175781 C 184.914062 109.574219 185.605469 106.746094 183.289062 104.828125 C 181.753906 103.269531 180.503906 103.828125 179.21875 105.042969 C 175.085938 108.953125 170.964844 112.878906 166.816406 116.78125 C 166.289062 117.28125 165.804688 118.171875 164.875 117.660156 C 163.394531 114.730469 165.429688 110.140625 163.992188 107.015625 C 162.515625 103.464844 157.554688 103.742188 157.742188 107.964844 C 157.304688 110.398438 158.96875 120.046875 156.863281 120.675781 C 155.816406 120.980469 155.082031 119.558594 154.34375 118.773438 C 151.070312 115.371094 148.257812 111.449219 144.460938 108.597656 C 142.3125 106.859375 139.367188 109.957031 140.730469 112.226562 C 144.265625 118.023438 158.058594 127.957031 157.574219 133.75 C 157.304688 145.753906 155.769531 179.984375 155.585938 180.320312 C 153.980469 183.34375 150.339844 193.929688 149.1875 188.460938 C 144.070312 170.941406 131.195312 143.671875 110.328125 143.089844 C 106.722656 143.195312 106.621094 143.007812 107.488281 139.867188 Z M 103.152344 281.203125 C 103.015625 278.894531 104.34375 277.335938 105.839844 275.878906 C 112.308594 269.597656 118.246094 262.789062 124.980469 256.761719 C 130.382812 253.171875 124.835938 247.253906 121.722656 250.738281 C 117.464844 255.421875 112.414062 259.3125 108.339844 264.199219 C 104.777344 269.351562 103.285156 269.070312 102.695312 266.722656 C 101.992188 263.914062 102.417969 247.859375 102.988281 244.488281 C 103.457031 241.75 104.566406 239.222656 107.113281 237.128906 C 111.984375 232.152344 116.710938 227.035156 121.429688 221.925781 C 125.875 218.445312 119.839844 213.3125 116.863281 217.011719 C 112.722656 221.128906 109.035156 226.488281 104.34375 229.785156 C 101.878906 228.015625 105.011719 210.632812 104.804688 206.554688 C 105.113281 199.953125 123.597656 187.179688 117.457031 183.710938 C 113.464844 180.933594 111.046875 187.933594 108.296875 189.9375 C 107.609375 190.675781 107.339844 192.324219 105.976562 191.839844 C 104.996094 191.492188 105.585938 190.164062 105.441406 189.277344 C 105.265625 188.195312 105.1875 187.085938 104.898438 186.035156 C 104.765625 183.511719 101.410156 183.457031 100.453125 185.542969 C 99.484375 187.382812 99.078125 189.398438 98.707031 191.433594 C 98.582031 192.125 98.9375 193.191406 97.925781 193.394531 C 94.035156 192.800781 92.148438 183.121094 87.496094 185.550781 C 81.980469 191.609375 100.605469 197.925781 97.777344 210.621094 C 94.191406 233.246094 102.257812 238.617188 84.679688 222.34375 C 83.335938 221.214844 81.925781 218.558594 79.601562 220.984375 C 75.082031 225.894531 97.144531 236.539062 95.851562 245.609375 C 94.40625 278.078125 102.613281 273.023438 76.484375 256.289062 C 72.324219 252.9375 68.601562 257.554688 73.199219 260.566406 C 80.59375 265.734375 87.621094 271.382812 94.449219 277.28125 C 98.730469 282.042969 95.6875 292.132812 97.429688 298.402344 C 97.730469 300.21875 96.84375 301.039062 94.957031 300.710938 C 43.5 300.347656 37.539062 261.582031 53.179688 220.859375 C 70.648438 168.402344 119.558594 101.335938 146.453125 190.367188 C 147.964844 195.703125 146.980469 199.925781 145.128906 204.824219 C 137.429688 228.839844 123.40625 259.644531 141.464844 282.121094 C 145.09375 286.449219 144.941406 286.523438 141.453125 290.78125 C 137.277344 295.882812 131.769531 298.984375 125.585938 300.636719 C 121.585938 301.542969 104.136719 305.84375 104.109375 299.191406 C 103.917969 293.191406 103.503906 287.199219 103.152344 281.203125 Z M 149.789062 296.746094 C 151.949219 307.488281 143.878906 302.925781 136.914062 302.15625 C 135.296875 302.078125 134.789062 300.417969 136.472656 299.902344 C 140.367188 297.660156 143.371094 294.488281 145.96875 290.882812 C 146.480469 290.167969 146.832031 288.980469 148.050781 289.496094 C 150.871094 290.59375 149.457031 294.382812 149.789062 296.746094 Z M 150.238281 317.644531 C 149.890625 319.578125 149.007812 320.519531 147.167969 320.859375 C 145.617188 321.144531 115.847656 320.710938 109.828125 320.683594 C 105.65625 320.664062 105.664062 320.636719 105.332031 316.703125 C 105.804688 313.746094 102.035156 304.167969 107.28125 305.070312 C 114.777344 306.210938 122.078125 304.964844 129.320312 303.167969 C 130.3125 302.917969 131.234375 302.945312 132.082031 303.363281 C 136.46875 305.53125 141.261719 305.632812 145.964844 306.226562 C 149.710938 306.699219 150.503906 306.921875 150.371094 309.515625 C 150.347656 309.964844 150.507812 316.128906 150.238281 317.644531 Z M 201.671875 320.839844 C 195.640625 320.730469 167.789062 320.820312 161.304688 320.761719 C 157.078125 320.722656 156.96875 320.558594 156.8125 316.59375 C 154.308594 299.824219 168.636719 311.226562 180.503906 304.414062 C 186.492188 306.738281 204.269531 301.714844 204.179688 310.855469 C 203.652344 314.164062 207.4375 321.027344 201.671875 320.839844 Z M 156.609375 297.03125 C 156.820312 295.628906 157.492188 295.601562 158.53125 296.074219 C 163.261719 298.214844 167.648438 301.109375 172.714844 302.523438 C 175.085938 304.753906 167.058594 303.519531 166.003906 303.816406 C 166.003906 303.832031 166.003906 303.847656 166.003906 303.871094 C 160.382812 303.898438 154.855469 304.738281 156.609375 297.03125 Z M 209.324219 298.027344 C 209.054688 291.398438 209.175781 284.753906 209.003906 278.113281 C 211.4375 270 224.316406 261.972656 230.777344 256.335938 C 232.730469 254.054688 242.164062 248.863281 239.117188 245.753906 C 237.367188 243.140625 234.246094 243.574219 232.316406 245.933594 C 204.707031 267.542969 208.332031 276.011719 208.316406 244.242188 C 208.304688 244.242188 208.296875 244.242188 208.285156 244.242188 C 207.761719 214.582031 207.453125 224.65625 228.371094 205.152344 C 233.917969 201.046875 226.3125 195.308594 223.210938 200.179688 C 219.847656 204.242188 215.761719 207.480469 211.53125 210.558594 C 210.039062 212.421875 208.285156 212.226562 208.675781 209.480469 C 210.722656 180.375 203.933594 184.15625 227.699219 164.339844 C 231.992188 161.316406 226.214844 155.863281 222.777344 159.460938 C 220.3125 161.046875 211.117188 171.613281 209.683594 170.53125 C 208.515625 168.277344 210.257812 165.015625 207.507812 163.21875 C 205.121094 161.515625 203.316406 162.234375 203.007812 165.1875 C 202.742188 167.683594 203.589844 171.699219 201.878906 172.289062 C 199.355469 173.289062 194.242188 165.589844 191.085938 163.949219 C 188.300781 161.371094 184.554688 166.089844 187.628906 168.3125 C 209.375 187.980469 202.011719 178.878906 201.742188 210.628906 C 202.9375 218.855469 186.480469 204.027344 183.234375 203.539062 C 180.78125 202.421875 178.480469 206.152344 180.476562 207.945312 C 186.175781 211.84375 191.824219 216.027344 198.066406 219.097656 C 200.730469 220.269531 201.488281 222.332031 201.460938 225.199219 C 201.339844 238.171875 201.421875 251.144531 201.421875 264.117188 C 202.039062 267.394531 200.136719 267.644531 198.121094 265.640625 C 191.433594 260.589844 185.238281 254.914062 178.222656 250.289062 C 175.609375 248.011719 171.949219 252.8125 174.882812 254.648438 C 181.832031 259.382812 187.828125 265.300781 194.523438 270.339844 C 200.125 272.625 201.617188 271.945312 202.199219 278.726562 C 202.863281 285.808594 201.8125 292.941406 202.921875 300.015625 C 203.128906 301.359375 203.058594 302.632812 201.082031 302.441406 C 178.363281 303.269531 154.050781 296.816406 141.324219 276.492188 C 122.117188 254.257812 164.929688 141.621094 202.324219 132.277344 C 216.371094 128.769531 223.550781 134.679688 227.746094 140.109375 C 254.363281 174.585938 273.957031 214.027344 273.902344 263.148438 C 273.871094 288.359375 237.015625 300.605469 215.125 302.738281 C 209.875 302.90625 209.535156 303.117188 209.324219 298.027344 Z M 291.710938 320.8125 C 280.773438 320.84375 227.980469 320.839844 215.332031 320.8125 C 211.429688 320.800781 211.375 320.746094 211.289062 316.972656 C 211.238281 314.769531 211.328125 312.554688 211.453125 310.351562 C 211.707031 305.941406 211.71875 305.792969 216.277344 305.289062 C 228.863281 304.695312 240.675781 300.457031 252.332031 296.042969 C 254.621094 295.566406 257 293.226562 258.445312 293.894531 C 266.636719 297.640625 281.476562 300.175781 292.496094 299.226562 C 294.855469 299.023438 295.480469 300.007812 295.453125 302.519531 C 295.390625 307.410156 295.605469 312.308594 295.582031 317.207031 C 295.578125 320.710938 295.496094 320.800781 291.710938 320.8125 Z M 296.375 293.882812 C 296.058594 295.527344 295.148438 296.652344 292.960938 296.539062 C 290.664062 296.722656 254.570312 294.535156 261.621094 290.292969 C 265.40625 286.503906 269.25 282.777344 272.375 278.355469 C 278.878906 271.542969 274.765625 253.5625 279.566406 257.917969 C 284.441406 261.699219 288.644531 266.265625 293.355469 270.207031 C 294.855469 271.316406 295.671875 272.664062 296.09375 274.148438 C 297.03125 277.386719 296.914062 291.144531 296.375 293.882812 Z M 304.773438 297.558594 C 302.316406 297.464844 302.429688 296.339844 302.433594 293.859375 C 302.449219 286.523438 300.800781 275.46875 305.035156 270.839844 C 311.179688 265.375 317.132812 259.679688 323.394531 254.355469 C 326.425781 251.777344 329.046875 248.824219 331.902344 246.097656 C 333.941406 244.148438 333.625 243.273438 331.46875 240.96875 C 329.667969 239.046875 328.214844 239.449219 326.761719 241.195312 C 320.648438 248.546875 312.902344 254.15625 306.027344 260.691406 C 304.59375 262.710938 302.636719 262.304688 303.292969 259.699219 C 304.050781 252.738281 302.808594 222.5 303.589844 218.390625 C 304.898438 211.546875 309.222656 209.472656 321.859375 198.476562 C 323.925781 195.507812 332.832031 191.261719 328.59375 187.507812 C 326.652344 185.574219 325.367188 185.421875 323.449219 187.683594 C 320.457031 191.226562 303.367188 208.269531 304.128906 201.601562 C 304.160156 195.90625 304.535156 173.933594 304.808594 168.714844 C 305.003906 165.136719 305.746094 161.734375 308.039062 158.820312 C 312.59375 153.351562 316.304688 147.222656 321.132812 141.960938 C 322.167969 140.835938 323.414062 139.621094 322.070312 137.828125 C 320.410156 135.601562 318.472656 135.378906 316.683594 137.542969 C 313.367188 141.574219 310.1875 145.710938 306.960938 149.8125 C 303.941406 154.230469 305.347656 143.792969 302.109375 142.453125 C 300.007812 140.824219 298.511719 141.28125 298.140625 143.886719 C 297.921875 145.441406 298.152344 147.054688 298.003906 148.625 C 297.878906 149.945312 298.890625 151.949219 297.421875 152.417969 C 296.183594 152.8125 295.292969 150.828125 294.390625 149.808594 C 290.71875 146.144531 288.1875 141.25 283.984375 138.191406 C 281.507812 136.136719 278.339844 139.230469 280.585938 141.609375 C 285.167969 149.195312 299.109375 160.085938 298.203125 168.257812 C 297.691406 180.265625 297.058594 192.28125 297.191406 204.300781 C 297.636719 206.449219 295.714844 207.148438 294.433594 205.449219 C 291.484375 202.324219 271.015625 182.574219 268.140625 188.472656 C 267.332031 189.964844 268.28125 190.863281 269.425781 191.558594 C 277.472656 196.464844 283.871094 203.3125 290.894531 209.4375 C 294.90625 212.929688 297.074219 216.3125 296.578125 221.835938 C 296.019531 228.109375 296.121094 258.410156 296.308594 262.996094 C 296.296875 264.585938 294.945312 264.53125 294.230469 263.5 C 290.367188 259.550781 285.824219 256.21875 281.535156 252.816406 C 277.417969 251.273438 276.398438 248.066406 275.859375 244.015625 C 271.742188 215.164062 261.296875 186.515625 245.566406 162 C 243.980469 159.800781 243.980469 158.03125 245.074219 155.484375 C 258.859375 123.285156 292.949219 64.808594 322.960938 106.265625 C 354.101562 149.277344 367.679688 204.699219 367.679688 257.648438 C 367.6875 281.207031 342.601562 298.976562 304.773438 297.558594 Z M 304.773438 297.558594 " fill-opacity="1" fill-rule="nonzero"/></svg>