<svg xmlns="http://www.w3.org/2000/svg" xmlns:xlink="http://www.w3.org/1999/xlink" width="500" zoomAndPan="magnify" viewBox="0 0 375 374.999991" height="500" preserveAspectRatio="xMidYMid meet" version="1.0"><path fill="#000000" d="M -0.0429688 374.957031 L -0.0429688 93.707031 L 117.144531 93.707031 L 117.144531 374.957031 Z M 23.394531 117.144531 L 23.394531 140.582031 L 46.832031 140.582031 L 46.832031 117.144531 Z M 70.269531 117.144531 L 70.269531 140.582031 L 93.707031 140.582031 L 93.707031 117.144531 Z M 70.269531 164.019531 L 70.269531 187.457031 L 93.707031 187.457031 L 93.707031 164.019531 Z M 23.394531 164.019531 L 23.394531 187.457031 L 46.832031 187.457031 L 46.832031 164.019531 Z M 70.269531 234.332031 L 93.707031 234.332031 L 93.707031 210.894531 L 70.269531 210.894531 Z M 23.394531 210.894531 L 23.394531 234.332031 L 46.832031 234.332031 L 46.832031 210.894531 Z M 23.394531 257.769531 L 23.394531 281.207031 L 46.832031 281.207031 L 46.832031 257.769531 Z M 70.269531 281.207031 L 93.707031 281.207031 L 93.707031 257.769531 L 70.269531 257.769531 Z M 70.269531 304.644531 L 70.269531 328.082031 L 93.707031 328.082031 L 93.707031 304.644531 Z M 23.394531 304.644531 L 23.394531 328.082031 L 46.832031 328.082031 L 46.832031 304.644531 Z M 314.019531 -0.0429688 L 318.707031 -0.0429688 L 318.707031 32.769531 L 323.394531 37.457031 L 351.519531 56.207031 L 374.957031 89.019531 L 374.957031 374.957031 L 257.769531 374.957031 L 257.769531 89.019531 L 281.207031 56.207031 L 309.332031 37.457031 L 314.019531 32.769531 Z M 281.207031 93.707031 L 304.644531 93.707031 L 304.644531 70.269531 Z M 328.082031 70.269531 L 328.082031 93.707031 L 351.519531 93.707031 Z M 281.207031 117.144531 L 281.207031 140.582031 L 304.644531 140.582031 L 304.644531 117.144531 Z M 328.082031 117.144531 L 328.082031 140.582031 L 351.519531 140.582031 L 351.519531 117.144531 Z M 328.082031 164.019531 L 328.082031 187.457031 L 351.519531 187.457031 L 351.519531 164.019531 Z M 281.207031 164.019531 L 281.207031 187.457031 L 304.644531 187.457031 L 304.644531 164.019531 Z M 328.082031 234.332031 L 351.519531 234.332031 L 351.519531 210.894531 L 328.082031 210.894531 Z M 280.578125 210.894531 L 280.578125 234.332031 L 304.015625 234.332031 L 304.015625 210.894531 Z M 281.207031 257.769531 L 281.207031 281.207031 L 304.644531 281.207031 L 304.644531 257.769531 Z M 328.082031 281.207031 L 351.519531 281.207031 L 351.519531 257.769531 L 328.082031 257.769531 Z M 328.082031 304.644531 L 328.082031 328.082031 L 351.519531 328.082031 L 351.519531 304.644531 Z M 281.207031 304.644531 L 281.207031 328.082031 L 304.644531 328.082031 L 304.644531 304.644531 Z M 126.519531 374.957031 L 126.519531 -0.0429688 L 248.394531 46.832031 L 248.394531 374.957031 Z M 140.582031 70.269531 L 140.582031 93.707031 L 164.019531 93.707031 L 164.019531 70.269531 Z M 210.894531 70.269531 L 210.894531 93.707031 L 234.332031 93.707031 L 234.332031 70.269531 Z M 140.582031 117.144531 L 140.582031 140.582031 L 164.019531 140.582031 L 164.019531 117.144531 Z M 210.894531 117.144531 L 210.894531 140.582031 L 234.332031 140.582031 L 234.332031 117.144531 Z M 210.894531 164.019531 L 210.894531 187.457031 L 234.332031 187.457031 L 234.332031 164.019531 Z M 140.582031 164.019531 L 140.582031 187.457031 L 164.019531 187.457031 L 164.019531 164.019531 Z M 210.894531 234.332031 L 234.332031 234.332031 L 234.332031 210.894531 L 210.894531 210.894531 Z M 140.582031 210.894531 L 140.582031 234.332031 L 164.019531 234.332031 L 164.019531 210.894531 Z M 140.582031 257.769531 L 140.582031 281.207031 L 164.019531 281.207031 L 164.019531 257.769531 Z M 210.894531 281.207031 L 234.332031 281.207031 L 234.332031 257.769531 L 210.894531 257.769531 Z M 210.894531 304.644531 L 210.894531 328.082031 L 234.332031 328.082031 L 234.332031 304.644531 Z M 140.582031 304.644531 L 140.582031 328.082031 L 164.019531 328.082031 L 164.019531 304.644531 Z M 196.832031 70.269531 L 178.082031 70.269531 L 178.082031 93.707031 L 196.832031 93.707031 Z M 178.082031 117.144531 L 178.082031 140.582031 L 196.832031 140.582031 L 196.832031 117.144531 Z M 178.082031 164.019531 L 178.082031 187.457031 L 196.832031 187.457031 L 196.832031 164.019531 Z M 178.082031 210.894531 L 178.082031 234.332031 L 196.832031 234.332031 L 196.832031 210.894531 Z M 178.082031 281.207031 L 196.832031 281.207031 L 196.832031 257.769531 L 178.082031 257.769531 Z M 178.082031 328.082031 L 196.832031 328.082031 L 196.832031 304.644531 L 178.082031 304.644531 Z M 178.082031 328.082031 " fill-opacity="1" fill-rule="nonzero"/></svg>