<svg xmlns="http://www.w3.org/2000/svg" xmlns:xlink="http://www.w3.org/1999/xlink" width="500" zoomAndPan="magnify" viewBox="0 0 375 374.999991" height="500" preserveAspectRatio="xMidYMid meet" version="1.0"><path fill="#000000" d="M 181.703125 55.800781 C 181.707031 55.058594 181.636719 54.328125 181.492188 53.601562 C 181.351562 52.875 181.140625 52.171875 180.855469 51.488281 C 180.574219 50.804688 180.230469 50.152344 179.820312 49.539062 C 179.410156 48.921875 178.945312 48.351562 178.425781 47.828125 C 177.902344 47.304688 177.335938 46.835938 176.71875 46.425781 C 176.105469 46.015625 175.457031 45.667969 174.773438 45.382812 C 174.09375 45.097656 173.390625 44.882812 172.664062 44.738281 C 171.9375 44.59375 171.207031 44.519531 170.46875 44.519531 C 169.730469 44.519531 168.996094 44.589844 168.269531 44.734375 C 167.546875 44.878906 166.84375 45.089844 166.160156 45.375 C 165.476562 45.65625 164.828125 46.003906 164.210938 46.414062 C 163.597656 46.824219 163.027344 47.292969 162.503906 47.816406 C 161.984375 48.339844 161.515625 48.90625 161.105469 49.523438 C 160.695312 50.136719 160.347656 50.785156 160.066406 51.46875 C 159.785156 52.152344 159.570312 52.855469 159.425781 53.582031 C 159.28125 54.308594 159.210938 55.039062 159.210938 55.78125 C 159.210938 56.519531 159.285156 57.25 159.429688 57.976562 C 159.574219 58.703125 159.789062 59.40625 160.074219 60.089844 C 160.355469 60.773438 160.707031 61.421875 161.117188 62.035156 C 161.527344 62.648438 161.996094 63.21875 162.519531 63.738281 C 163.042969 64.261719 163.613281 64.726562 164.230469 65.136719 C 164.84375 65.546875 165.492188 65.890625 166.175781 66.171875 C 166.859375 66.453125 167.566406 66.667969 168.289062 66.808594 C 169.015625 66.953125 169.75 67.023438 170.488281 67.019531 C 171.222656 67.019531 171.953125 66.945312 172.675781 66.800781 C 173.394531 66.65625 174.097656 66.441406 174.773438 66.15625 C 175.453125 65.875 176.101562 65.53125 176.710938 65.121094 C 177.324219 64.710938 177.890625 64.246094 178.410156 63.726562 C 178.929688 63.203125 179.394531 62.636719 179.804688 62.027344 C 180.214844 61.414062 180.558594 60.769531 180.84375 60.089844 C 181.125 59.410156 181.339844 58.707031 181.484375 57.988281 C 181.628906 57.265625 181.703125 56.535156 181.703125 55.800781 Z M 165.238281 55.800781 C 165.238281 55.453125 165.269531 55.113281 165.335938 54.773438 C 165.398438 54.433594 165.5 54.105469 165.628906 53.785156 C 165.757812 53.46875 165.917969 53.164062 166.109375 52.875 C 166.300781 52.585938 166.515625 52.320312 166.757812 52.074219 C 167 51.832031 167.265625 51.609375 167.550781 51.417969 C 167.839844 51.226562 168.140625 51.0625 168.457031 50.929688 C 168.777344 50.792969 169.105469 50.695312 169.441406 50.625 C 169.78125 50.554688 170.121094 50.519531 170.46875 50.519531 C 170.8125 50.519531 171.15625 50.550781 171.492188 50.617188 C 171.832031 50.683594 172.160156 50.78125 172.480469 50.914062 C 172.800781 51.042969 173.101562 51.203125 173.390625 51.394531 C 173.675781 51.585938 173.945312 51.804688 174.1875 52.046875 C 174.433594 52.289062 174.652344 52.554688 174.84375 52.84375 C 175.035156 53.128906 175.199219 53.429688 175.332031 53.75 C 175.464844 54.066406 175.566406 54.394531 175.632812 54.734375 C 175.699219 55.074219 175.734375 55.414062 175.734375 55.761719 C 175.738281 56.105469 175.703125 56.445312 175.636719 56.785156 C 175.570312 57.125 175.472656 57.453125 175.339844 57.773438 C 175.207031 58.089844 175.046875 58.394531 174.855469 58.679688 C 174.664062 58.96875 174.445312 59.234375 174.203125 59.480469 C 173.957031 59.722656 173.691406 59.941406 173.40625 60.132812 C 173.121094 60.324219 172.816406 60.488281 172.5 60.621094 C 172.179688 60.75 171.851562 60.851562 171.511719 60.917969 C 171.175781 60.984375 170.832031 61.019531 170.488281 61.019531 C 170.144531 61.019531 169.804688 60.988281 169.46875 60.917969 C 169.128906 60.851562 168.804688 60.753906 168.484375 60.625 C 168.167969 60.492188 167.867188 60.332031 167.582031 60.140625 C 167.296875 59.953125 167.03125 59.734375 166.789062 59.492188 C 166.542969 59.25 166.328125 58.988281 166.132812 58.703125 C 165.941406 58.417969 165.78125 58.117188 165.648438 57.800781 C 165.515625 57.484375 165.414062 57.15625 165.34375 56.820312 C 165.277344 56.484375 165.242188 56.144531 165.238281 55.800781 Z M 165.238281 55.800781 " fill-opacity="1" fill-rule="nonzero"/><path fill="#000000" d="M 53.410156 208.800781 C 52.671875 208.800781 51.941406 208.871094 51.222656 209.015625 C 50.5 209.160156 49.796875 209.371094 49.117188 209.652344 C 48.4375 209.9375 47.789062 210.28125 47.175781 210.691406 C 46.566406 211.101562 46 211.566406 45.476562 212.085938 C 44.957031 212.605469 44.492188 213.175781 44.082031 213.785156 C 43.675781 214.398438 43.328125 215.046875 43.046875 215.726562 C 42.765625 216.40625 42.550781 217.109375 42.410156 217.832031 C 42.265625 218.554688 42.191406 219.285156 42.191406 220.019531 C 42.191406 220.757812 42.265625 221.484375 42.410156 222.207031 C 42.550781 222.929688 42.765625 223.632812 43.046875 224.3125 C 43.328125 224.996094 43.675781 225.640625 44.082031 226.253906 C 44.492188 226.867188 44.957031 227.433594 45.476562 227.953125 C 46 228.476562 46.566406 228.941406 47.175781 229.347656 C 47.789062 229.757812 48.4375 230.105469 49.117188 230.386719 C 49.796875 230.667969 50.5 230.878906 51.222656 231.023438 C 51.941406 231.167969 52.671875 231.238281 53.410156 231.238281 C 54.144531 231.238281 54.875 231.167969 55.597656 231.023438 C 56.320312 230.878906 57.019531 230.667969 57.703125 230.386719 C 58.382812 230.105469 59.027344 229.757812 59.640625 229.347656 C 60.253906 228.941406 60.820312 228.476562 61.339844 227.953125 C 61.859375 227.433594 62.324219 226.867188 62.734375 226.253906 C 63.144531 225.640625 63.488281 224.996094 63.769531 224.3125 C 64.054688 223.632812 64.265625 222.929688 64.410156 222.207031 C 64.554688 221.484375 64.625 220.757812 64.625 220.019531 C 64.625 219.285156 64.554688 218.554688 64.410156 217.832031 C 64.265625 217.109375 64.054688 216.40625 63.769531 215.726562 C 63.488281 215.046875 63.144531 214.398438 62.734375 213.785156 C 62.324219 213.175781 61.859375 212.605469 61.339844 212.085938 C 60.820312 211.566406 60.253906 211.101562 59.640625 210.691406 C 59.027344 210.28125 58.382812 209.9375 57.703125 209.652344 C 57.019531 209.371094 56.320312 209.160156 55.597656 209.015625 C 54.875 208.871094 54.144531 208.800781 53.410156 208.800781 Z M 53.410156 225.238281 C 53.066406 225.238281 52.726562 225.207031 52.390625 225.140625 C 52.054688 225.074219 51.730469 224.972656 51.414062 224.84375 C 51.09375 224.710938 50.792969 224.550781 50.511719 224.359375 C 50.226562 224.167969 49.960938 223.953125 49.71875 223.710938 C 49.476562 223.46875 49.261719 223.203125 49.070312 222.921875 C 48.878906 222.636719 48.71875 222.335938 48.589844 222.019531 C 48.457031 221.699219 48.359375 221.375 48.292969 221.039062 C 48.222656 220.703125 48.191406 220.363281 48.191406 220.019531 C 48.191406 219.675781 48.222656 219.335938 48.292969 219 C 48.359375 218.664062 48.457031 218.339844 48.589844 218.023438 C 48.71875 217.707031 48.878906 217.40625 49.070312 217.121094 C 49.261719 216.835938 49.476562 216.570312 49.71875 216.328125 C 49.960938 216.085938 50.226562 215.871094 50.511719 215.679688 C 50.792969 215.488281 51.09375 215.328125 51.414062 215.199219 C 51.730469 215.066406 52.054688 214.96875 52.390625 214.898438 C 52.726562 214.832031 53.066406 214.800781 53.410156 214.800781 C 53.75 214.800781 54.089844 214.832031 54.425781 214.898438 C 54.761719 214.96875 55.089844 215.066406 55.40625 215.199219 C 55.722656 215.328125 56.023438 215.488281 56.308594 215.679688 C 56.59375 215.871094 56.855469 216.085938 57.097656 216.328125 C 57.339844 216.570312 57.558594 216.835938 57.746094 217.121094 C 57.9375 217.40625 58.097656 217.707031 58.230469 218.023438 C 58.359375 218.339844 58.460938 218.664062 58.527344 219 C 58.59375 219.335938 58.628906 219.675781 58.628906 220.019531 C 58.628906 220.363281 58.59375 220.703125 58.527344 221.039062 C 58.460938 221.375 58.359375 221.699219 58.230469 222.019531 C 58.097656 222.335938 57.9375 222.636719 57.746094 222.921875 C 57.558594 223.203125 57.339844 223.46875 57.097656 223.710938 C 56.855469 223.953125 56.59375 224.167969 56.308594 224.359375 C 56.023438 224.550781 55.722656 224.710938 55.40625 224.84375 C 55.089844 224.972656 54.761719 225.074219 54.425781 225.140625 C 54.089844 225.207031 53.75 225.238281 53.410156 225.238281 Z M 53.410156 225.238281 " fill-opacity="1" fill-rule="nonzero"/><path fill="#000000" d="M 300.101562 100.5 C 300.839844 100.5 301.566406 100.429688 302.289062 100.285156 C 303.011719 100.140625 303.714844 99.929688 304.394531 99.644531 C 305.074219 99.363281 305.722656 99.019531 306.332031 98.609375 C 306.945312 98.199219 307.511719 97.734375 308.03125 97.214844 C 308.554688 96.691406 309.019531 96.125 309.429688 95.511719 C 309.835938 94.902344 310.183594 94.253906 310.464844 93.574219 C 310.746094 92.894531 310.957031 92.191406 311.101562 91.46875 C 311.246094 90.746094 311.316406 90.015625 311.316406 89.28125 C 311.316406 88.542969 311.246094 87.8125 311.101562 87.089844 C 310.957031 86.367188 310.746094 85.667969 310.464844 84.984375 C 310.183594 84.304688 309.835938 83.660156 309.429688 83.046875 C 309.019531 82.433594 308.554688 81.867188 308.03125 81.347656 C 307.511719 80.824219 306.945312 80.359375 306.332031 79.949219 C 305.722656 79.542969 305.074219 79.195312 304.394531 78.914062 C 303.714844 78.632812 303.011719 78.417969 302.289062 78.277344 C 301.566406 78.132812 300.839844 78.058594 300.101562 78.058594 C 299.367188 78.058594 298.636719 78.132812 297.914062 78.277344 C 297.191406 78.417969 296.492188 78.632812 295.808594 78.914062 C 295.128906 79.195312 294.484375 79.542969 293.871094 79.949219 C 293.257812 80.359375 292.691406 80.824219 292.171875 81.347656 C 291.652344 81.867188 291.183594 82.433594 290.777344 83.046875 C 290.367188 83.660156 290.023438 84.304688 289.738281 84.984375 C 289.457031 85.667969 289.246094 86.367188 289.101562 87.089844 C 288.957031 87.8125 288.886719 88.542969 288.886719 89.28125 C 288.886719 90.015625 288.957031 90.746094 289.101562 91.46875 C 289.246094 92.191406 289.457031 92.894531 289.738281 93.574219 C 290.023438 94.253906 290.367188 94.902344 290.777344 95.511719 C 291.183594 96.125 291.652344 96.691406 292.171875 97.214844 C 292.691406 97.734375 293.257812 98.199219 293.871094 98.609375 C 294.484375 99.019531 295.128906 99.363281 295.808594 99.644531 C 296.492188 99.929688 297.191406 100.140625 297.914062 100.285156 C 298.636719 100.429688 299.367188 100.5 300.101562 100.5 Z M 300.101562 84.058594 C 300.445312 84.058594 300.785156 84.09375 301.121094 84.160156 C 301.457031 84.226562 301.78125 84.324219 302.097656 84.457031 C 302.414062 84.589844 302.714844 84.75 303 84.941406 C 303.285156 85.128906 303.550781 85.347656 303.792969 85.589844 C 304.035156 85.832031 304.25 86.09375 304.441406 86.378906 C 304.632812 86.664062 304.792969 86.964844 304.921875 87.28125 C 305.054688 87.597656 305.152344 87.925781 305.21875 88.261719 C 305.285156 88.597656 305.320312 88.9375 305.320312 89.28125 C 305.320312 89.621094 305.285156 89.960938 305.21875 90.296875 C 305.152344 90.632812 305.054688 90.960938 304.921875 91.277344 C 304.792969 91.59375 304.632812 91.894531 304.441406 92.179688 C 304.25 92.464844 304.035156 92.730469 303.792969 92.972656 C 303.550781 93.214844 303.285156 93.429688 303 93.621094 C 302.714844 93.8125 302.414062 93.972656 302.097656 94.101562 C 301.78125 94.234375 301.457031 94.332031 301.121094 94.398438 C 300.785156 94.464844 300.445312 94.5 300.101562 94.5 C 299.757812 94.5 299.421875 94.464844 299.085938 94.398438 C 298.746094 94.332031 298.421875 94.234375 298.105469 94.101562 C 297.789062 93.972656 297.488281 93.8125 297.203125 93.621094 C 296.917969 93.429688 296.65625 93.214844 296.414062 92.972656 C 296.171875 92.730469 295.953125 92.464844 295.761719 92.179688 C 295.574219 91.894531 295.414062 91.59375 295.28125 91.277344 C 295.148438 90.960938 295.050781 90.632812 294.984375 90.296875 C 294.917969 89.960938 294.882812 89.621094 294.882812 89.28125 C 294.882812 88.9375 294.917969 88.597656 294.984375 88.261719 C 295.050781 87.925781 295.148438 87.597656 295.28125 87.28125 C 295.414062 86.964844 295.574219 86.664062 295.761719 86.378906 C 295.953125 86.09375 296.171875 85.832031 296.414062 85.589844 C 296.65625 85.347656 296.917969 85.128906 297.203125 84.941406 C 297.488281 84.75 297.789062 84.589844 298.105469 84.457031 C 298.421875 84.328125 298.75 84.226562 299.085938 84.160156 C 299.421875 84.09375 299.757812 84.058594 300.101562 84.058594 Z M 300.101562 84.058594 " fill-opacity="1" fill-rule="nonzero"/><path fill="#000000" d="M 71.253906 216.089844 C 71.386719 216.464844 71.589844 216.796875 71.859375 217.089844 C 72.125 217.386719 72.441406 217.617188 72.800781 217.785156 C 73.160156 217.953125 73.539062 218.046875 73.933594 218.066406 C 74.332031 218.082031 74.71875 218.023438 75.089844 217.890625 C 80.488281 216.273438 85.984375 215.761719 91.585938 216.359375 C 91.980469 216.398438 92.363281 216.359375 92.742188 216.246094 C 93.121094 216.128906 93.460938 215.949219 93.769531 215.699219 C 94.074219 215.449219 94.320312 215.148438 94.511719 214.800781 C 94.699219 214.453125 94.8125 214.082031 94.855469 213.691406 C 94.894531 213.292969 94.859375 212.902344 94.746094 212.515625 C 94.628906 212.132812 94.445312 211.785156 94.191406 211.476562 C 93.941406 211.167969 93.636719 210.917969 93.28125 210.730469 C 92.929688 210.539062 92.554688 210.429688 92.15625 210.390625 C 85.648438 209.695312 79.273438 210.316406 73.023438 212.25 C 72.652344 212.386719 72.320312 212.59375 72.03125 212.863281 C 71.738281 213.132812 71.511719 213.445312 71.347656 213.804688 C 71.179688 214.164062 71.089844 214.542969 71.074219 214.9375 C 71.058594 215.335938 71.117188 215.71875 71.253906 216.089844 Z M 71.253906 216.089844 " fill-opacity="1" fill-rule="nonzero"/><path fill="#000000" d="M 137.410156 241.171875 C 137.191406 240.835938 136.921875 240.554688 136.59375 240.332031 C 136.265625 240.105469 135.90625 239.949219 135.515625 239.867188 C 135.125 239.785156 134.734375 239.777344 134.34375 239.851562 C 133.953125 239.921875 133.589844 240.066406 133.257812 240.285156 C 132.921875 240.5 132.640625 240.773438 132.417969 241.101562 C 132.191406 241.429688 132.035156 241.789062 131.953125 242.179688 C 131.871094 242.570312 131.863281 242.960938 131.9375 243.351562 C 132.011719 243.742188 132.15625 244.105469 132.371094 244.441406 C 135.5625 249.640625 139.039062 254.640625 142.808594 259.441406 C 143.058594 259.75 143.359375 260 143.707031 260.191406 C 144.058594 260.382812 144.433594 260.5 144.828125 260.542969 C 145.226562 260.582031 145.613281 260.546875 145.996094 260.433594 C 146.378906 260.324219 146.726562 260.140625 147.035156 259.890625 C 147.347656 259.640625 147.597656 259.339844 147.789062 258.988281 C 147.976562 258.636719 148.09375 258.265625 148.136719 257.867188 C 148.179688 257.472656 148.144531 257.082031 148.03125 256.699219 C 147.917969 256.316406 147.738281 255.96875 147.484375 255.660156 C 143.824219 251.039062 140.464844 246.210938 137.410156 241.171875 Z M 137.410156 241.171875 " fill-opacity="1" fill-rule="nonzero"/><path fill="#000000" d="M 174.355469 275.699219 C 168.894531 274.226562 163.988281 271.6875 159.632812 268.078125 C 159.316406 267.832031 158.96875 267.652344 158.585938 267.542969 C 158.199219 267.4375 157.808594 267.40625 157.410156 267.453125 C 157.015625 267.5 156.640625 267.625 156.292969 267.820312 C 155.945312 268.019531 155.648438 268.273438 155.402344 268.589844 C 155.160156 268.902344 154.984375 269.25 154.878906 269.632812 C 154.773438 270.015625 154.742188 270.402344 154.792969 270.796875 C 154.839844 271.1875 154.960938 271.558594 155.15625 271.902344 C 155.347656 272.25 155.601562 272.542969 155.914062 272.789062 C 160.996094 276.910156 166.703125 279.789062 173.035156 281.429688 C 173.433594 281.527344 173.835938 281.542969 174.238281 281.476562 C 174.644531 281.414062 175.019531 281.273438 175.367188 281.058594 C 175.71875 280.847656 176.011719 280.574219 176.25 280.242188 C 176.492188 279.914062 176.660156 279.546875 176.753906 279.148438 C 176.851562 278.753906 176.867188 278.351562 176.800781 277.945312 C 176.738281 277.542969 176.601562 277.167969 176.386719 276.816406 C 176.171875 276.46875 175.898438 276.175781 175.570312 275.933594 C 175.238281 275.695312 174.875 275.527344 174.476562 275.429688 Z M 174.355469 275.699219 " fill-opacity="1" fill-rule="nonzero"/><path fill="#000000" d="M 239.011719 152.070312 C 239.363281 152.257812 239.734375 152.367188 240.128906 152.40625 C 240.523438 152.445312 240.914062 152.40625 241.292969 152.289062 C 241.671875 152.175781 242.015625 151.992188 242.320312 151.742188 C 242.628906 151.488281 242.875 151.1875 243.0625 150.839844 C 245.847656 145.707031 249.042969 140.847656 252.660156 136.261719 C 252.8125 136.113281 252.945312 135.949219 253.0625 135.773438 C 253.179688 135.59375 253.277344 135.40625 253.355469 135.210938 C 253.433594 135.011719 253.488281 134.808594 253.523438 134.597656 C 253.558594 134.386719 253.570312 134.175781 253.558594 133.964844 C 253.546875 133.753906 253.515625 133.542969 253.460938 133.339844 C 253.40625 133.132812 253.332031 132.9375 253.234375 132.746094 C 253.136719 132.558594 253.023438 132.382812 252.886719 132.214844 C 252.753906 132.050781 252.601562 131.902344 252.4375 131.769531 C 252.269531 131.636719 252.09375 131.523438 251.902344 131.429688 C 251.714844 131.335938 251.515625 131.261719 251.308594 131.207031 C 251.105469 131.15625 250.894531 131.125 250.683594 131.117188 C 250.46875 131.105469 250.261719 131.121094 250.050781 131.15625 C 249.839844 131.195312 249.636719 131.25 249.441406 131.332031 C 249.246094 131.410156 249.058594 131.511719 248.882812 131.628906 C 248.707031 131.75 248.542969 131.886719 248.398438 132.039062 C 248.25 132.191406 248.121094 132.359375 248.011719 132.539062 C 244.199219 137.414062 240.820312 142.574219 237.875 148.019531 C 237.683594 148.363281 237.566406 148.734375 237.523438 149.125 C 237.476562 149.515625 237.507812 149.898438 237.613281 150.277344 C 237.722656 150.65625 237.894531 151 238.136719 151.3125 C 238.378906 151.621094 238.671875 151.875 239.011719 152.070312 Z M 239.011719 152.070312 " fill-opacity="1" fill-rule="nonzero"/><path fill="#000000" d="M 192.351562 280.289062 C 198.417969 277.917969 203.714844 274.386719 208.246094 269.699219 C 208.523438 269.417969 208.738281 269.09375 208.890625 268.730469 C 209.042969 268.363281 209.117188 267.980469 209.117188 267.585938 C 209.117188 267.1875 209.042969 266.808594 208.890625 266.441406 C 208.738281 266.074219 208.523438 265.75 208.246094 265.46875 C 207.964844 265.1875 207.636719 264.96875 207.269531 264.8125 C 206.898438 264.660156 206.515625 264.582031 206.113281 264.582031 C 205.714844 264.582031 205.332031 264.660156 204.960938 264.8125 C 204.59375 264.96875 204.265625 265.1875 203.984375 265.46875 C 200.078125 269.550781 195.5 272.628906 190.25 274.710938 C 189.875 274.847656 189.542969 275.054688 189.25 275.324219 C 188.957031 275.597656 188.730469 275.914062 188.5625 276.277344 C 188.394531 276.640625 188.304688 277.023438 188.292969 277.421875 C 188.277344 277.820312 188.339844 278.207031 188.480469 278.582031 C 188.617188 278.957031 188.824219 279.289062 189.09375 279.582031 C 189.367188 279.875 189.683594 280.101562 190.046875 280.269531 C 190.410156 280.433594 190.792969 280.523438 191.191406 280.539062 C 191.589844 280.550781 191.976562 280.488281 192.351562 280.351562 Z M 192.351562 280.289062 " fill-opacity="1" fill-rule="nonzero"/><path fill="#000000" d="M 230.4375 186.71875 C 230.820312 186.71875 231.1875 186.652344 231.542969 186.511719 C 231.898438 186.371094 232.21875 186.167969 232.496094 185.90625 C 232.773438 185.644531 232.996094 185.339844 233.15625 184.992188 C 233.320312 184.644531 233.414062 184.28125 233.4375 183.898438 C 233.792969 178.117188 234.792969 172.445312 236.433594 166.890625 C 236.546875 166.511719 236.582031 166.125 236.539062 165.730469 C 236.5 165.335938 236.382812 164.964844 236.195312 164.617188 C 236.007812 164.265625 235.761719 163.96875 235.453125 163.71875 C 235.148438 163.46875 234.804688 163.285156 234.425781 163.171875 C 234.042969 163.054688 233.652344 163.015625 233.257812 163.054688 C 232.859375 163.09375 232.484375 163.207031 232.132812 163.394531 C 231.78125 163.582031 231.480469 163.832031 231.226562 164.140625 C 230.972656 164.453125 230.789062 164.796875 230.675781 165.179688 C 228.933594 171.183594 227.875 177.300781 227.496094 183.539062 C 227.472656 183.949219 227.53125 184.34375 227.667969 184.730469 C 227.804688 185.113281 228.011719 185.457031 228.289062 185.757812 C 228.566406 186.058594 228.890625 186.289062 229.265625 186.457031 C 229.636719 186.625 230.027344 186.710938 230.4375 186.71875 Z M 230.4375 186.71875 " fill-opacity="1" fill-rule="nonzero"/><path fill="#000000" d="M 264.566406 123.238281 C 268.800781 119.152344 273.277344 115.351562 278 111.839844 C 278.316406 111.601562 278.578125 111.308594 278.777344 110.96875 C 278.980469 110.625 279.109375 110.257812 279.164062 109.863281 C 279.222656 109.472656 279.199219 109.082031 279.101562 108.699219 C 279.003906 108.3125 278.832031 107.960938 278.59375 107.644531 C 278.355469 107.324219 278.066406 107.066406 277.726562 106.863281 C 277.382812 106.660156 277.015625 106.53125 276.621094 106.472656 C 276.230469 106.417969 275.839844 106.4375 275.457031 106.535156 C 275.070312 106.632812 274.71875 106.800781 274.402344 107.039062 C 269.472656 110.75 264.796875 114.75 260.367188 119.039062 C 260.085938 119.320312 259.871094 119.644531 259.71875 120.011719 C 259.570312 120.378906 259.492188 120.757812 259.492188 121.15625 C 259.492188 121.550781 259.570312 121.933594 259.71875 122.300781 C 259.871094 122.664062 260.085938 122.988281 260.367188 123.269531 C 260.648438 123.542969 260.972656 123.753906 261.335938 123.898438 C 261.699219 124.042969 262.078125 124.117188 262.472656 124.113281 C 262.863281 124.109375 263.242188 124.03125 263.605469 123.882812 C 263.964844 123.730469 264.285156 123.515625 264.566406 123.238281 Z M 264.566406 123.238281 " fill-opacity="1" fill-rule="nonzero"/><path fill="#000000" d="M 170.039062 70.378906 C 169.644531 70.429688 169.277344 70.550781 168.929688 70.746094 C 168.585938 70.941406 168.292969 71.195312 168.046875 71.507812 C 167.800781 71.820312 167.625 72.164062 167.519531 72.546875 C 167.414062 72.929688 167.382812 73.316406 167.429688 73.710938 C 167.605469 76.394531 167.382812 79.042969 166.769531 81.660156 C 166.6875 82.058594 166.679688 82.457031 166.757812 82.855469 C 166.832031 83.253906 166.980469 83.625 167.203125 83.964844 C 167.425781 84.304688 167.703125 84.589844 168.039062 84.820312 C 168.375 85.050781 168.742188 85.207031 169.136719 85.289062 C 169.535156 85.375 169.933594 85.378906 170.332031 85.300781 C 170.734375 85.226562 171.101562 85.078125 171.441406 84.855469 C 171.785156 84.632812 172.066406 84.355469 172.296875 84.019531 C 172.527344 83.683594 172.683594 83.316406 172.765625 82.921875 C 173.507812 79.648438 173.757812 76.335938 173.515625 72.988281 C 173.46875 72.582031 173.34375 72.199219 173.136719 71.84375 C 172.933594 71.484375 172.667969 71.183594 172.335938 70.9375 C 172.007812 70.691406 171.644531 70.519531 171.246094 70.421875 C 170.84375 70.324219 170.441406 70.3125 170.039062 70.378906 Z M 170.039062 70.378906 " fill-opacity="1" fill-rule="nonzero"/><path fill="#000000" d="M 66.09375 131.910156 C 60.128906 133.855469 54.75 136.855469 49.960938 140.910156 C 49.664062 141.175781 49.425781 141.484375 49.253906 141.84375 C 49.078125 142.203125 48.980469 142.582031 48.957031 142.980469 C 48.933594 143.375 48.984375 143.765625 49.117188 144.140625 C 49.246094 144.515625 49.445312 144.855469 49.707031 145.152344 C 49.972656 145.449219 50.285156 145.6875 50.640625 145.859375 C 51 146.035156 51.378906 146.136719 51.773438 146.160156 C 52.171875 146.183594 52.558594 146.128906 52.9375 146 C 53.3125 145.871094 53.652344 145.675781 53.949219 145.410156 C 58.160156 141.925781 62.867188 139.355469 68.074219 137.699219 C 68.480469 137.59375 68.851562 137.414062 69.179688 137.152344 C 69.511719 136.894531 69.777344 136.578125 69.972656 136.207031 C 70.171875 135.839844 70.289062 135.441406 70.320312 135.023438 C 70.351562 134.605469 70.296875 134.195312 70.160156 133.800781 C 70.019531 133.402344 69.804688 133.050781 69.519531 132.746094 C 69.230469 132.4375 68.894531 132.203125 68.507812 132.035156 C 68.121094 131.871094 67.71875 131.789062 67.300781 131.792969 C 66.878906 131.796875 66.476562 131.886719 66.09375 132.058594 Z M 66.09375 131.910156 " fill-opacity="1" fill-rule="nonzero"/><path fill="#000000" d="M 43.363281 174.808594 C 42.941406 169.320312 43.5625 163.949219 45.222656 158.699219 C 45.382812 158.316406 45.457031 157.917969 45.453125 157.5 C 45.445312 157.085938 45.355469 156.6875 45.183594 156.3125 C 45.015625 155.933594 44.773438 155.605469 44.464844 155.324219 C 44.160156 155.046875 43.808594 154.839844 43.414062 154.707031 C 43.019531 154.574219 42.617188 154.523438 42.203125 154.558594 C 41.789062 154.59375 41.398438 154.707031 41.035156 154.90625 C 40.667969 155.101562 40.355469 155.363281 40.097656 155.6875 C 39.84375 156.015625 39.660156 156.378906 39.554688 156.78125 C 37.625 162.777344 36.894531 168.917969 37.363281 175.199219 C 37.386719 175.582031 37.480469 175.945312 37.644531 176.292969 C 37.804688 176.640625 38.027344 176.945312 38.304688 177.207031 C 38.582031 177.46875 38.898438 177.667969 39.257812 177.808594 C 39.613281 177.949219 39.980469 178.019531 40.363281 178.019531 L 40.542969 178.019531 C 40.945312 177.996094 41.324219 177.898438 41.6875 177.722656 C 42.046875 177.546875 42.359375 177.304688 42.625 177.003906 C 42.890625 176.703125 43.085938 176.363281 43.214844 175.980469 C 43.339844 175.601562 43.390625 175.210938 43.363281 174.808594 Z M 43.363281 174.808594 " fill-opacity="1" fill-rule="nonzero"/><path fill="#000000" d="M 133.871094 116.371094 C 128.652344 118.660156 123.292969 120.5625 117.796875 122.070312 C 117.414062 122.175781 117.0625 122.351562 116.75 122.59375 C 116.433594 122.839844 116.179688 123.132812 115.980469 123.480469 C 115.785156 123.824219 115.660156 124.195312 115.613281 124.589844 C 115.5625 124.988281 115.589844 125.375 115.695312 125.761719 C 115.800781 126.148438 115.976562 126.5 116.222656 126.816406 C 116.46875 127.132812 116.769531 127.390625 117.117188 127.589844 C 117.46875 127.785156 117.839844 127.90625 118.238281 127.953125 C 118.636719 128 119.03125 127.96875 119.414062 127.859375 C 125.1875 126.265625 130.816406 124.265625 136.300781 121.859375 C 136.664062 121.699219 136.984375 121.472656 137.257812 121.1875 C 137.53125 120.898438 137.742188 120.566406 137.882812 120.195312 C 138.027344 119.824219 138.09375 119.441406 138.085938 119.042969 C 138.074219 118.644531 137.992188 118.265625 137.828125 117.898438 C 137.667969 117.535156 137.445312 117.214844 137.15625 116.941406 C 136.867188 116.667969 136.539062 116.457031 136.167969 116.316406 C 135.796875 116.171875 135.410156 116.105469 135.011719 116.113281 C 134.617188 116.125 134.234375 116.207031 133.871094 116.371094 Z M 133.871094 116.371094 " fill-opacity="1" fill-rule="nonzero"/><path fill="#000000" d="M 48.25 203.429688 C 48.609375 203.253906 48.921875 203.019531 49.183594 202.71875 C 49.449219 202.421875 49.644531 202.082031 49.773438 201.707031 C 49.90625 201.328125 49.957031 200.941406 49.929688 200.542969 C 49.90625 200.144531 49.804688 199.769531 49.628906 199.410156 C 48.472656 196.808594 47.472656 194.148438 46.632812 191.429688 C 46.511719 191.050781 46.320312 190.707031 46.066406 190.402344 C 45.808594 190.097656 45.5 189.851562 45.148438 189.667969 C 44.792969 189.488281 44.417969 189.378906 44.019531 189.34375 C 43.621094 189.3125 43.234375 189.359375 42.851562 189.480469 C 42.476562 189.601562 42.136719 189.789062 41.832031 190.042969 C 41.53125 190.300781 41.289062 190.601562 41.105469 190.953125 C 40.921875 191.304688 40.8125 191.675781 40.78125 192.070312 C 40.746094 192.464844 40.785156 192.851562 40.902344 193.230469 C 41.84375 196.238281 42.964844 199.179688 44.261719 202.050781 C 44.4375 202.40625 44.671875 202.710938 44.96875 202.972656 C 45.265625 203.234375 45.597656 203.429688 45.972656 203.5625 C 46.347656 203.691406 46.730469 203.742188 47.125 203.71875 C 47.519531 203.699219 47.894531 203.601562 48.25 203.429688 Z M 48.25 203.429688 " fill-opacity="1" fill-rule="nonzero"/><path fill="#000000" d="M 363.320312 204.628906 C 363.597656 201.605469 363.796875 198.574219 363.917969 195.535156 C 364.035156 192.5 364.074219 189.464844 364.03125 186.425781 C 363.992188 183.386719 363.871094 180.351562 363.671875 177.320312 C 363.46875 174.289062 363.1875 171.261719 362.828125 168.246094 C 362.46875 165.230469 362.03125 162.222656 361.511719 159.230469 C 360.992188 156.234375 360.394531 153.257812 359.71875 150.292969 C 359.046875 147.332031 358.292969 144.390625 357.460938 141.464844 C 356.632812 138.542969 355.726562 135.644531 354.742188 132.769531 C 353.757812 129.894531 352.703125 127.046875 351.570312 124.226562 C 350.4375 121.40625 349.230469 118.621094 347.949219 115.863281 C 346.671875 113.109375 345.320312 110.386719 343.898438 107.703125 C 342.472656 105.019531 340.980469 102.375 339.417969 99.769531 C 337.855469 97.164062 336.226562 94.597656 334.53125 92.078125 C 332.832031 89.558594 331.070312 87.085938 329.242188 84.660156 C 327.414062 82.230469 325.527344 79.855469 323.574219 77.527344 C 321.621094 75.199219 319.609375 72.925781 317.535156 70.703125 C 315.464844 68.480469 313.332031 66.316406 311.148438 64.207031 C 308.960938 62.097656 306.71875 60.046875 304.425781 58.054688 C 302.132812 56.0625 299.785156 54.132812 297.390625 52.265625 C 294.996094 50.398438 292.550781 48.597656 290.058594 46.855469 C 287.570312 45.117188 285.035156 43.445312 282.453125 41.839844 C 279.875 40.234375 277.257812 38.699219 274.597656 37.230469 C 271.9375 35.765625 269.238281 34.367188 266.507812 33.042969 C 263.773438 31.71875 261.007812 30.464844 258.207031 29.285156 C 255.40625 28.105469 252.578125 27.003906 249.722656 25.972656 C 246.863281 24.941406 243.980469 23.988281 241.074219 23.109375 C 238.164062 22.230469 235.238281 21.429688 232.285156 20.707031 C 229.335938 19.980469 226.371094 19.335938 223.386719 18.769531 C 220.402344 18.199219 217.40625 17.710938 214.394531 17.300781 C 211.386719 16.890625 208.367188 16.5625 205.339844 16.3125 C 202.3125 16.0625 199.28125 15.890625 196.246094 15.800781 C 193.207031 15.707031 190.171875 15.695312 187.136719 15.765625 C 184.097656 15.835938 181.066406 15.984375 178.035156 16.214844 C 175.007812 16.441406 171.988281 16.75 168.972656 17.140625 C 165.960938 17.527344 162.960938 17.996094 159.972656 18.539062 C 156.984375 19.085938 154.015625 19.710938 151.058594 20.414062 C 148.101562 21.117188 145.167969 21.898438 142.253906 22.753906 C 139.339844 23.613281 136.453125 24.546875 133.585938 25.554688 C 130.722656 26.566406 127.886719 27.648438 125.078125 28.808594 C 122.269531 29.96875 119.492188 31.199219 116.75 32.507812 C 114.007812 33.8125 111.300781 35.1875 108.632812 36.636719 C 105.960938 38.085938 103.332031 39.601562 100.738281 41.1875 C 98.148438 42.777344 95.601562 44.429688 93.097656 46.152344 C 90.597656 47.871094 88.140625 49.65625 85.730469 51.507812 C 83.320312 53.359375 80.960938 55.269531 78.652344 57.246094 C 76.34375 59.21875 74.089844 61.253906 71.886719 63.347656 C 69.6875 65.441406 67.542969 67.589844 65.453125 69.796875 C 63.363281 72.003906 61.335938 74.265625 59.367188 76.578125 C 57.398438 78.890625 55.492188 81.253906 53.644531 83.667969 C 51.800781 86.082031 50.019531 88.542969 48.304688 91.050781 C 46.589844 93.558594 44.941406 96.113281 43.363281 98.707031 C 41.78125 101.300781 40.269531 103.933594 38.828125 106.609375 C 37.386719 109.285156 36.015625 111.996094 34.714844 114.742188 C 33.417969 117.488281 32.191406 120.265625 31.039062 123.078125 C 29.882812 125.886719 28.804688 128.726562 27.800781 131.597656 C 26.800781 134.464844 25.871094 137.355469 25.019531 140.273438 C 24.167969 143.191406 23.394531 146.128906 22.699219 149.085938 C 22.003906 152.042969 21.382812 155.015625 20.84375 158.007812 C 20.304688 160.996094 19.84375 164 19.460938 167.015625 C 19.082031 170.027344 18.777344 173.050781 18.554688 176.082031 C 18.332031 179.113281 18.191406 182.144531 18.128906 185.183594 C 18.066406 188.222656 18.082031 191.257812 18.179688 194.296875 C 18.277344 197.332031 18.453125 200.367188 18.710938 203.394531 C 18.96875 206.421875 19.304688 209.441406 19.71875 212.449219 C 20.136719 215.460938 20.628906 218.457031 21.203125 221.441406 C 21.777344 224.425781 22.429688 227.390625 23.160156 230.339844 C 23.886719 233.289062 24.695312 236.21875 25.578125 239.125 C 26.464844 242.035156 27.421875 244.914062 28.460938 247.769531 C 29.496094 250.628906 30.605469 253.457031 31.789062 256.253906 C 32.976562 259.050781 34.234375 261.816406 35.5625 264.546875 C 36.894531 267.277344 38.292969 269.972656 39.765625 272.632812 C 41.238281 275.289062 42.78125 277.90625 44.390625 280.484375 C 46 283.058594 47.675781 285.59375 49.421875 288.082031 C 51.164062 290.570312 52.972656 293.007812 54.84375 295.402344 C 56.714844 297.796875 58.648438 300.136719 60.644531 302.429688 C 62.640625 304.71875 64.695312 306.957031 66.808594 309.140625 C 68.921875 311.320312 71.089844 313.449219 73.316406 315.515625 C 75.539062 317.585938 77.816406 319.59375 80.148438 321.542969 C 82.480469 323.492188 84.859375 325.375 87.289062 327.199219 C 89.71875 329.023438 92.195312 330.78125 94.71875 332.472656 C 97.242188 334.164062 99.808594 335.789062 102.414062 337.347656 C 105.023438 338.90625 107.671875 340.390625 110.359375 341.808594 C 113.042969 343.226562 115.765625 344.574219 118.523438 345.847656 C 121.28125 347.121094 124.070312 348.324219 126.890625 349.449219 C 129.710938 350.578125 132.558594 351.628906 135.4375 352.609375 C 138.3125 353.585938 141.210938 354.484375 144.136719 355.308594 C 147.058594 356.136719 150.003906 356.882812 152.964844 357.550781 C 155.929688 358.21875 158.90625 358.8125 161.902344 359.324219 C 164.894531 359.835938 167.902344 360.269531 170.917969 360.625 C 173.933594 360.976562 176.957031 361.25 179.988281 361.445312 C 183.019531 361.640625 186.054688 361.753906 189.09375 361.789062 C 192.128906 361.824219 195.164062 361.78125 198.199219 361.65625 C 201.234375 361.527344 204.265625 361.324219 207.289062 361.039062 C 210.3125 360.753906 213.328125 360.390625 216.332031 359.945312 C 219.339844 359.503906 222.328125 358.980469 225.308594 358.378906 C 228.285156 357.777344 231.242188 357.097656 234.183594 356.339844 L 235.535156 357.691406 C 235.816406 357.972656 236.140625 358.191406 236.511719 358.347656 C 236.878906 358.5 237.265625 358.578125 237.664062 358.578125 C 238.0625 358.578125 238.449219 358.5 238.816406 358.347656 C 239.1875 358.191406 239.511719 357.972656 239.792969 357.691406 L 243.933594 353.519531 C 259.039062 348.671875 273.203125 341.863281 286.425781 333.089844 C 286.640625 333.710938 286.894531 334.316406 287.1875 334.90625 C 287.476562 335.5 287.804688 336.066406 288.167969 336.617188 C 288.53125 337.164062 288.929688 337.6875 289.359375 338.1875 C 289.789062 338.683594 290.246094 339.15625 290.734375 339.59375 C 291.222656 340.035156 291.738281 340.445312 292.277344 340.820312 C 292.820312 341.195312 293.382812 341.535156 293.964844 341.839844 C 294.546875 342.144531 295.148438 342.410156 295.765625 342.640625 C 296.382812 342.867188 297.011719 343.058594 297.652344 343.207031 C 298.292969 343.355469 298.9375 343.464844 299.59375 343.53125 C 300.25 343.597656 300.90625 343.625 301.5625 343.609375 C 302.21875 343.59375 302.875 343.535156 303.523438 343.4375 C 304.175781 343.339844 304.816406 343.203125 305.449219 343.023438 C 306.082031 342.84375 306.703125 342.625 307.308594 342.367188 C 307.914062 342.109375 308.5 341.816406 309.066406 341.484375 C 309.636719 341.152344 310.179688 340.785156 310.703125 340.386719 C 311.226562 339.984375 311.71875 339.554688 312.1875 339.089844 L 319.925781 355.320312 C 320.367188 356.242188 320.921875 357.09375 321.589844 357.871094 C 322.253906 358.644531 323.011719 359.324219 323.855469 359.902344 C 324.703125 360.476562 325.605469 360.9375 326.574219 361.273438 C 327.539062 361.613281 328.53125 361.820312 329.550781 361.894531 C 330.574219 361.972656 331.585938 361.914062 332.589844 361.722656 C 333.597656 361.53125 334.558594 361.210938 335.480469 360.765625 C 336.402344 360.320312 337.25 359.765625 338.023438 359.09375 C 338.800781 358.425781 339.472656 357.667969 340.046875 356.820312 C 340.976562 354.71875 351.773438 344.128906 346.347656 328.078125 L 340.347656 310.828125 L 354.921875 296.25 C 355.320312 295.835938 355.675781 295.386719 355.984375 294.902344 C 356.296875 294.421875 356.558594 293.914062 356.773438 293.378906 C 356.988281 292.847656 357.148438 292.296875 357.257812 291.734375 C 357.367188 291.167969 357.421875 290.597656 357.421875 290.023438 C 357.421875 289.449219 357.367188 288.882812 357.257812 288.316406 C 357.148438 287.753906 356.988281 287.203125 356.773438 286.671875 C 356.558594 286.136719 356.296875 285.628906 355.984375 285.148438 C 355.675781 284.664062 355.320312 284.214844 354.921875 283.800781 L 345.175781 274.050781 C 344.398438 273.300781 343.507812 272.722656 342.507812 272.308594 C 349.976562 258.800781 355.511719 244.539062 359.121094 229.53125 C 360.222656 227.671875 361.144531 225.730469 361.886719 223.703125 C 362.632812 221.679688 363.183594 219.601562 363.539062 217.472656 C 363.898438 215.34375 364.0625 213.199219 364.023438 211.039062 C 363.988281 208.882812 363.75 206.746094 363.320312 204.628906 Z M 335.878906 271.980469 C 333.152344 273 332.3125 274.648438 329.191406 277.558594 L 323.914062 262.019531 L 349.972656 239.699219 C 346.417969 250.957031 341.71875 261.71875 335.878906 271.980469 Z M 285.617188 326.429688 C 274.511719 334.066406 262.65625 340.269531 250.050781 345.03125 C 250.523438 343.566406 250.761719 342.066406 250.761719 340.53125 C 250.761719 338.992188 250.523438 337.492188 250.050781 336.03125 L 247.050781 327.03125 L 289.367188 291.03125 L 297.792969 308.699219 C 292.484375 315.179688 286.398438 317.851562 285.617188 326.429688 Z M 237.632812 351.328125 L 198.496094 312.148438 L 203.027344 307.621094 C 203.589844 307.054688 204.21875 306.578125 204.914062 306.1875 C 205.609375 305.796875 206.34375 305.507812 207.121094 305.316406 C 207.894531 305.128906 208.679688 305.050781 209.480469 305.078125 C 210.277344 305.109375 211.054688 305.246094 211.8125 305.488281 L 222.699219 309.03125 C 223.277344 309.21875 223.855469 309.230469 224.441406 309.066406 C 225.023438 308.902344 225.511719 308.589844 225.910156 308.128906 L 315.875 202.050781 C 325.171875 191.101562 343.316406 187.738281 352.671875 197.128906 C 360.140625 204.570312 359.332031 217.710938 353.875 226.710938 C 349.703125 233.730469 354.414062 227.671875 241.742188 323.878906 C 241.28125 324.273438 240.96875 324.765625 240.804688 325.347656 C 240.640625 325.933594 240.65625 326.511719 240.84375 327.089844 L 244.351562 337.949219 C 244.59375 338.710938 244.726562 339.488281 244.753906 340.285156 C 244.78125 341.082031 244.703125 341.867188 244.515625 342.640625 C 244.324219 343.417969 244.039062 344.152344 243.648438 344.847656 C 243.257812 345.542969 242.785156 346.175781 242.222656 346.738281 Z M 215.023438 241.800781 L 216.492188 240.328125 L 235.023438 249.328125 L 228.695312 255.628906 C 219.730469 264.570312 206.023438 250.921875 215.023438 241.800781 Z M 194.03125 219.78125 C 193.667969 215.011719 198.40625 213.78125 200.988281 211.648438 C 202.363281 210.71875 203.828125 209.957031 205.378906 209.363281 C 206.933594 208.773438 208.535156 208.367188 210.179688 208.148438 C 211.828125 207.929688 213.480469 207.902344 215.132812 208.070312 C 216.785156 208.234375 218.398438 208.589844 219.96875 209.128906 L 283.609375 230.699219 L 262.617188 255.539062 C 192.738281 222.328125 194.449219 224.460938 194.03125 219.78125 Z M 266.003906 218.398438 L 245.640625 211.46875 L 258.117188 198.960938 C 258.375 198.695312 258.675781 198.496094 259.015625 198.351562 C 259.355469 198.210938 259.710938 198.136719 260.082031 198.136719 C 260.449219 198.136719 260.804688 198.210938 261.144531 198.351562 C 261.488281 198.496094 261.785156 198.695312 262.046875 198.960938 L 271.792969 208.710938 C 272.058594 208.964844 272.261719 209.261719 272.40625 209.601562 C 272.550781 209.9375 272.625 210.292969 272.625 210.660156 C 272.625 211.027344 272.550781 211.382812 272.40625 211.71875 C 272.261719 212.058594 272.058594 212.355469 271.792969 212.609375 Z M 164.371094 95.699219 C 164.046875 95.472656 163.691406 95.3125 163.308594 95.222656 C 162.921875 95.132812 162.535156 95.121094 162.144531 95.1875 C 161.753906 95.25 161.390625 95.386719 161.054688 95.59375 C 160.71875 95.804688 160.433594 96.070312 160.203125 96.390625 C 158.554688 98.65625 156.722656 100.769531 154.714844 102.71875 C 154.121094 99.074219 153.851562 95.402344 153.902344 91.710938 C 154.351562 65.339844 137.859375 47.488281 122.175781 36.511719 C 132.992188 31.539062 144.214844 27.792969 155.847656 25.261719 C 167.480469 22.730469 179.246094 21.480469 191.152344 21.511719 C 193.359375 21.515625 195.570312 21.566406 197.777344 21.664062 C 199.984375 21.757812 202.191406 21.894531 204.394531 22.078125 C 206.59375 22.257812 208.792969 22.484375 210.988281 22.75 C 213.179688 23.019531 215.367188 23.332031 217.550781 23.6875 C 219.730469 24.042969 221.902344 24.4375 224.070312 24.878906 C 226.234375 25.320312 228.390625 25.804688 230.535156 26.332031 C 232.683594 26.855469 234.820312 27.425781 236.941406 28.035156 C 239.066406 28.644531 241.175781 29.296875 243.277344 29.992188 C 245.375 30.6875 247.457031 31.421875 249.527344 32.199219 C 251.597656 32.972656 253.648438 33.789062 255.6875 34.648438 C 257.722656 35.507812 259.742188 36.402344 261.742188 37.339844 C 263.746094 38.277344 265.726562 39.253906 267.691406 40.269531 C 269.652344 41.285156 271.59375 42.339844 273.515625 43.433594 C 275.4375 44.523438 277.335938 45.65625 279.210938 46.824219 C 281.089844 47.988281 282.941406 49.195312 284.769531 50.433594 C 286.601562 51.675781 288.402344 52.953125 290.183594 54.265625 C 291.960938 55.578125 293.714844 56.921875 295.4375 58.304688 C 297.164062 59.6875 298.859375 61.101562 300.53125 62.550781 C 302.199219 63.996094 303.839844 65.476562 305.453125 66.992188 C 307.0625 68.503906 308.644531 70.050781 310.191406 71.625 C 311.742188 73.199219 313.261719 74.808594 314.746094 76.441406 C 316.234375 78.078125 317.6875 79.742188 319.109375 81.4375 C 320.527344 83.128906 321.917969 84.851562 323.269531 86.597656 C 324.621094 88.347656 325.9375 90.121094 327.222656 91.921875 C 328.503906 93.722656 329.75 95.546875 330.960938 97.394531 C 332.171875 99.246094 333.347656 101.117188 334.484375 103.011719 C 335.621094 104.910156 336.71875 106.828125 337.777344 108.765625 C 338.839844 110.707031 339.863281 112.664062 340.847656 114.644531 C 341.828125 116.625 342.773438 118.621094 343.679688 120.640625 C 344.582031 122.65625 345.445312 124.691406 346.269531 126.742188 C 347.09375 128.792969 347.878906 130.859375 348.621094 132.941406 C 349.363281 135.023438 350.066406 137.121094 350.722656 139.230469 C 329.523438 140.011719 313.085938 126.328125 298.511719 114.121094 C 286.128906 103.769531 274.519531 93.988281 261.867188 95.488281 C 253.917969 96.421875 246.449219 101.761719 239.042969 111.808594 C 221.769531 135.179688 201.167969 144.808594 182.511719 138.570312 C 169.976562 134.308594 160.5625 123.359375 156.394531 109.351562 C 159.679688 106.5 162.609375 103.320312 165.179688 99.808594 C 165.394531 99.480469 165.539062 99.125 165.613281 98.742188 C 165.6875 98.359375 165.6875 97.972656 165.609375 97.589844 C 165.535156 97.207031 165.390625 96.851562 165.175781 96.523438 C 164.960938 96.195312 164.691406 95.921875 164.371094 95.699219 Z M 81.988281 122.699219 C 72.992188 144.269531 77.851562 157.679688 83.546875 165.121094 C 93.355469 177.871094 112.667969 182.578125 126.671875 180.660156 C 127.542969 180.519531 128.421875 180.445312 129.304688 180.4375 C 130.1875 180.429688 131.066406 180.484375 131.9375 180.609375 C 132.8125 180.734375 133.671875 180.921875 134.519531 181.175781 C 135.363281 181.425781 136.1875 181.742188 136.984375 182.117188 C 137.78125 182.496094 138.546875 182.929688 139.28125 183.421875 C 140.015625 183.914062 140.707031 184.457031 141.355469 185.054688 C 142.007812 185.648438 142.609375 186.289062 143.164062 186.976562 C 143.722656 187.664062 144.222656 188.386719 144.667969 189.148438 C 149.585938 197.339844 148.59375 208.46875 142.148438 217.53125 C 138.730469 222.300781 131.5625 223.800781 123.222656 224.488281 C 119.304688 220.914062 114.988281 217.914062 110.269531 215.488281 C 109.914062 215.3125 109.535156 215.210938 109.140625 215.183594 C 108.742188 215.15625 108.355469 215.207031 107.980469 215.332031 C 107.605469 215.460938 107.265625 215.652344 106.964844 215.914062 C 106.664062 216.175781 106.425781 216.484375 106.25 216.839844 C 106.074219 217.195312 105.972656 217.574219 105.945312 217.96875 C 105.917969 218.367188 105.96875 218.753906 106.09375 219.128906 C 106.21875 219.507812 106.414062 219.84375 106.675781 220.144531 C 106.9375 220.445312 107.246094 220.683594 107.601562 220.859375 C 109.933594 222.039062 112.160156 223.390625 114.289062 224.910156 C 100.703125 225.570312 86.667969 226.351562 78.570312 235.800781 C 73.410156 241.800781 71.492188 250.351562 72.574219 261.960938 C 74.25 278.429688 71.042969 290.550781 63.574219 296.550781 C 61.988281 294.683594 60.441406 292.78125 58.9375 290.847656 C 57.433594 288.914062 55.972656 286.945312 54.554688 284.945312 C 53.136719 282.949219 51.765625 280.917969 50.4375 278.859375 C 49.109375 276.800781 47.828125 274.710938 46.589844 272.59375 C 45.355469 270.480469 44.164062 268.335938 43.023438 266.167969 C 41.882812 264 40.789062 261.808594 39.742188 259.589844 C 38.699219 257.375 37.703125 255.132812 36.757812 252.875 C 35.808594 250.613281 34.914062 248.332031 34.066406 246.03125 C 33.222656 243.730469 32.425781 241.414062 31.683594 239.078125 C 30.941406 236.742188 30.246094 234.394531 29.605469 232.027344 C 28.96875 229.660156 28.378906 227.28125 27.84375 224.890625 C 27.308594 222.5 26.824219 220.097656 26.394531 217.683594 C 25.964844 215.273438 25.589844 212.851562 25.265625 210.421875 C 24.945312 207.992188 24.675781 205.554688 24.460938 203.113281 C 24.242188 200.671875 24.082031 198.226562 23.972656 195.777344 C 23.867188 193.332031 23.8125 190.882812 23.8125 188.429688 C 23.8125 185.980469 23.867188 183.527344 23.972656 181.082031 C 24.082031 178.632812 24.242188 176.1875 24.460938 173.746094 C 24.675781 171.304688 24.945312 168.867188 25.265625 166.4375 C 25.589844 164.007812 25.964844 161.589844 26.394531 159.175781 C 26.824219 156.761719 27.308594 154.359375 27.84375 151.96875 C 28.378906 149.578125 28.96875 147.199219 29.605469 144.832031 C 30.246094 142.464844 30.941406 140.117188 31.683594 137.78125 C 32.425781 135.445312 33.222656 133.128906 34.066406 130.828125 C 34.914062 128.527344 35.808594 126.246094 36.757812 123.984375 C 37.703125 121.726562 38.699219 119.488281 39.742188 117.269531 C 40.789062 115.054688 41.882812 112.859375 43.023438 110.691406 C 44.164062 108.523438 45.355469 106.378906 46.589844 104.265625 C 47.828125 102.148438 49.109375 100.058594 50.4375 98 C 51.765625 95.941406 53.136719 93.910156 54.554688 91.914062 C 55.972656 89.914062 57.433594 87.945312 58.9375 86.011719 C 60.441406 84.078125 61.988281 82.175781 63.574219 80.308594 C 70.863281 83.101562 79.53125 88.078125 83.367188 96.628906 C 86.757812 103.890625 86.21875 112.621094 81.988281 122.699219 Z M 191.03125 355.800781 C 185.238281 355.796875 179.460938 355.492188 173.703125 354.890625 C 167.941406 354.285156 162.226562 353.382812 156.5625 352.183594 C 150.894531 350.984375 145.304688 349.492188 139.792969 347.710938 C 134.285156 345.929688 128.878906 343.867188 123.582031 341.523438 C 118.285156 339.179688 113.125 336.566406 108.101562 333.6875 C 103.074219 330.804688 98.214844 327.667969 93.515625 324.28125 C 88.816406 320.894531 84.304688 317.273438 79.984375 313.414062 C 75.660156 309.558594 71.550781 305.484375 67.652344 301.199219 C 76.652344 293.851562 80.640625 279.960938 78.75 261.539062 C 77.761719 251.640625 79.199219 244.558594 83.25 239.878906 C 89.726562 232.320312 102.589844 231.691406 115.039062 231.058594 C 117.136719 231.058594 119.207031 230.941406 121.246094 230.699219 C 121.855469 231.425781 122.636719 231.804688 123.585938 231.839844 C 124.121094 231.832031 124.617188 231.695312 125.078125 231.421875 C 125.539062 231.148438 125.902344 230.777344 126.164062 230.308594 C 135.160156 229.378906 142.6875 227.308594 147.15625 221.070312 C 155.011719 210.058594 156.152344 196.351562 149.945312 186.121094 C 149.347656 185.105469 148.679688 184.140625 147.9375 183.230469 C 147.195312 182.316406 146.390625 181.460938 145.523438 180.667969 C 144.652344 179.875 143.730469 179.148438 142.753906 178.496094 C 141.777344 177.839844 140.757812 177.261719 139.691406 176.757812 C 138.628906 176.253906 137.535156 175.835938 136.40625 175.496094 C 135.28125 175.15625 134.136719 174.902344 132.972656 174.734375 C 131.808594 174.566406 130.636719 174.488281 129.460938 174.496094 C 128.285156 174.503906 127.117188 174.597656 125.953125 174.78125 C 113.65625 176.460938 96.804688 172.46875 88.40625 161.519531 C 82.917969 154.378906 81.6875 145.109375 84.597656 133.980469 L 86.335938 133.800781 C 91.796875 133.261719 97.105469 132.539062 102.113281 131.699219 C 102.507812 131.632812 102.875 131.496094 103.210938 131.28125 C 103.550781 131.070312 103.835938 130.800781 104.066406 130.472656 C 104.296875 130.144531 104.457031 129.789062 104.542969 129.398438 C 104.632812 129.007812 104.640625 128.613281 104.570312 128.21875 C 104.511719 127.816406 104.378906 127.441406 104.164062 127.09375 C 103.953125 126.746094 103.683594 126.453125 103.351562 126.214844 C 103.019531 125.976562 102.65625 125.8125 102.257812 125.722656 C 101.863281 125.632812 101.464844 125.625 101.0625 125.699219 C 96.472656 126.449219 91.617188 127.109375 86.578125 127.648438 C 86.9375 126.75 87.207031 125.910156 87.566406 124.980469 C 92.484375 113.28125 92.996094 102.929688 89.125 94.289062 C 84.867188 84.71875 75.992188 79.019531 68.132812 75.660156 C 74.960938 68.207031 82.402344 61.433594 90.46875 55.34375 C 98.53125 49.253906 107.082031 43.945312 116.117188 39.421875 C 131.050781 49.378906 148.355469 66.238281 147.90625 91.621094 C 147.8125 96.886719 148.351562 102.085938 149.523438 107.21875 L 148.476562 108.03125 C 148.160156 108.265625 147.898438 108.554688 147.695312 108.890625 C 147.496094 109.230469 147.363281 109.59375 147.304688 109.984375 C 147.246094 110.375 147.261719 110.761719 147.355469 111.144531 C 147.449219 111.53125 147.613281 111.882812 147.847656 112.199219 C 148.03125 112.453125 148.253906 112.671875 148.507812 112.855469 C 148.761719 113.039062 149.039062 113.179688 149.335938 113.277344 C 149.636719 113.371094 149.941406 113.421875 150.253906 113.421875 C 150.570312 113.421875 150.875 113.375 151.175781 113.28125 C 151.710938 115.046875 152.347656 116.777344 153.082031 118.46875 C 153.816406 120.160156 154.648438 121.808594 155.570312 123.402344 C 156.496094 125 157.511719 126.539062 158.613281 128.019531 C 159.714844 129.5 160.898438 130.910156 162.164062 132.253906 C 163.429688 133.597656 164.769531 134.863281 166.179688 136.054688 C 167.589844 137.242188 169.066406 138.347656 170.605469 139.367188 C 172.144531 140.382812 173.734375 141.3125 175.378906 142.148438 C 177.027344 142.980469 178.714844 143.71875 180.445312 144.359375 C 184.789062 145.84375 189.257812 146.582031 193.847656 146.578125 C 211.125 146.578125 228.726562 135.75 243.722656 115.46875 C 250.109375 106.828125 256.226562 102.269531 262.464844 101.519531 C 272.421875 100.289062 282.679688 108.898438 294.523438 118.828125 C 310.296875 132 328.113281 146.851562 352.3125 145.199219 C 356.636719 161.207031 358.515625 177.5 357.953125 194.070312 C 345.957031 180.539062 322.953125 184.378906 311.289062 198.148438 L 287.804688 225.871094 L 272.183594 220.558594 L 275.839844 216.898438 C 276.25 216.492188 276.617188 216.050781 276.941406 215.574219 C 277.265625 215.09375 277.535156 214.589844 277.757812 214.054688 C 277.980469 213.523438 278.148438 212.972656 278.261719 212.40625 C 278.378906 211.839844 278.433594 211.269531 278.433594 210.691406 C 278.433594 210.113281 278.378906 209.539062 278.261719 208.972656 C 278.148438 208.40625 277.980469 207.859375 277.757812 207.324219 C 277.535156 206.792969 277.265625 206.285156 276.941406 205.808594 C 276.617188 205.328125 276.25 204.886719 275.839844 204.480469 L 266.152344 194.699219 C 265.746094 194.292969 265.300781 193.929688 264.820312 193.609375 C 264.339844 193.289062 263.832031 193.015625 263.296875 192.796875 C 262.765625 192.574219 262.214844 192.410156 261.648438 192.296875 C 261.082031 192.183594 260.507812 192.128906 259.929688 192.128906 C 259.355469 192.128906 258.78125 192.183594 258.214844 192.296875 C 257.648438 192.410156 257.097656 192.574219 256.566406 192.796875 C 256.03125 193.015625 255.523438 193.289062 255.042969 193.609375 C 254.5625 193.929688 254.117188 194.292969 253.707031 194.699219 L 239.164062 209.28125 L 233.855469 207.480469 C 233.855469 205.53125 234.066406 203.609375 234.066406 201.660156 C 234.066406 201.261719 233.988281 200.878906 233.835938 200.511719 C 233.683594 200.144531 233.46875 199.820312 233.1875 199.539062 C 232.90625 199.257812 232.582031 199.039062 232.214844 198.886719 C 231.847656 198.734375 231.464844 198.660156 231.066406 198.660156 C 230.667969 198.660156 230.285156 198.734375 229.917969 198.886719 C 229.550781 199.039062 229.226562 199.257812 228.945312 199.539062 C 228.664062 199.820312 228.449219 200.144531 228.296875 200.511719 C 228.144531 200.878906 228.066406 201.261719 228.066406 201.660156 C 228.066406 202.828125 228.066406 204.03125 228.066406 205.230469 L 222.070312 203.160156 C 220.035156 202.480469 217.949219 202.046875 215.816406 201.855469 C 213.679688 201.664062 211.550781 201.722656 209.429688 202.03125 C 207.308594 202.339844 205.25 202.886719 203.257812 203.675781 C 201.261719 204.464844 199.386719 205.472656 197.628906 206.699219 C 195.738281 208.46875 187.433594 211.289062 188.0625 220.261719 C 188.132812 221.285156 188.335938 222.28125 188.675781 223.25 C 189.011719 224.21875 189.46875 225.125 190.050781 225.972656 C 190.628906 226.820312 191.3125 227.574219 192.09375 228.238281 C 192.875 228.902344 193.730469 229.453125 194.660156 229.890625 L 210.855469 237.628906 C 210.207031 238.375 209.632812 239.171875 209.132812 240.023438 C 208.636719 240.871094 208.222656 241.761719 207.890625 242.691406 C 207.5625 243.621094 207.320312 244.574219 207.171875 245.550781 C 207.019531 246.523438 206.960938 247.503906 206.996094 248.488281 C 207.027344 249.476562 207.15625 250.449219 207.371094 251.410156 C 207.589844 252.375 207.894531 253.308594 208.289062 254.210938 C 208.683594 255.117188 209.160156 255.976562 209.714844 256.789062 C 210.269531 257.605469 210.898438 258.359375 211.59375 259.058594 C 212.292969 259.753906 213.050781 260.378906 213.867188 260.933594 C 214.683594 261.484375 215.542969 261.957031 216.449219 262.347656 C 217.351562 262.742188 218.285156 263.042969 219.25 263.257812 C 220.210938 263.472656 221.183594 263.597656 222.171875 263.628906 C 223.15625 263.660156 224.136719 263.601562 225.109375 263.445312 C 226.082031 263.292969 227.035156 263.050781 227.964844 262.71875 C 228.890625 262.382812 229.78125 261.96875 230.628906 261.464844 C 231.480469 260.964844 232.273438 260.390625 233.015625 259.738281 L 240.8125 251.910156 L 258.507812 260.339844 L 222.667969 302.699219 L 213.671875 299.699219 C 212.378906 299.273438 211.054688 299.027344 209.695312 298.96875 C 208.335938 298.910156 206.992188 299.039062 205.667969 299.355469 C 204.34375 299.671875 203.089844 300.160156 201.902344 300.824219 C 200.714844 301.492188 199.640625 302.304688 198.679688 303.269531 L 192.019531 309.929688 C 191.734375 310.210938 191.515625 310.535156 191.363281 310.90625 C 191.210938 311.277344 191.132812 311.660156 191.132812 312.058594 C 191.132812 312.460938 191.210938 312.84375 191.363281 313.214844 C 191.515625 313.582031 191.734375 313.910156 192.019531 314.191406 L 229.117188 351.300781 C 216.59375 354.273438 203.898438 355.773438 191.03125 355.800781 Z M 307.988281 334.800781 C 307.320312 335.46875 306.566406 336.027344 305.730469 336.476562 C 304.894531 336.925781 304.015625 337.242188 303.085938 337.433594 C 302.15625 337.621094 301.222656 337.675781 300.277344 337.589844 C 299.335938 337.503906 298.421875 337.285156 297.542969 336.933594 C 296.664062 336.578125 295.851562 336.109375 295.113281 335.515625 C 294.371094 334.925781 293.730469 334.242188 293.191406 333.464844 C 292.648438 332.683594 292.234375 331.84375 291.941406 330.941406 C 291.644531 330.042969 291.488281 329.117188 291.464844 328.171875 C 291.464844 321.960938 296.292969 319.828125 300.613281 314.851562 L 309.457031 333.359375 Z M 334.980469 353.460938 C 334.414062 354.296875 333.675781 354.933594 332.769531 355.371094 C 331.859375 355.8125 330.902344 355.992188 329.898438 355.917969 C 328.894531 355.84375 327.972656 355.523438 327.140625 354.957031 C 326.304688 354.386719 325.671875 353.648438 325.234375 352.738281 C 324.875 351.988281 293.953125 287.101562 294.074219 287.398438 L 318.90625 266.398438 C 327.0625 290.398438 324.484375 283.171875 325.082031 284.398438 L 340.558594 329.941406 C 345.054688 342.808594 336.089844 351.058594 334.980469 353.308594 Z M 350.695312 288.058594 C 350.953125 288.320312 351.152344 288.621094 351.292969 288.960938 C 351.433594 289.300781 351.503906 289.65625 351.503906 290.023438 C 351.503906 290.394531 351.433594 290.746094 351.292969 291.085938 C 351.152344 291.429688 350.953125 291.730469 350.695312 291.988281 L 338.21875 304.5 L 332.222656 286.949219 L 332.222656 286.679688 L 331.320312 284.039062 C 336.75 278.851562 336.960938 278.039062 338.308594 277.621094 L 338.519531 277.621094 C 338.96875 277.503906 339.414062 277.511719 339.863281 277.640625 C 340.308594 277.769531 340.6875 278.003906 341.007812 278.339844 Z M 350.695312 288.058594 " fill-opacity="1" fill-rule="nonzero"/></svg>