<svg xmlns="http://www.w3.org/2000/svg" xmlns:xlink="http://www.w3.org/1999/xlink" width="500" zoomAndPan="magnify" viewBox="0 0 375 374.999991" height="500" preserveAspectRatio="xMidYMid meet" version="1.0"><defs><clipPath id="912c9f198e"><path d="M 0 1 L 192.75 1 L 192.75 187 L 0 187 Z M 0 1 " clip-rule="nonzero"/></clipPath></defs><g clip-path="url(#912c9f198e)"><path fill="#000000" d="M 190.234375 78.585938 C 190.414062 78.585938 190.59375 78.5625 190.769531 78.519531 C 190.945312 78.472656 191.117188 78.410156 191.277344 78.324219 C 191.4375 78.238281 191.585938 78.136719 191.722656 78.015625 C 191.859375 77.894531 191.976562 77.757812 192.082031 77.609375 C 192.183594 77.460938 192.269531 77.300781 192.335938 77.128906 C 192.398438 76.960938 192.445312 76.785156 192.46875 76.605469 C 192.492188 76.425781 192.492188 76.242188 192.472656 76.0625 C 192.453125 75.882812 192.414062 75.707031 192.351562 75.535156 C 190.933594 71.730469 189.132812 68.121094 186.941406 64.703125 C 177.933594 50.664062 167.722656 35.285156 167.59375 35.101562 C 167.035156 34.28125 154.042969 15.582031 140.609375 4.542969 C 139.9375 4 139.222656 3.519531 138.464844 3.101562 C 137.707031 2.6875 136.917969 2.339844 136.097656 2.0625 C 135.28125 1.789062 134.441406 1.585938 133.585938 1.460938 C 132.730469 1.332031 131.871094 1.285156 131.007812 1.3125 C 130.144531 1.339844 129.289062 1.441406 128.441406 1.621094 C 127.597656 1.800781 126.773438 2.054688 125.972656 2.382812 C 125.171875 2.707031 124.40625 3.105469 123.675781 3.566406 C 122.945312 4.03125 122.261719 4.554688 121.625 5.140625 C 113.820312 12.328125 102.632812 24.800781 93.625 43.40625 C 93.300781 43.996094 89.761719 50.457031 85.125 59.378906 L 84.898438 59.027344 C 81.589844 51.382812 67.4375 20.144531 47.78125 34.363281 C 42.035156 38.859375 36.757812 43.855469 31.957031 49.347656 C 27.152344 54.84375 22.910156 60.742188 19.222656 67.042969 C 12.546875 75.882812 6.96875 85.410156 3.460938 91.859375 C 2.585938 93.476562 1.8125 95.140625 1.148438 96.855469 C 0.136719 99.621094 4.214844 101.269531 5.363281 98.488281 C 9.585938 89.097656 14.953125 80.652344 22.808594 69.792969 C 25.1875 67.628906 27.8125 65.8125 30.675781 64.347656 C 33.539062 62.878906 36.542969 61.816406 39.691406 61.152344 C 40.585938 60.976562 41.476562 60.980469 42.367188 61.167969 C 43.257812 61.355469 44.078125 61.710938 44.824219 62.230469 L 49.609375 65.554688 C 50.089844 65.890625 50.597656 66.1875 51.128906 66.445312 C 51.65625 66.703125 52.203125 66.914062 52.765625 67.085938 C 53.332031 67.257812 53.902344 67.382812 54.488281 67.464844 C 55.070312 67.542969 55.65625 67.578125 56.242188 67.566406 C 56.832031 67.554688 57.417969 67.5 57.996094 67.394531 C 58.574219 67.292969 59.144531 67.144531 59.699219 66.949219 C 60.253906 66.757812 60.792969 66.523438 61.3125 66.246094 C 61.832031 65.96875 62.324219 65.652344 62.796875 65.296875 L 69.007812 60.605469 C 69.925781 59.90625 70.957031 59.476562 72.101562 59.308594 C 73.242188 59.144531 74.355469 59.269531 75.433594 59.679688 L 81.390625 61.921875 L 82.738281 63.996094 C 79.402344 70.5 75.730469 77.863281 72.375 85.039062 C 63 90.375 53.824219 100.234375 56.402344 116.3125 C 59.25 133.214844 80.058594 141.15625 95.253906 146.957031 C 102.140625 149.585938 107.265625 154.617188 109.3125 160.757812 C 112.269531 168.976562 108.175781 177.023438 102.4375 183.011719 C 102.234375 183.234375 102.082031 183.484375 101.980469 183.765625 C 101.875 184.046875 101.832031 184.335938 101.84375 184.636719 C 101.855469 184.9375 101.921875 185.222656 102.050781 185.496094 C 102.175781 185.769531 102.347656 186.003906 102.566406 186.210938 C 102.789062 186.414062 103.039062 186.566406 103.320312 186.667969 C 103.601562 186.773438 103.890625 186.820312 104.1875 186.808594 C 104.488281 186.796875 104.773438 186.726562 105.046875 186.601562 C 105.316406 186.476562 105.554688 186.304688 105.757812 186.082031 C 107.753906 183.914062 109.535156 181.585938 111.105469 179.09375 C 114.933594 173.011719 115.816406 165.992188 113.597656 159.324219 C 111.121094 151.890625 105.019531 145.839844 96.859375 142.726562 C 79.160156 135.972656 63.089844 128.8125 60.855469 115.558594 C 58.683594 102.664062 65.960938 94.945312 70.882812 91.304688 C 69.058594 101.3125 68.960938 108.230469 75.015625 114.140625 C 92.519531 130.714844 148.597656 131.695312 164.957031 164.789062 C 170.875 175.390625 170.769531 184.285156 170.765625 184.488281 C 170.757812 184.789062 170.808594 185.078125 170.914062 185.359375 C 171.019531 185.636719 171.175781 185.886719 171.382812 186.105469 C 171.585938 186.324219 171.828125 186.492188 172.101562 186.617188 C 172.375 186.738281 172.660156 186.804688 172.957031 186.8125 C 173.257812 186.820312 173.546875 186.773438 173.828125 186.667969 C 174.105469 186.558594 174.355469 186.402344 174.574219 186.199219 C 174.792969 185.992188 174.960938 185.753906 175.085938 185.480469 C 175.207031 185.207031 175.273438 184.917969 175.285156 184.621094 C 175.296875 184.214844 175.503906 174.554688 169.046875 162.835938 C 151.097656 127.472656 99.574219 128.277344 78.171875 110.902344 C 73.105469 105.953125 73.636719 100.21875 76.25 87.429688 C 84.984375 68.703125 96 48.488281 97.449219 45.835938 C 98.34375 44.988281 102.371094 41.421875 109.386719 38.683594 C 110.167969 38.378906 110.972656 38.171875 111.804688 38.058594 C 112.636719 37.945312 113.46875 37.929688 114.304688 38.011719 C 115.136719 38.097656 115.949219 38.277344 116.742188 38.550781 C 117.535156 38.828125 118.285156 39.191406 118.992188 39.644531 C 120.230469 40.441406 121.554688 41.042969 122.96875 41.449219 C 124.382812 41.859375 125.824219 42.058594 127.296875 42.046875 C 128.765625 42.035156 130.207031 41.8125 131.613281 41.378906 C 133.019531 40.949219 134.335938 40.324219 135.5625 39.507812 C 136.386719 38.964844 137.269531 38.542969 138.210938 38.246094 C 139.152344 37.949219 140.117188 37.789062 141.105469 37.757812 C 142.09375 37.730469 143.066406 37.835938 144.023438 38.078125 C 144.980469 38.324219 145.886719 38.691406 146.742188 39.1875 C 153.339844 42.941406 159.789062 43.066406 165.164062 39.613281 C 168.214844 44.21875 176.066406 56.121094 183.144531 67.152344 C 185.160156 70.296875 186.816406 73.617188 188.117188 77.117188 C 188.28125 77.558594 188.558594 77.914062 188.945312 78.183594 C 189.332031 78.453125 189.761719 78.585938 190.234375 78.585938 Z M 77.027344 55.445312 C 76.140625 55.109375 75.222656 54.886719 74.28125 54.785156 C 73.339844 54.679688 72.398438 54.695312 71.457031 54.828125 C 70.519531 54.964844 69.613281 55.214844 68.738281 55.582031 C 67.863281 55.949219 67.046875 56.417969 66.289062 56.992188 L 60.078125 61.683594 C 52.570312 66.777344 49.027344 56.164062 40.980469 56.5 C 36.824219 56.691406 32.355469 58.53125 29.179688 60.027344 C 35.292969 51.675781 42.417969 44.3125 50.558594 37.933594 C 51.125 37.488281 51.726562 37.097656 52.363281 36.757812 C 53 36.421875 53.660156 36.140625 54.347656 35.921875 C 55.035156 35.703125 55.734375 35.546875 56.449219 35.453125 C 57.164062 35.359375 57.878906 35.328125 58.597656 35.363281 C 59.316406 35.394531 60.027344 35.492188 60.730469 35.65625 C 61.433594 35.816406 62.113281 36.039062 62.777344 36.320312 C 63.441406 36.605469 64.070312 36.945312 64.675781 37.339844 C 65.277344 37.738281 65.835938 38.183594 66.359375 38.679688 C 72.078125 44.230469 76.214844 51.363281 78.554688 56.023438 Z M 148.972656 35.25 C 147.753906 34.546875 146.464844 34.023438 145.105469 33.683594 C 143.742188 33.339844 142.359375 33.1875 140.957031 33.230469 C 139.550781 33.273438 138.179688 33.503906 136.84375 33.929688 C 135.503906 34.355469 134.246094 34.953125 133.074219 35.726562 C 132.214844 36.300781 131.289062 36.742188 130.300781 37.046875 C 129.3125 37.351562 128.300781 37.507812 127.269531 37.519531 C 126.234375 37.527344 125.21875 37.390625 124.226562 37.101562 C 123.230469 36.816406 122.300781 36.394531 121.429688 35.832031 C 114.996094 31.628906 108.117188 33.605469 102.0625 37.105469 C 108.148438 26.40625 115.691406 16.863281 124.683594 8.472656 C 125.121094 8.070312 125.589844 7.707031 126.09375 7.386719 C 126.59375 7.066406 127.121094 6.796875 127.671875 6.570312 C 128.222656 6.34375 128.789062 6.167969 129.371094 6.042969 C 129.953125 5.921875 130.542969 5.847656 131.136719 5.828125 C 131.730469 5.808594 132.320312 5.84375 132.910156 5.929688 C 133.5 6.015625 134.074219 6.152344 134.640625 6.339844 C 135.203125 6.53125 135.746094 6.769531 136.269531 7.054688 C 136.792969 7.339844 137.285156 7.671875 137.746094 8.042969 C 148.328125 16.730469 159.007812 30.921875 162.601562 35.882812 C 158.65625 38.367188 154.078125 38.15625 148.972656 35.25 Z M 148.972656 35.25 " fill-opacity="1" fill-rule="nonzero"/></g><path fill="#000000" d="M 30.738281 184.550781 L 30.738281 160.449219 L 52.578125 160.449219 C 52.992188 160.449219 53.378906 160.34375 53.734375 160.132812 C 54.089844 159.921875 54.363281 159.632812 54.5625 159.269531 C 54.761719 158.90625 54.851562 158.519531 54.835938 158.105469 C 54.824219 157.691406 54.703125 157.308594 54.480469 156.960938 L 40.035156 134.449219 L 47.285156 134.449219 C 47.695312 134.449219 48.082031 134.34375 48.4375 134.132812 C 48.792969 133.921875 49.070312 133.636719 49.265625 133.273438 C 49.464844 132.910156 49.554688 132.519531 49.542969 132.105469 C 49.527344 131.691406 49.40625 131.3125 49.183594 130.964844 L 30.378906 101.652344 C 30.273438 101.492188 30.152344 101.351562 30.015625 101.222656 C 29.875 101.09375 29.722656 100.988281 29.558594 100.898438 C 29.390625 100.808594 29.21875 100.742188 29.035156 100.695312 C 28.851562 100.648438 28.667969 100.625 28.476562 100.625 C 28.289062 100.625 28.105469 100.648438 27.921875 100.695312 C 27.738281 100.742188 27.566406 100.808594 27.398438 100.898438 C 27.234375 100.988281 27.082031 101.09375 26.941406 101.222656 C 26.804688 101.351562 26.683594 101.492188 26.578125 101.652344 L 7.769531 130.964844 C 7.546875 131.3125 7.429688 131.691406 7.414062 132.105469 C 7.398438 132.519531 7.492188 132.910156 7.6875 133.273438 C 7.886719 133.636719 8.164062 133.921875 8.519531 134.132812 C 8.875 134.34375 9.257812 134.449219 9.671875 134.449219 L 16.917969 134.449219 L 2.476562 156.960938 C 2.257812 157.308594 2.140625 157.691406 2.128906 158.101562 C 2.117188 158.515625 2.210938 158.898438 2.40625 159.261719 C 2.605469 159.621094 2.878906 159.910156 3.230469 160.121094 C 3.582031 160.335938 3.964844 160.441406 4.375 160.449219 L 18.972656 160.449219 C 21.9375 160.398438 21.945312 155.972656 18.972656 155.921875 L 8.511719 155.921875 L 22.957031 133.410156 C 23.179688 133.0625 23.296875 132.683594 23.3125 132.269531 C 23.328125 131.855469 23.234375 131.464844 23.039062 131.101562 C 22.839844 130.738281 22.5625 130.453125 22.207031 130.242188 C 21.851562 130.03125 21.46875 129.925781 21.054688 129.925781 L 13.808594 129.925781 L 28.476562 107.058594 L 43.148438 129.925781 L 35.898438 129.925781 C 35.488281 129.925781 35.101562 130.03125 34.746094 130.242188 C 34.390625 130.453125 34.117188 130.738281 33.917969 131.101562 C 33.71875 131.464844 33.628906 131.855469 33.644531 132.269531 C 33.65625 132.683594 33.777344 133.0625 34 133.410156 L 48.441406 155.921875 L 30.738281 155.921875 L 30.738281 123.109375 C 30.738281 122.808594 30.679688 122.519531 30.566406 122.242188 C 30.449219 121.964844 30.285156 121.722656 30.074219 121.507812 C 29.863281 121.296875 29.617188 121.132812 29.34375 121.019531 C 29.066406 120.902344 28.777344 120.847656 28.476562 120.847656 C 28.179688 120.847656 27.890625 120.902344 27.613281 121.019531 C 27.335938 121.132812 27.09375 121.296875 26.878906 121.507812 C 26.667969 121.722656 26.503906 121.964844 26.390625 122.242188 C 26.277344 122.519531 26.21875 122.808594 26.21875 123.109375 L 26.21875 143.546875 L 24.980469 142.058594 C 23.042969 139.808594 19.648438 142.636719 21.511719 144.957031 C 24.257812 147.953125 26.273438 151.238281 26.21875 155.441406 L 26.21875 184.550781 C 26.273438 187.523438 30.6875 187.527344 30.738281 184.550781 Z M 30.738281 184.550781 " fill-opacity="1" fill-rule="nonzero"/><path fill="#000000" d="M 161.539062 83.101562 C 161.242188 83.101562 160.953125 83.160156 160.675781 83.273438 C 160.398438 83.386719 160.15625 83.550781 159.941406 83.765625 C 159.730469 83.976562 159.566406 84.222656 159.453125 84.5 C 159.339844 84.773438 159.28125 85.0625 159.28125 85.363281 L 159.28125 138.550781 C 159.328125 141.515625 163.746094 141.535156 163.800781 138.550781 L 163.800781 116.632812 L 185.644531 116.632812 C 186.054688 116.632812 186.441406 116.527344 186.796875 116.316406 C 187.152344 116.105469 187.425781 115.816406 187.625 115.453125 C 187.824219 115.089844 187.914062 114.703125 187.898438 114.289062 C 187.886719 113.875 187.765625 113.492188 187.542969 113.144531 L 173.101562 90.632812 L 180.347656 90.632812 C 180.761719 90.632812 181.144531 90.527344 181.5 90.316406 C 181.855469 90.105469 182.132812 89.820312 182.332031 89.457031 C 182.53125 89.09375 182.621094 88.703125 182.605469 88.289062 C 182.589844 87.875 182.472656 87.496094 182.25 87.144531 L 163.4375 57.835938 C 163.335938 57.675781 163.214844 57.535156 163.074219 57.40625 C 162.9375 57.28125 162.785156 57.171875 162.617188 57.082031 C 162.453125 56.992188 162.277344 56.925781 162.09375 56.878906 C 161.914062 56.832031 161.726562 56.808594 161.539062 56.808594 C 161.351562 56.808594 161.164062 56.832031 160.980469 56.878906 C 160.800781 56.925781 160.625 56.992188 160.460938 57.082031 C 160.292969 57.171875 160.140625 57.28125 160.003906 57.40625 C 159.863281 57.535156 159.742188 57.675781 159.640625 57.835938 L 140.835938 87.144531 C 140.609375 87.496094 140.492188 87.875 140.476562 88.289062 C 140.460938 88.703125 140.554688 89.089844 140.75 89.453125 C 140.949219 89.816406 141.226562 90.105469 141.582031 90.316406 C 141.9375 90.527344 142.320312 90.632812 142.734375 90.632812 L 149.980469 90.632812 L 135.539062 113.144531 C 135.320312 113.496094 135.203125 113.875 135.191406 114.285156 C 135.179688 114.699219 135.273438 115.082031 135.46875 115.445312 C 135.667969 115.804688 135.941406 116.09375 136.292969 116.304688 C 136.644531 116.519531 137.027344 116.625 137.4375 116.632812 L 151.175781 116.632812 C 154.140625 116.582031 154.148438 112.15625 151.175781 112.105469 L 141.574219 112.105469 L 156.019531 89.59375 C 156.242188 89.246094 156.359375 88.867188 156.375 88.453125 C 156.390625 88.039062 156.296875 87.648438 156.101562 87.285156 C 155.902344 86.921875 155.625 86.636719 155.269531 86.425781 C 154.914062 86.214844 154.53125 86.109375 154.117188 86.109375 L 146.871094 86.109375 L 161.539062 63.242188 L 176.210938 86.109375 L 168.960938 86.109375 C 168.550781 86.109375 168.164062 86.214844 167.808594 86.425781 C 167.453125 86.636719 167.179688 86.921875 166.980469 87.285156 C 166.78125 87.648438 166.691406 88.039062 166.707031 88.453125 C 166.71875 88.867188 166.839844 89.246094 167.0625 89.59375 L 181.507812 112.105469 L 163.808594 112.105469 C 163.894531 107.910156 165.988281 104.484375 168.804688 101.515625 C 170.703125 99.226562 167.351562 96.34375 165.378906 98.570312 L 163.796875 100.414062 L 163.796875 85.363281 C 163.796875 85.0625 163.738281 84.777344 163.625 84.5 C 163.511719 84.222656 163.347656 83.976562 163.136719 83.765625 C 162.925781 83.550781 162.679688 83.390625 162.402344 83.273438 C 162.128906 83.160156 161.839844 83.101562 161.539062 83.101562 Z M 161.539062 83.101562 " fill-opacity="1" fill-rule="nonzero"/><path fill="#000000" d="M 193.367188 356.816406 C 185.417969 355.226562 180.324219 343.601562 180.277344 343.484375 C 179.882812 342.570312 178.832031 342.144531 177.914062 342.542969 C 177 342.933594 176.578125 343.992188 176.96875 344.902344 C 177.207031 345.453125 182.855469 358.382812 192.664062 360.347656 C 192.785156 360.371094 192.902344 360.382812 193.019531 360.382812 C 193.859375 360.382812 194.613281 359.792969 194.78125 358.9375 C 194.972656 357.960938 194.34375 357.011719 193.367188 356.816406 Z M 193.367188 356.816406 " fill-opacity="1" fill-rule="nonzero"/><path fill="#000000" d="M 361.054688 309.3125 C 360.46875 306.414062 358.742188 303.898438 356.3125 302.410156 C 353.5 300.691406 350.117188 299.230469 346.453125 297.984375 C 345.046875 294.492188 343.324219 292.535156 341.519531 291.320312 C 344.738281 287.617188 352.574219 278.550781 358.15625 271.582031 C 358.777344 270.804688 358.648438 269.671875 357.875 269.054688 C 357.097656 268.433594 355.96875 268.5625 355.34375 269.332031 C 349.382812 276.785156 340.800781 286.671875 338.152344 289.703125 C 337.757812 289.566406 337.367188 289.433594 336.980469 289.308594 C 334.984375 288.65625 333.101562 288.039062 331.25 286.222656 C 329.449219 284.464844 327.585938 282.894531 324.277344 283.046875 C 315.066406 283.492188 309.550781 283.558594 306.28125 283.503906 C 310.375 280.703125 313.882812 277.972656 316.953125 275.34375 C 316.957031 275.34375 316.960938 275.339844 316.964844 275.339844 C 324.671875 268.742188 329.5625 262.792969 333.488281 258 C 338.429688 251.96875 341.695312 247.984375 347.214844 246.960938 C 347.828125 246.84375 348.433594 246.671875 349.03125 246.457031 C 349.046875 246.453125 349.054688 246.445312 349.066406 246.441406 C 350.75 245.820312 352.355469 244.804688 353.773438 243.433594 C 366.539062 231.089844 373.726562 227.117188 373.800781 227.078125 C 374.671875 226.601562 374.996094 225.511719 374.523438 224.640625 C 374.046875 223.769531 372.957031 223.4375 372.085938 223.914062 C 371.78125 224.082031 364.457031 228.09375 351.269531 240.847656 C 350.398438 241.691406 349.445312 242.328125 348.457031 242.785156 C 335.773438 237.851562 333.203125 234.136719 331.433594 230.234375 C 329.058594 224.191406 325.535156 223.039062 321.453125 221.707031 C 317.589844 220.445312 312.789062 218.875 306.414062 212.484375 C 303.582031 209.644531 299.160156 209.042969 295.660156 211.003906 C 292.585938 212.734375 289.390625 214.511719 277.582031 210.460938 C 276.550781 209.339844 275.539062 208.183594 274.539062 207.035156 C 272.058594 204.1875 269.496094 201.246094 266.726562 199.050781 C 263.824219 196.753906 260.027344 196.105469 256.5625 197.3125 C 249.550781 199.761719 240.96875 206.136719 237.875 208.539062 C 234.3125 205.535156 231.199219 203.132812 228.714844 201.691406 C 227.183594 200.804688 225.53125 200.371094 223.972656 200.425781 C 218.121094 200.636719 214.273438 197.027344 210.570312 193.527344 C 209.398438 192.425781 208.292969 191.382812 207.136719 190.46875 C 203.960938 187.964844 199.472656 187.890625 196.214844 190.289062 C 179.457031 202.648438 149.234375 220.167969 148.929688 220.34375 C 148.070312 220.839844 147.773438 221.941406 148.273438 222.800781 C 148.773438 223.660156 149.871094 223.953125 150.734375 223.453125 C 151.039062 223.277344 181.429688 205.660156 198.355469 193.183594 C 200.308594 191.742188 203.007812 191.792969 204.914062 193.292969 C 205.945312 194.105469 206.992188 195.09375 208.101562 196.144531 C 211.949219 199.777344 216.710938 204.292969 224.113281 204.019531 C 225.015625 203.996094 225.972656 204.261719 226.914062 204.804688 C 231.71875 207.585938 239.71875 214.816406 248.191406 222.46875 C 255.902344 229.4375 264.648438 237.335938 272.4375 243.1875 C 277.75 247.179688 283.371094 250.082031 289.152344 251.808594 C 294.597656 253.4375 298.230469 256.132812 302.078125 258.988281 C 306.929688 262.585938 311.933594 266.289062 320.425781 267.261719 C 318.722656 268.945312 316.847656 270.691406 314.757812 272.484375 C 308.691406 274.804688 301.941406 275.574219 297.316406 275.800781 C 294.183594 275.957031 291.023438 276.957031 287.925781 278.78125 C 283.222656 281.554688 274.707031 282.421875 263.789062 282.863281 C 256.394531 276.542969 241.878906 255.277344 241.730469 255.058594 C 241.167969 254.238281 240.050781 254.023438 239.230469 254.582031 C 238.40625 255.140625 238.195312 256.261719 238.753906 257.082031 C 239.304688 257.898438 250.777344 274.699219 258.773438 283.03125 C 256.730469 283.09375 254.625 283.148438 252.453125 283.203125 C 246.007812 283.367188 239.027344 283.550781 231.546875 283.9375 C 226.386719 274.15625 224.914062 265.039062 223.519531 256.222656 C 222.355469 248.828125 221.25 241.84375 217.945312 235.542969 C 217.484375 234.660156 216.394531 234.324219 215.515625 234.785156 C 214.636719 235.246094 214.292969 236.332031 214.757812 237.210938 C 217.789062 242.992188 218.84375 249.691406 219.964844 256.785156 C 221.273438 265.066406 222.785156 274.371094 227.628906 284.164062 C 224.195312 284.375 220.671875 284.628906 217.039062 284.957031 C 207.308594 285.832031 205.460938 283.949219 200.96875 279.410156 L 200.328125 278.761719 C 199.644531 278.074219 198.945312 277.457031 198.296875 276.878906 C 197.753906 276.398438 197.25 275.953125 196.820312 275.515625 C 194.765625 273.421875 191.738281 272.539062 188.707031 273.164062 C 186.332031 273.648438 184.121094 274.019531 181.988281 274.335938 C 183.769531 258.046875 187.289062 250.09375 191.007812 241.714844 C 194.777344 233.226562 199.046875 223.605469 201.988281 204.183594 C 202.140625 203.203125 201.460938 202.285156 200.480469 202.136719 C 199.492188 201.984375 198.578125 202.664062 198.433594 203.648438 C 195.5625 222.589844 191.574219 231.570312 187.71875 240.253906 C 183.8125 249.046875 180.125 257.394531 178.320312 274.820312 C 159.246094 276.988281 150.851562 272.5625 150.714844 272.488281 C 149.851562 272 148.757812 272.300781 148.269531 273.164062 C 147.777344 274.023438 148.078125 275.125 148.9375 275.617188 C 149.433594 275.894531 161.351562 282.457031 189.433594 276.683594 C 191.226562 276.320312 193.074219 276.832031 194.253906 278.03125 C 194.738281 278.523438 195.304688 279.03125 195.910156 279.570312 C 196.507812 280.097656 197.148438 280.664062 197.777344 281.296875 L 198.410156 281.9375 C 202.589844 286.160156 205.15625 288.753906 213.019531 288.753906 C 214.316406 288.753906 215.753906 288.683594 217.367188 288.539062 C 230.375 287.371094 242.152344 287.066406 252.546875 286.800781 C 256.320312 286.703125 259.851562 286.609375 263.164062 286.484375 C 263.164062 286.484375 263.167969 286.484375 263.167969 286.484375 C 275.242188 286.03125 284.238281 285.132812 289.753906 281.882812 C 292.339844 280.355469 294.945312 279.519531 297.492188 279.394531 C 300.277344 279.257812 303.804688 278.921875 307.519531 278.207031 C 305.222656 279.886719 302.742188 281.59375 300.007812 283.328125 C 299.511719 283.644531 299.199219 284.179688 299.175781 284.769531 C 299.148438 285.359375 299.414062 285.921875 299.882812 286.277344 C 300.355469 286.636719 301.800781 287.738281 324.449219 286.644531 C 326.160156 286.550781 327.113281 287.210938 328.730469 288.792969 C 331.179688 291.195312 333.664062 292.007812 335.855469 292.726562 C 336.628906 292.980469 337.347656 293.21875 338.027344 293.507812 C 338.046875 293.515625 338.0625 293.523438 338.082031 293.53125 C 339.4375 294.117188 340.617188 294.933594 341.6875 296.523438 C 334.832031 294.617188 327.503906 293.355469 321.410156 292.539062 C 317.042969 291.957031 312.8125 291.082031 308.886719 290.222656 C 291.675781 286.457031 257.5625 289.585938 241.167969 291.085938 L 238.554688 291.324219 C 235.367188 291.609375 232.765625 293.933594 232.230469 296.96875 C 230.820312 305.027344 222.421875 305.027344 207.6875 304.332031 C 189.8125 303.496094 167.652344 302.464844 154.5625 323.390625 C 153.144531 323.144531 151.675781 322.894531 150.125 322.636719 C 149.140625 322.457031 148.214844 323.140625 148.058594 324.121094 C 147.894531 325.101562 148.558594 326.027344 149.539062 326.183594 C 151.535156 326.511719 153.398438 326.828125 155.160156 327.140625 C 155.183594 327.144531 155.207031 327.152344 155.234375 327.152344 C 178.976562 331.347656 182.203125 334.027344 185.878906 337.101562 C 187.199219 338.207031 188.695312 339.457031 190.988281 340.75 C 194 342.738281 196.867188 344.824219 199.640625 346.835938 C 206.972656 352.160156 214.542969 357.664062 225.117188 361.617188 C 224.300781 362.203125 222.875 362.421875 220.789062 362.703125 C 220.082031 362.796875 219.339844 362.90625 218.585938 363.03125 C 215.453125 362.703125 212.441406 361.484375 208.855469 359.078125 C 208.027344 358.527344 206.914062 358.742188 206.355469 359.570312 C 205.804688 360.394531 206.023438 361.511719 206.847656 362.066406 C 209.222656 363.660156 211.453125 364.800781 213.636719 365.566406 C 212.132812 366.863281 210.800781 368.429688 209.6875 369.75 C 209.035156 370.523438 208.414062 371.257812 207.996094 371.640625 C 207.261719 372.3125 207.207031 373.449219 207.878906 374.179688 C 208.234375 374.570312 208.71875 374.769531 209.207031 374.769531 C 209.640625 374.769531 210.074219 374.613281 210.421875 374.296875 C 211.015625 373.757812 211.675781 372.972656 212.441406 372.066406 C 214.136719 370.054688 216.703125 367.011719 218.921875 366.617188 C 219.722656 366.472656 220.511719 366.367188 221.265625 366.269531 C 224.398438 365.851562 227.636719 365.417969 229.023438 362.34375 C 229.335938 361.648438 229.339844 360.847656 229.039062 360.144531 C 228.738281 359.4375 228.152344 358.886719 227.433594 358.632812 C 216.765625 354.832031 209.476562 349.535156 201.757812 343.929688 C 198.953125 341.890625 196.054688 339.785156 192.871094 337.683594 C 192.574219 337.515625 192.328125 337.355469 192.058594 337.191406 C 208.636719 341.179688 224.085938 342.46875 238.273438 342.46875 C 251.675781 342.46875 263.96875 341.34375 275.054688 340.328125 C 289.359375 339.019531 301.722656 337.890625 312.472656 339.367188 C 313.703125 339.539062 314.808594 339.75 315.867188 339.949219 C 320.339844 340.796875 324.199219 341.523438 332.144531 338.6875 C 339.148438 336.183594 346.550781 334.039062 352.496094 332.320312 C 356.382812 331.191406 359.738281 330.222656 362.152344 329.394531 C 363.28125 329.007812 364.984375 328.425781 365.714844 326.753906 C 366.445312 325.074219 365.773438 323.191406 365.203125 321.917969 C 363.046875 317.105469 361.621094 312.117188 361.054688 309.3125 Z M 290.183594 248.363281 C 284.8125 246.753906 279.570312 244.050781 274.597656 240.3125 C 266.941406 234.558594 258.261719 226.714844 250.601562 219.796875 C 247.074219 216.609375 243.738281 213.601562 240.671875 210.933594 C 244.019531 208.378906 251.691406 202.824219 257.753906 200.707031 C 260.046875 199.90625 262.566406 200.339844 264.496094 201.871094 C 267.003906 203.855469 269.34375 206.546875 271.828125 209.394531 C 275.980469 214.160156 280.277344 219.089844 285.957031 221.378906 C 286.179688 221.464844 286.40625 221.507812 286.628906 221.507812 C 287.34375 221.507812 288.015625 221.082031 288.300781 220.382812 C 288.671875 219.457031 288.222656 218.410156 287.300781 218.039062 C 285.957031 217.5 284.6875 216.742188 283.460938 215.863281 C 290.648438 217.375 294.039062 216.042969 297.429688 214.136719 C 299.523438 212.960938 302.171875 213.324219 303.867188 215.023438 C 310.851562 222.023438 316.335938 223.816406 320.335938 225.121094 C 324.199219 226.382812 326.328125 227.082031 328.121094 231.632812 C 329.964844 235.703125 332.589844 239.761719 343.140625 244.46875 C 339.144531 246.128906 336.148438 249.1875 332.785156 253.199219 C 328.03125 251.6875 308.789062 244.875 295.113281 229.6875 C 294.445312 228.949219 293.308594 228.890625 292.570312 229.554688 C 291.832031 230.21875 291.773438 231.355469 292.4375 232.09375 C 305.789062 246.921875 323.664062 253.957031 330.316406 256.191406 C 329.875 256.730469 329.421875 257.28125 328.949219 257.851562 C 326.371094 257.765625 318.203125 257.277344 312.570312 254.460938 C 311.683594 254.019531 310.601562 254.378906 310.15625 255.265625 C 309.710938 256.15625 310.074219 257.234375 310.960938 257.679688 C 315.824219 260.109375 322.089844 260.976562 326.027344 261.289062 C 325.289062 262.128906 324.507812 263 323.683594 263.886719 C 314.351562 263.601562 309.425781 259.957031 304.222656 256.097656 C 300.296875 253.183594 296.234375 250.171875 290.183594 248.363281 Z M 362.410156 325.320312 C 362.375 325.398438 362.140625 325.597656 360.984375 325.992188 C 358.652344 326.789062 355.332031 327.753906 351.492188 328.867188 C 345.5 330.601562 338.035156 332.761719 330.929688 335.300781 C 323.902344 337.8125 320.8125 337.222656 316.535156 336.414062 C 315.421875 336.207031 314.257812 335.984375 312.964844 335.808594 C 301.800781 334.269531 289.253906 335.414062 274.722656 336.75 C 250.117188 339 219.503906 341.800781 184.105469 331.367188 C 180.316406 329.167969 173.875 326.917969 158.40625 324.074219 C 170.527344 306.191406 190.96875 307.144531 207.523438 307.921875 C 221.601562 308.589844 233.75 309.160156 235.78125 297.585938 C 236.03125 296.148438 237.308594 295.046875 238.882812 294.902344 L 241.5 294.664062 C 256.449219 293.292969 291.453125 290.089844 308.117188 293.734375 C 312.117188 294.609375 316.4375 295.5 320.933594 296.101562 C 329.613281 297.261719 345.507812 300.019531 354.4375 305.476562 C 356.015625 306.441406 357.140625 308.097656 357.527344 310.023438 C 358.132812 313.007812 359.644531 318.300781 361.914062 323.382812 C 362.582031 324.882812 362.410156 325.3125 362.410156 325.320312 Z M 362.410156 325.320312 " fill-opacity="1" fill-rule="nonzero"/><path fill="#000000" d="M 373.75 265.25 C 372.859375 264.808594 371.78125 265.167969 371.335938 266.054688 C 369.574219 269.578125 360.664062 285.609375 360.578125 285.769531 C 360.09375 286.636719 360.40625 287.730469 361.277344 288.214844 C 361.550781 288.367188 361.851562 288.441406 362.148438 288.441406 C 362.78125 288.441406 363.394531 288.105469 363.722656 287.515625 C 364.089844 286.851562 372.757812 271.253906 374.554688 267.664062 C 374.996094 266.777344 374.636719 265.695312 373.75 265.25 Z M 373.75 265.25 " fill-opacity="1" fill-rule="nonzero"/><path fill="#000000" d="M 371.5625 247.722656 L 362.566406 258.515625 C 361.929688 259.277344 362.03125 260.414062 362.796875 261.046875 C 363.132812 261.328125 363.539062 261.464844 363.945312 261.464844 C 364.464844 261.464844 364.972656 261.242188 365.332031 260.816406 L 374.328125 250.027344 C 374.964844 249.261719 374.859375 248.128906 374.097656 247.492188 C 373.328125 246.859375 372.199219 246.960938 371.5625 247.722656 Z M 371.5625 247.722656 " fill-opacity="1" fill-rule="nonzero"/><path fill="#000000" d="M 176.820312 319.015625 L 169.625 319.015625 C 168.628906 319.015625 167.824219 319.820312 167.824219 320.8125 C 167.824219 321.808594 168.628906 322.613281 169.625 322.613281 L 176.820312 322.613281 C 177.816406 322.613281 178.621094 321.808594 178.621094 320.8125 C 178.621094 319.820312 177.816406 319.015625 176.820312 319.015625 Z M 176.820312 319.015625 " fill-opacity="1" fill-rule="nonzero"/><path fill="#000000" d="M 193.015625 313.621094 L 176.820312 313.621094 C 175.824219 313.621094 175.023438 314.425781 175.023438 315.417969 C 175.023438 316.414062 175.824219 317.21875 176.820312 317.21875 L 193.015625 317.21875 C 194.007812 317.21875 194.8125 316.414062 194.8125 315.417969 C 194.8125 314.425781 194.007812 313.621094 193.015625 313.621094 Z M 193.015625 313.621094 " fill-opacity="1" fill-rule="nonzero"/><path fill="#000000" d="M 270.382812 299.234375 C 270.382812 298.238281 269.578125 297.433594 268.585938 297.433594 L 250.589844 297.433594 C 249.597656 297.433594 248.792969 298.238281 248.792969 299.234375 C 248.792969 300.226562 249.597656 301.03125 250.589844 301.03125 L 268.585938 301.03125 C 269.578125 301.03125 270.382812 300.226562 270.382812 299.234375 Z M 270.382812 299.234375 " fill-opacity="1" fill-rule="nonzero"/><path fill="#000000" d="M 282.980469 302.828125 L 266.785156 302.828125 C 265.789062 302.828125 264.984375 303.632812 264.984375 304.628906 C 264.984375 305.621094 265.789062 306.425781 266.785156 306.425781 L 282.980469 306.425781 C 283.972656 306.425781 284.777344 305.621094 284.777344 304.628906 C 284.777344 303.632812 283.972656 302.828125 282.980469 302.828125 Z M 282.980469 302.828125 " fill-opacity="1" fill-rule="nonzero"/><path fill="#000000" d="M 344.15625 317.21875 L 324.363281 317.21875 C 323.367188 317.21875 322.5625 318.019531 322.5625 319.015625 C 322.5625 320.011719 323.367188 320.8125 324.363281 320.8125 L 344.15625 320.8125 C 345.148438 320.8125 345.953125 320.011719 345.953125 319.015625 C 345.953125 318.019531 345.148438 317.21875 344.15625 317.21875 Z M 344.15625 317.21875 " fill-opacity="1" fill-rule="nonzero"/><path fill="#000000" d="M 345.953125 311.820312 L 336.957031 311.820312 C 335.960938 311.820312 335.160156 312.625 335.160156 313.621094 C 335.160156 314.613281 335.960938 315.417969 336.957031 315.417969 L 345.953125 315.417969 C 346.949219 315.417969 347.753906 314.613281 347.753906 313.621094 C 347.753906 312.625 346.949219 311.820312 345.953125 311.820312 Z M 345.953125 311.820312 " fill-opacity="1" fill-rule="nonzero"/><path fill="#000000" d="M 234.441406 345.992188 C 232.398438 345.96875 229.214844 346.777344 226.242188 350.722656 C 225.0625 352.289062 225.410156 353.570312 225.71875 354.195312 C 226.628906 356.011719 229.222656 356.78125 234.398438 356.78125 C 239.527344 356.78125 242.105469 356.011719 243.027344 354.210938 C 243.347656 353.585938 243.710938 352.292969 242.535156 350.671875 C 240.402344 347.726562 237.457031 346.019531 234.441406 345.992188 Z M 234.398438 353.1875 C 231.34375 353.1875 229.917969 352.878906 229.289062 352.660156 C 230.890625 350.621094 232.59375 349.589844 234.359375 349.589844 C 234.375 349.589844 234.390625 349.589844 234.402344 349.589844 C 236.195312 349.605469 238.09375 350.746094 239.519531 352.644531 C 238.925781 352.863281 237.523438 353.1875 234.398438 353.1875 Z M 234.398438 353.1875 " fill-opacity="1" fill-rule="nonzero"/><path fill="#000000" d="M 340.046875 354.058594 C 332.226562 348.226562 327.960938 352.523438 324.203125 356.324219 C 321.675781 358.871094 319.066406 361.507812 315.054688 362.207031 C 314.078125 362.375 313.421875 363.308594 313.59375 364.285156 C 313.746094 365.160156 314.507812 365.777344 315.363281 365.777344 C 315.46875 365.777344 315.570312 365.765625 315.675781 365.75 C 318.71875 365.21875 321.113281 363.835938 323.113281 362.242188 C 325.886719 362.71875 334.855469 363.863281 340.078125 359.824219 C 340.988281 359.121094 341.503906 358.0625 341.492188 356.914062 C 341.484375 355.777344 340.957031 354.734375 340.046875 354.058594 Z M 326.5625 359.050781 C 326.628906 358.984375 326.695312 358.917969 326.757812 358.855469 C 330.515625 355.0625 332.585938 352.976562 337.875 356.980469 C 334.90625 359.28125 329.921875 359.347656 326.5625 359.050781 Z M 326.5625 359.050781 " fill-opacity="1" fill-rule="nonzero"/></svg>