<svg xmlns="http://www.w3.org/2000/svg" xmlns:xlink="http://www.w3.org/1999/xlink" width="500" zoomAndPan="magnify" viewBox="0 0 375 374.999991" height="500" preserveAspectRatio="xMidYMid meet" version="1.0"><defs><clipPath id="fdde3b51ac"><path d="M 4.773438 0 L 370.023438 0 L 370.023438 375 L 4.773438 375 Z M 4.773438 0 " clip-rule="nonzero"/></clipPath></defs><path fill="#000000" d="M 80.574219 42.71875 C 80.714844 43.933594 81.695312 44.820312 82.90625 44.820312 C 83 44.820312 83.09375 44.820312 83.140625 44.820312 L 139.628906 38.847656 C 140.890625 38.707031 141.824219 37.539062 141.683594 36.28125 C 141.542969 35.019531 140.421875 34.085938 139.117188 34.226562 L 82.628906 40.199219 C 81.367188 40.292969 80.433594 41.414062 80.574219 42.71875 Z M 80.574219 42.71875 " fill-opacity="1" fill-rule="nonzero"/><path fill="#000000" d="M 153.625 38.753906 L 159.640625 38.753906 C 160.949219 38.753906 161.976562 37.726562 161.976562 36.417969 C 161.976562 35.113281 160.949219 34.085938 159.640625 34.085938 L 153.625 34.085938 C 152.320312 34.085938 151.292969 35.113281 151.292969 36.417969 C 151.292969 37.726562 152.367188 38.753906 153.625 38.753906 Z M 153.625 38.753906 " fill-opacity="1" fill-rule="nonzero"/><path fill="#000000" d="M 170.136719 36.839844 C 172.75 36.839844 176.15625 36.417969 179.46875 36 C 182.640625 35.625 185.90625 35.207031 188.238281 35.207031 C 189.542969 35.207031 190.570312 34.179688 190.570312 32.871094 C 190.570312 31.566406 189.542969 30.539062 188.238281 30.539062 C 185.625 30.539062 182.21875 30.957031 178.90625 31.378906 C 175.734375 31.753906 172.46875 32.171875 170.136719 32.171875 C 168.832031 32.171875 167.804688 33.199219 167.804688 34.507812 C 167.804688 35.8125 168.832031 36.839844 170.136719 36.839844 Z M 170.136719 36.839844 " fill-opacity="1" fill-rule="nonzero"/><path fill="#000000" d="M 118.640625 65.171875 C 118.59375 63.863281 117.613281 62.976562 116.261719 62.882812 L 63.035156 64.003906 C 61.730469 64.050781 60.703125 65.078125 60.75 66.382812 C 60.796875 67.644531 61.824219 68.671875 63.082031 68.671875 C 63.082031 68.671875 63.128906 68.671875 63.128906 68.671875 L 116.355469 67.550781 C 117.660156 67.550781 118.6875 66.476562 118.640625 65.171875 Z M 118.640625 65.171875 " fill-opacity="1" fill-rule="nonzero"/><path fill="#000000" d="M 128.714844 68.34375 C 128.808594 68.34375 128.855469 68.34375 128.949219 68.34375 C 130.113281 68.34375 131.140625 67.457031 131.28125 66.242188 C 131.421875 64.984375 130.441406 63.816406 129.179688 63.722656 L 123.164062 63.164062 C 121.859375 63.023438 120.738281 64.003906 120.644531 65.261719 C 120.503906 66.523438 121.484375 67.691406 122.746094 67.785156 Z M 128.714844 68.34375 " fill-opacity="1" fill-rule="nonzero"/><path fill="#000000" d="M 177.230469 63.722656 L 139.910156 64.375 C 138.605469 64.375 137.578125 65.449219 137.625 66.757812 C 137.625 68.015625 138.699219 69.042969 139.957031 69.042969 C 139.957031 69.042969 140.003906 69.042969 140.003906 69.042969 L 177.320312 68.390625 C 178.628906 68.390625 179.652344 67.316406 179.609375 66.011719 C 179.5625 64.703125 178.441406 63.582031 177.230469 63.722656 Z M 177.230469 63.722656 " fill-opacity="1" fill-rule="nonzero"/><path fill="#000000" d="M 143.222656 90.699219 L 74.605469 90.699219 C 73.296875 90.699219 72.273438 91.726562 72.273438 93.035156 C 72.273438 94.339844 73.296875 95.367188 74.605469 95.367188 L 143.222656 95.367188 C 144.527344 95.367188 145.554688 94.339844 145.554688 93.035156 C 145.554688 91.726562 144.527344 90.699219 143.222656 90.699219 Z M 143.222656 90.699219 " fill-opacity="1" fill-rule="nonzero"/><path fill="#000000" d="M 172.984375 93.035156 C 172.984375 91.726562 171.957031 90.699219 170.652344 90.699219 L 156.9375 90.699219 C 155.628906 90.699219 154.605469 91.726562 154.605469 93.035156 C 154.605469 94.339844 155.628906 95.367188 156.9375 95.367188 L 170.652344 95.367188 C 171.957031 95.367188 172.984375 94.292969 172.984375 93.035156 Z M 172.984375 93.035156 " fill-opacity="1" fill-rule="nonzero"/><path fill="#000000" d="M 103.804688 123.324219 C 103.757812 122.019531 102.734375 121.039062 101.378906 121.085938 L 53.097656 122.8125 C 51.792969 122.859375 50.8125 123.929688 50.859375 125.238281 C 50.90625 126.5 51.933594 127.480469 53.191406 127.480469 C 53.238281 127.480469 53.238281 127.480469 53.285156 127.480469 L 101.566406 125.75 C 102.871094 125.660156 103.851562 124.585938 103.804688 123.324219 Z M 103.804688 123.324219 " fill-opacity="1" fill-rule="nonzero"/><path fill="#000000" d="M 116.867188 121.410156 L 109.167969 121.410156 C 107.863281 121.410156 106.835938 122.4375 106.835938 123.746094 C 106.835938 125.050781 107.863281 126.078125 109.167969 126.078125 L 116.867188 126.078125 C 118.171875 126.078125 119.199219 125.050781 119.199219 123.746094 C 119.199219 122.4375 118.171875 121.410156 116.867188 121.410156 Z M 116.867188 121.410156 " fill-opacity="1" fill-rule="nonzero"/><path fill="#000000" d="M 173.964844 119.777344 L 169.578125 119.777344 C 168.273438 119.777344 167.246094 120.804688 167.246094 122.109375 C 167.246094 123.417969 168.273438 124.445312 169.578125 124.445312 L 173.964844 124.445312 C 175.269531 124.445312 176.296875 123.417969 176.296875 122.109375 C 176.296875 120.804688 175.269531 119.777344 173.964844 119.777344 Z M 173.964844 119.777344 " fill-opacity="1" fill-rule="nonzero"/><path fill="#000000" d="M 62.941406 148.480469 C 62.941406 149.789062 63.96875 150.816406 65.273438 150.816406 L 117.984375 150.816406 C 119.292969 150.816406 120.320312 149.789062 120.320312 148.480469 C 120.320312 147.175781 119.292969 146.148438 117.984375 146.148438 L 65.273438 146.148438 C 63.96875 146.148438 62.941406 147.175781 62.941406 148.480469 Z M 62.941406 148.480469 " fill-opacity="1" fill-rule="nonzero"/><path fill="#000000" d="M 81.601562 171.023438 C 81.601562 172.332031 82.628906 173.359375 83.933594 173.359375 L 135.527344 173.359375 C 136.832031 173.359375 137.859375 172.332031 137.859375 171.023438 C 137.859375 169.71875 136.832031 168.691406 135.527344 168.691406 L 83.933594 168.691406 C 82.628906 168.691406 81.601562 169.71875 81.601562 171.023438 Z M 81.601562 171.023438 " fill-opacity="1" fill-rule="nonzero"/><path fill="#000000" d="M 103.199219 185.960938 C 101.941406 185.960938 100.820312 186.941406 100.820312 188.246094 C 100.773438 189.554688 101.800781 190.628906 103.105469 190.628906 C 107.722656 190.765625 113.226562 191.234375 119.011719 191.746094 C 127.035156 192.449219 135.757812 193.242188 144.015625 193.242188 C 148.214844 193.242188 152.320312 193.054688 156.144531 192.539062 C 157.402344 192.355469 158.335938 191.1875 158.148438 189.925781 C 157.964844 188.667969 156.84375 187.734375 155.539062 187.921875 C 144.714844 189.367188 131.28125 188.152344 119.433594 187.125 C 113.554688 186.613281 108.003906 186.101562 103.199219 185.960938 Z M 103.199219 185.960938 " fill-opacity="1" fill-rule="nonzero"/><path fill="#000000" d="M 203.769531 43.792969 C 204.609375 43.792969 205.402344 43.375 205.824219 42.582031 L 208.527344 37.632812 C 209.136719 36.511719 208.714844 35.066406 207.597656 34.460938 C 206.476562 33.851562 205.03125 34.273438 204.425781 35.394531 L 201.71875 40.339844 C 201.113281 41.460938 201.53125 42.90625 202.652344 43.515625 C 203.023438 43.699219 203.398438 43.792969 203.769531 43.792969 Z M 203.769531 43.792969 " fill-opacity="1" fill-rule="nonzero"/><path fill="#000000" d="M 195.328125 73.339844 C 195.328125 73.339844 195.375 73.339844 195.328125 73.339844 C 196.632812 73.339844 197.660156 72.3125 197.707031 71.050781 C 197.707031 70.675781 198.21875 69.464844 198.5 68.765625 C 199.105469 67.363281 199.621094 66.011719 199.621094 64.703125 C 199.621094 63.441406 198.59375 62.417969 197.332031 62.417969 C 197.332031 62.417969 197.285156 62.417969 197.285156 62.417969 C 196.027344 62.417969 195 63.441406 194.953125 64.703125 C 194.953125 65.078125 194.441406 66.289062 194.160156 66.992188 C 193.554688 68.390625 193.042969 69.746094 193.042969 71.050781 C 193.042969 72.3125 194.066406 73.339844 195.328125 73.339844 Z M 195.328125 73.339844 " fill-opacity="1" fill-rule="nonzero"/><path fill="#000000" d="M 196.074219 97.421875 L 196.074219 93.59375 C 196.074219 92.289062 195.046875 91.261719 193.742188 91.261719 C 192.4375 91.261719 191.410156 92.289062 191.410156 93.59375 L 191.410156 97.421875 C 191.410156 98.726562 192.4375 99.753906 193.742188 99.753906 C 195.046875 99.753906 196.074219 98.679688 196.074219 97.421875 Z M 196.074219 97.421875 " fill-opacity="1" fill-rule="nonzero"/><path fill="#000000" d="M 198.171875 126.21875 C 199.292969 125.613281 199.664062 124.164062 199.058594 123.042969 C 198.734375 122.4375 197.894531 119.265625 197.660156 117.210938 C 197.519531 115.949219 196.449219 115.015625 195.09375 115.15625 C 193.835938 115.296875 192.902344 116.464844 193.042969 117.722656 C 193.230469 119.542969 194.113281 123.886719 195.046875 125.425781 C 195.46875 126.171875 196.214844 126.546875 197.007812 126.546875 C 197.425781 126.546875 197.800781 126.453125 198.171875 126.21875 Z M 198.171875 126.21875 " fill-opacity="1" fill-rule="nonzero"/><path fill="#000000" d="M 201.113281 141.292969 C 200.738281 140.082031 199.433594 139.332031 198.21875 139.707031 C 197.007812 140.082031 196.261719 141.386719 196.632812 142.601562 C 196.960938 143.765625 197.195312 144.792969 197.378906 145.679688 C 197.847656 147.921875 198.265625 150.023438 200.132812 151.609375 C 200.550781 151.980469 201.113281 152.167969 201.671875 152.167969 C 202.324219 152.167969 202.976562 151.886719 203.445312 151.375 C 204.285156 150.394531 204.191406 148.902344 203.210938 148.0625 C 202.605469 147.546875 202.371094 146.613281 202 144.746094 C 201.765625 143.722656 201.53125 142.554688 201.113281 141.292969 Z M 201.113281 141.292969 " fill-opacity="1" fill-rule="nonzero"/><path fill="#000000" d="M 207.875 174.617188 C 208.25 175.550781 209.136719 176.160156 210.070312 176.160156 C 210.347656 176.160156 210.628906 176.113281 210.863281 176.019531 C 212.074219 175.550781 212.679688 174.246094 212.214844 173.03125 L 209.976562 167.011719 C 209.507812 165.796875 208.15625 165.191406 206.988281 165.65625 C 205.777344 166.125 205.171875 167.429688 205.636719 168.644531 Z M 207.875 174.617188 " fill-opacity="1" fill-rule="nonzero"/><path fill="#000000" d="M 224.527344 193.289062 C 224.902344 193.566406 225.367188 193.660156 225.835938 193.660156 C 226.582031 193.660156 227.328125 193.289062 227.792969 192.632812 C 228.496094 191.558594 228.214844 190.113281 227.140625 189.414062 C 225.230469 188.152344 224.015625 186.101562 222.757812 183.953125 C 222.757812 183.953125 222.570312 183.625 222.570312 183.625 C 221.917969 182.507812 220.5625 182.320312 219.492188 182.972656 C 218.371094 183.625 218.136719 185.214844 218.792969 186.332031 C 220.144531 188.667969 221.730469 191.375 224.527344 193.289062 Z M 224.527344 193.289062 " fill-opacity="1" fill-rule="nonzero"/><path fill="#000000" d="M 232.597656 200.476562 L 235.351562 202.109375 C 235.722656 202.34375 236.144531 202.433594 236.5625 202.433594 C 237.355469 202.433594 238.148438 202.015625 238.570312 201.316406 C 239.222656 200.195312 238.898438 198.792969 237.777344 198.09375 L 235.023438 196.460938 C 233.90625 195.808594 232.503906 196.132812 231.804688 197.253906 C 231.105469 198.375 231.480469 199.820312 232.597656 200.476562 Z M 232.597656 200.476562 " fill-opacity="1" fill-rule="nonzero"/><path fill="#000000" d="M 212.914062 28.34375 C 213.425781 28.34375 213.941406 28.160156 214.359375 27.832031 L 217.113281 25.636719 C 218.136719 24.84375 218.277344 23.351562 217.484375 22.371094 C 216.691406 21.34375 215.199219 21.203125 214.21875 21.996094 L 211.46875 24.191406 C 210.441406 24.984375 210.300781 26.476562 211.09375 27.457031 C 211.5625 28.019531 212.261719 28.34375 212.914062 28.34375 Z M 212.914062 28.34375 " fill-opacity="1" fill-rule="nonzero"/><path fill="#000000" d="M 303.410156 40.855469 C 303.691406 41.925781 304.621094 42.628906 305.695312 42.628906 C 305.882812 42.628906 306.070312 42.628906 306.253906 42.582031 C 307.515625 42.253906 308.261719 40.992188 307.980469 39.78125 C 306.300781 32.917969 301.496094 27.085938 295.058594 24.144531 C 293.894531 23.632812 292.496094 24.144531 291.980469 25.3125 C 291.46875 26.476562 291.980469 27.878906 293.148438 28.390625 C 298.140625 30.679688 302.105469 35.441406 303.410156 40.855469 Z M 303.410156 40.855469 " fill-opacity="1" fill-rule="nonzero"/><path fill="#000000" d="M 305.460938 50 L 306.582031 57.140625 C 306.769531 58.308594 307.75 59.101562 308.867188 59.101562 C 309.007812 59.101562 309.101562 59.101562 309.242188 59.054688 C 310.5 58.871094 311.386719 57.65625 311.199219 56.394531 L 310.082031 49.253906 C 309.894531 47.996094 308.679688 47.109375 307.421875 47.292969 C 306.117188 47.527344 305.230469 48.742188 305.460938 50 Z M 305.460938 50 " fill-opacity="1" fill-rule="nonzero"/><path fill="#000000" d="M 309.753906 164.816406 C 308.449219 164.816406 307.421875 165.84375 307.375 167.105469 C 307.28125 174.386719 303.175781 181.480469 296.972656 185.257812 C 295.851562 185.914062 295.527344 187.359375 296.179688 188.480469 C 296.597656 189.226562 297.390625 189.601562 298.183594 189.601562 C 298.605469 189.601562 299.023438 189.507812 299.398438 189.273438 C 306.957031 184.699219 311.898438 176.019531 312.039062 167.199219 C 312.085938 165.890625 311.058594 164.816406 309.753906 164.816406 Z M 309.753906 164.816406 " fill-opacity="1" fill-rule="nonzero"/><path fill="#000000" d="M 151.757812 138.820312 C 150.824219 137.886719 149.378906 137.886719 148.445312 138.820312 C 147.515625 139.753906 147.515625 141.199219 148.445312 142.132812 L 157.777344 151.46875 C 158.242188 151.933594 158.847656 152.167969 159.410156 152.167969 C 159.96875 152.167969 160.621094 151.933594 161.042969 151.46875 C 161.976562 150.535156 161.976562 149.089844 161.042969 148.15625 Z M 151.757812 138.820312 " fill-opacity="1" fill-rule="nonzero"/><path fill="#000000" d="M 167.199219 155.4375 C 166.171875 154.640625 164.726562 154.78125 163.933594 155.808594 C 163.140625 156.835938 163.28125 158.28125 164.308594 159.078125 L 167.058594 161.269531 C 167.480469 161.597656 167.992188 161.785156 168.503906 161.785156 C 169.207031 161.785156 169.859375 161.503906 170.324219 160.894531 C 171.117188 159.871094 170.976562 158.421875 169.953125 157.628906 Z M 167.199219 155.4375 " fill-opacity="1" fill-rule="nonzero"/><path fill="#000000" d="M 39.246094 136.765625 C 38.546875 135.691406 37.097656 135.367188 36.027344 136.066406 C 34.953125 136.765625 34.628906 138.214844 35.328125 139.285156 L 42.230469 149.882812 C 42.695312 150.582031 43.445312 150.953125 44.191406 150.953125 C 44.609375 150.953125 45.074219 150.816406 45.449219 150.582031 C 46.523438 149.882812 46.847656 148.433594 46.148438 147.359375 Z M 39.246094 136.765625 " fill-opacity="1" fill-rule="nonzero"/><path fill="#000000" d="M 51.886719 156.460938 C 51.421875 155.25 50.019531 154.6875 48.855469 155.15625 C 47.640625 155.621094 47.082031 156.976562 47.546875 158.1875 L 48.667969 160.941406 C 49.042969 161.828125 49.925781 162.390625 50.8125 162.390625 C 51.09375 162.390625 51.421875 162.34375 51.699219 162.203125 C 52.914062 161.738281 53.472656 160.382812 53.007812 159.167969 Z M 51.886719 156.460938 " fill-opacity="1" fill-rule="nonzero"/><path fill="#000000" d="M 35.234375 353.328125 C 35.792969 353.328125 36.304688 353.140625 36.773438 352.769531 C 38.3125 351.414062 39.617188 350.15625 40.925781 348.847656 C 42.136719 347.636719 43.351562 346.421875 44.84375 345.160156 C 45.824219 344.320312 45.914062 342.828125 45.074219 341.847656 C 44.238281 340.867188 42.742188 340.773438 41.765625 341.613281 C 40.226562 342.96875 38.917969 344.226562 37.660156 345.488281 C 36.445312 346.703125 35.234375 347.914062 33.742188 349.222656 C 32.761719 350.0625 32.667969 351.554688 33.507812 352.535156 C 33.925781 353.09375 34.582031 353.328125 35.234375 353.328125 Z M 35.234375 353.328125 " fill-opacity="1" fill-rule="nonzero"/><path fill="#000000" d="M 46.242188 340.027344 C 46.523438 340.167969 46.847656 340.214844 47.175781 340.214844 C 48.0625 340.214844 48.902344 339.699219 49.320312 338.859375 C 49.507812 338.441406 50.066406 337.785156 50.582031 337.132812 C 51.558594 335.875 52.167969 335.078125 52.445312 334.332031 C 52.914062 333.167969 52.351562 331.90625 51.1875 331.394531 C 50.066406 330.878906 48.667969 331.4375 48.109375 332.511719 C 47.921875 332.933594 47.363281 333.585938 46.847656 334.238281 C 45.871094 335.5 45.261719 336.292969 44.984375 337.039062 C 44.515625 338.253906 45.074219 339.515625 46.242188 340.027344 Z M 46.242188 340.027344 " fill-opacity="1" fill-rule="nonzero"/><path fill="#000000" d="M 113.648438 353.328125 C 114.253906 353.328125 114.90625 353.09375 115.375 352.582031 C 117.472656 350.34375 119.058594 348.429688 120.644531 346.5625 C 122.183594 344.742188 123.722656 342.921875 125.777344 340.726562 C 126.664062 339.792969 126.617188 338.300781 125.636719 337.414062 C 124.703125 336.527344 123.210938 336.574219 122.324219 337.554688 C 120.226562 339.792969 118.640625 341.707031 117.054688 343.574219 C 115.515625 345.394531 113.972656 347.214844 111.921875 349.410156 C 111.035156 350.34375 111.082031 351.835938 112.0625 352.722656 C 112.527344 353.140625 113.089844 353.328125 113.648438 353.328125 Z M 113.648438 353.328125 " fill-opacity="1" fill-rule="nonzero"/><path fill="#000000" d="M 128.433594 336.992188 C 128.949219 336.992188 129.460938 336.808594 129.882812 336.480469 C 130.722656 335.78125 131.421875 334.660156 132.167969 333.492188 C 132.539062 332.886719 133.191406 331.859375 133.472656 331.625 C 134.453125 330.785156 134.59375 329.339844 133.753906 328.359375 C 132.914062 327.378906 131.46875 327.238281 130.488281 328.078125 C 129.648438 328.777344 128.949219 329.898438 128.203125 331.066406 C 127.828125 331.671875 127.175781 332.699219 126.894531 332.933594 C 125.917969 333.773438 125.824219 335.265625 126.617188 336.246094 C 127.128906 336.714844 127.78125 336.992188 128.433594 336.992188 Z M 128.433594 336.992188 " fill-opacity="1" fill-rule="nonzero"/><path fill="#000000" d="M 303.96875 333.304688 C 305.648438 335.3125 307.375 337.367188 309.148438 339 C 309.613281 339.421875 310.175781 339.652344 310.734375 339.652344 C 311.339844 339.652344 311.945312 339.421875 312.414062 338.90625 C 313.300781 337.972656 313.253906 336.480469 312.320312 335.59375 C 310.78125 334.144531 309.101562 332.1875 307.515625 330.273438 C 305.835938 328.265625 304.0625 326.210938 302.335938 324.578125 C 301.402344 323.691406 299.910156 323.738281 299.023438 324.671875 C 298.140625 325.605469 298.183594 327.097656 299.117188 327.984375 C 300.703125 329.480469 302.382812 331.4375 303.96875 333.304688 Z M 303.96875 333.304688 " fill-opacity="1" fill-rule="nonzero"/><path fill="#000000" d="M 289.183594 317.109375 C 289.460938 317.34375 290.117188 318.324219 290.488281 318.882812 C 291.28125 320.097656 292.074219 321.3125 293.101562 322.011719 C 293.472656 322.246094 293.894531 322.386719 294.3125 322.386719 C 295.058594 322.386719 295.761719 322.011719 296.226562 321.359375 C 296.972656 320.332031 296.691406 318.882812 295.667969 318.089844 C 295.386719 317.859375 294.734375 316.878906 294.359375 316.316406 C 293.566406 315.105469 292.773438 313.890625 291.703125 313.191406 C 290.628906 312.488281 289.277344 312.816406 288.574219 313.84375 C 287.875 314.871094 288.15625 316.363281 289.183594 317.109375 Z M 289.183594 317.109375 " fill-opacity="1" fill-rule="nonzero"/><path fill="#000000" d="M 190.429688 331.671875 C 191.457031 332.699219 192.621094 334.472656 193.742188 336.246094 C 195 338.207031 196.308594 340.214844 197.660156 341.566406 C 198.125 342.035156 198.734375 342.265625 199.292969 342.265625 C 199.898438 342.265625 200.503906 342.035156 200.925781 341.566406 C 201.8125 340.632812 201.8125 339.1875 200.925781 338.253906 C 199.898438 337.226562 198.78125 335.453125 197.660156 333.679688 C 196.402344 331.71875 195.09375 329.710938 193.742188 328.359375 C 192.808594 327.425781 191.363281 327.472656 190.429688 328.359375 C 189.496094 329.292969 189.496094 330.738281 190.429688 331.671875 Z M 190.429688 331.671875 " fill-opacity="1" fill-rule="nonzero"/><path fill="#000000" d="M 181.285156 320.425781 C 181.753906 320.75 182.78125 322.199219 183.480469 323.132812 C 184.597656 324.71875 185.671875 326.210938 186.839844 327.003906 C 187.257812 327.285156 187.675781 327.378906 188.144531 327.378906 C 188.890625 327.378906 189.636719 327.003906 190.101562 326.351562 C 190.804688 325.277344 190.523438 323.832031 189.449219 323.132812 C 188.984375 322.804688 187.957031 321.359375 187.257812 320.425781 C 186.136719 318.835938 185.066406 317.34375 183.898438 316.550781 C 182.828125 315.851562 181.378906 316.128906 180.679688 317.203125 C 179.933594 318.230469 180.214844 319.679688 181.285156 320.425781 Z M 181.285156 320.425781 " fill-opacity="1" fill-rule="nonzero"/><g clip-path="url(#fdde3b51ac)"><path fill="#000000" d="M 368.109375 192.773438 L 345.8125 148.203125 C 346.980469 145.214844 347.957031 141.808594 347.585938 138.308594 C 347.257812 135.226562 345.578125 132.238281 343.152344 130.324219 C 341.195312 128.832031 338.910156 128.132812 336.667969 128.457031 C 335.691406 128.597656 334.757812 128.972656 333.824219 129.484375 C 336.667969 105.027344 334.757812 80.152344 327.898438 56.347656 C 322.488281 37.398438 314.746094 23.726562 304.34375 14.625 C 295.199219 6.640625 283.351562 1.976562 271.316406 1.273438 C 271.035156 1.136719 270.757812 1.089844 270.429688 1.042969 C 255.175781 0.386719 243.375 1.929688 234.046875 4.777344 C 233.671875 4.636719 233.253906 4.542969 232.785156 4.589844 C 212.492188 8.042969 193.554688 11.03125 175.316406 13.921875 C 157.03125 16.816406 138.089844 19.804688 117.753906 23.304688 C 113.789062 23.304688 109.917969 23.726562 106.136719 24.425781 C 105.765625 24.144531 105.34375 23.957031 104.878906 23.957031 C 68.585938 23.257812 55.339844 43.1875 46.570312 56.535156 C 38.640625 68.625 34.066406 84.304688 33.367188 101.761719 C 33.179688 107.035156 33.320312 112.589844 33.835938 118.191406 C 31.269531 118.097656 28.421875 118.378906 25.671875 118.65625 C 22.171875 118.984375 18.582031 119.359375 16.0625 118.890625 C 15.78125 118.84375 15.5 118.84375 15.222656 118.890625 C 14.570312 118.984375 14.007812 119.359375 13.683594 119.917969 C 12.050781 122.4375 10.789062 124.632812 9.484375 126.824219 C 8.226562 128.972656 7.011719 131.074219 5.425781 133.5 C 5.191406 133.824219 5.097656 134.246094 5.097656 134.621094 C 4.960938 134.945312 4.820312 135.320312 4.867188 135.691406 C 4.867188 135.878906 4.960938 136.019531 4.960938 136.160156 C 4.867188 136.8125 5.050781 137.511719 5.566406 138.027344 C 11.351562 143.90625 30.988281 168.222656 55.851562 199.027344 C 71.199219 218.070312 88.644531 239.632812 106.183594 261.101562 C 94.054688 274.078125 82.019531 286.960938 70.6875 299.28125 C 62.429688 308.195312 54.078125 317.34375 45.730469 326.492188 C 37.378906 335.640625 29.03125 344.789062 20.773438 353.703125 C 20.351562 354.167969 20.121094 354.777344 20.167969 355.382812 C 20.121094 355.476562 20.121094 355.523438 20.074219 355.617188 C 20.074219 355.664062 20.027344 355.664062 20.027344 355.710938 C 19.980469 355.800781 20.027344 355.894531 20.027344 355.988281 C 20.027344 356.175781 19.980469 356.316406 20.027344 356.503906 C 20.027344 356.644531 20.074219 356.78125 20.121094 356.96875 C 20.167969 357.0625 20.167969 357.15625 20.214844 357.296875 C 21.285156 359.535156 22.078125 361.355469 22.824219 363.128906 C 23.617188 364.996094 24.410156 366.816406 25.53125 369.152344 C 25.625 369.292969 25.765625 369.382812 25.855469 369.523438 C 26.136719 370.363281 26.882812 370.972656 27.816406 371.113281 C 30.382812 371.390625 32.902344 372.089844 35.558594 372.792969 C 38.3125 373.539062 41.109375 374.332031 44.050781 374.613281 C 44.144531 374.613281 44.238281 374.613281 44.28125 374.613281 C 44.609375 374.613281 44.9375 374.519531 45.214844 374.425781 C 45.308594 374.378906 45.355469 374.332031 45.449219 374.285156 C 45.636719 374.144531 45.824219 374.003906 46.007812 373.863281 C 46.054688 373.820312 46.101562 373.820312 46.148438 373.773438 C 46.195312 373.773438 46.195312 373.773438 46.242188 373.773438 C 46.847656 373.445312 47.269531 372.886719 47.410156 372.277344 C 57.25 360.421875 100.914062 312.816406 126.335938 285.046875 C 131.792969 291.628906 137.113281 298.066406 142.242188 304.230469 C 142.382812 304.414062 142.570312 304.507812 142.757812 304.601562 C 136.039062 311.882812 129.320312 319.257812 122.558594 326.679688 C 114.253906 335.78125 105.90625 344.929688 97.695312 353.796875 C 97.273438 354.261719 97.042969 354.871094 97.089844 355.476562 C 97.042969 355.570312 97.042969 355.617188 96.996094 355.710938 C 96.996094 355.757812 96.949219 355.757812 96.949219 355.800781 C 96.902344 355.894531 96.949219 355.988281 96.949219 356.082031 C 96.949219 356.269531 96.902344 356.410156 96.949219 356.597656 C 96.949219 356.734375 96.996094 356.875 97.042969 357.0625 C 97.089844 357.15625 97.089844 357.25 97.136719 357.390625 C 98.207031 359.628906 99 361.449219 99.746094 363.222656 C 100.539062 365.089844 101.332031 366.910156 102.453125 369.246094 C 102.546875 369.382812 102.6875 369.476562 102.777344 369.617188 C 103.058594 370.457031 103.804688 371.066406 104.738281 371.203125 C 107.304688 371.484375 109.824219 372.183594 112.480469 372.886719 C 115.234375 373.632812 118.03125 374.425781 120.972656 374.707031 C 121.066406 374.707031 121.160156 374.707031 121.203125 374.707031 C 121.53125 374.707031 121.859375 374.613281 122.136719 374.519531 C 122.230469 374.472656 122.277344 374.425781 122.371094 374.378906 C 122.558594 374.238281 122.746094 374.097656 122.929688 373.957031 C 122.976562 373.910156 123.023438 373.910156 123.070312 373.863281 C 123.117188 373.863281 123.117188 373.863281 123.164062 373.863281 C 123.769531 373.539062 124.191406 372.976562 124.332031 372.371094 C 129.789062 365.789062 145.695312 348.195312 163.140625 329.011719 C 171.863281 339.1875 179.46875 347.914062 185.765625 354.824219 C 186.230469 355.335938 186.835938 355.570312 187.492188 355.570312 C 187.769531 355.570312 188.097656 355.523438 188.378906 355.382812 L 201.8125 355.289062 C 202.136719 355.476562 202.511719 355.570312 202.882812 355.570312 C 202.976562 355.570312 203.070312 355.523438 203.164062 355.523438 C 203.257812 355.523438 203.351562 355.617188 203.445312 355.617188 C 204.238281 355.617188 205.03125 355.195312 205.496094 354.449219 C 206.101562 353.328125 207.363281 351.089844 208.574219 348.847656 C 209.789062 346.609375 211 344.414062 211.65625 343.292969 C 212.027344 342.59375 211.980469 341.800781 211.65625 341.148438 C 211.886719 340.449219 211.792969 339.652344 211.28125 339.046875 C 202.324219 327.660156 193.507812 316.550781 184.644531 305.488281 C 192.15625 297.273438 199.246094 289.527344 205.171875 283.085938 C 213.054688 274.5 219.164062 267.777344 222.242188 264.464844 C 251.398438 300.074219 280.179688 334.660156 298.464844 354.871094 C 298.933594 355.382812 299.539062 355.617188 300.191406 355.617188 C 300.472656 355.617188 300.796875 355.570312 301.078125 355.429688 L 314.511719 355.335938 C 314.839844 355.523438 315.210938 355.617188 315.585938 355.617188 C 315.679688 355.617188 315.773438 355.570312 315.863281 355.570312 C 315.957031 355.570312 316.050781 355.664062 316.144531 355.664062 C 316.609375 355.664062 317.078125 355.476562 317.449219 355.195312 C 318.382812 354.871094 319.082031 354.027344 319.082031 353.003906 C 319.082031 352.957031 319.082031 352.910156 319.035156 352.910156 C 319.644531 351.789062 320.390625 350.433594 321.136719 349.035156 C 322.394531 346.75 323.65625 344.460938 324.261719 343.339844 C 324.632812 342.640625 324.589844 341.847656 324.308594 341.195312 C 324.542969 340.492188 324.449219 339.699219 323.933594 339.09375 L 244.867188 238.375 C 244.960938 238.28125 245.054688 238.28125 245.148438 238.1875 C 249.4375 233.378906 254.058594 228.339844 258.253906 223.765625 C 262.453125 219.191406 266.183594 215.035156 268.890625 212.003906 C 275.234375 210.882812 281.347656 209.203125 287.644531 206.960938 C 287.738281 206.960938 287.78125 206.914062 287.875 206.914062 C 291.515625 214.617188 295.433594 222.039062 299.726562 229.414062 C 302.335938 233.894531 305.042969 235.058594 307.09375 235.058594 C 307.515625 235.058594 307.933594 235.011719 308.308594 234.917969 C 311.574219 234.21875 313.253906 230.953125 313.207031 228.105469 C 313.207031 225.539062 312.039062 223.296875 311.152344 221.523438 L 301.125 201.5 C 306.722656 197.953125 311.714844 192.914062 316.191406 186.007812 C 321.507812 177.886719 325.566406 168.175781 328.925781 155.527344 C 329.394531 153.660156 329.765625 151.796875 330.1875 149.929688 C 330.839844 150.910156 331.539062 151.796875 332.425781 152.589844 C 332.65625 152.820312 332.9375 152.960938 333.265625 153.054688 C 333.265625 153.054688 333.265625 153.054688 333.3125 153.054688 C 333.683594 153.242188 334.058594 153.335938 334.429688 153.476562 C 340.914062 170.652344 347.957031 185.679688 356.679688 200.660156 C 359.292969 205.140625 362 206.308594 364.050781 206.308594 C 364.472656 206.308594 364.890625 206.261719 365.265625 206.167969 C 368.53125 205.46875 370.210938 202.203125 370.164062 199.355469 C 370.117188 196.789062 368.996094 194.546875 368.109375 192.773438 Z M 211.933594 144.5625 C 216.738281 159.917969 224.109375 179.378906 239.128906 193.289062 C 247.292969 200.847656 257.183594 205.75 267.398438 207.523438 C 265.207031 207.894531 263.011719 208.222656 260.726562 208.503906 C 246.964844 210.089844 232.785156 205.1875 221.777344 195.015625 C 207.597656 181.851562 200.460938 163.136719 195.839844 148.339844 C 188.84375 125.890625 185.8125 105.914062 186.558594 87.246094 C 187.304688 68.34375 192.203125 51.449219 200.691406 38.472656 L 201.671875 36.980469 C 208.714844 26.199219 217.8125 12.382812 242.90625 7.4375 C 232.925781 12.570312 223.921875 20.644531 217.296875 30.773438 C 208.296875 44.449219 203.164062 62.136719 202.371094 81.925781 C 201.671875 101.15625 204.796875 121.644531 211.933594 144.5625 Z M 319.828125 341.289062 C 319.128906 342.5 318.058594 344.507812 316.9375 346.515625 C 316.378906 347.542969 315.816406 348.570312 315.304688 349.457031 C 287.691406 318.746094 238.570312 258.394531 198.917969 209.621094 C 169.066406 172.9375 145.367188 143.765625 137.71875 135.644531 C 140.9375 131.304688 144.855469 127.480469 149.238281 124.304688 C 149.238281 124.304688 149.238281 124.351562 149.285156 124.351562 L 232.878906 230.71875 C 232.972656 231.234375 233.207031 231.699219 233.578125 232.074219 C 233.765625 232.257812 234 232.351562 234.230469 232.445312 Z M 300.9375 350.527344 C 280.925781 328.359375 249.019531 289.808594 217.625 251.394531 C 217.484375 251.160156 217.34375 250.929688 217.160156 250.742188 C 217.113281 250.695312 217.066406 250.695312 217.019531 250.648438 C 205.589844 236.648438 194.253906 222.691406 183.574219 209.621094 C 156.003906 175.738281 133.660156 148.25 124.375 137.839844 C 126.242188 137.839844 128.203125 137.839844 130.019531 137.886719 C 131.28125 137.886719 132.445312 137.933594 133.519531 137.933594 C 133.566406 137.980469 133.566406 138.027344 133.613281 138.074219 C 140.191406 144.746094 165.753906 176.207031 195.375 212.609375 C 234.183594 260.308594 282 319.117188 310.035156 350.527344 Z M 153.90625 292.28125 C 148.632812 285.933594 143.269531 279.445312 137.859375 272.816406 C 137.765625 272.726562 137.671875 272.679688 137.578125 272.585938 C 141.214844 268.617188 143.96875 265.628906 145.601562 263.808594 C 150.964844 270.625 156.285156 277.34375 161.601562 283.972656 Z M 124.75 279.679688 C 99.421875 307.308594 58.835938 351.601562 45.777344 366.769531 C 45.589844 366.117188 45.355469 365.464844 45.167969 364.808594 C 44.609375 362.945312 44.003906 361.03125 43.304688 359.351562 C 53.472656 347.308594 96.855469 300.773438 123.351562 272.351562 C 129.179688 266.097656 134.21875 260.683594 138.183594 256.390625 L 142.429688 260.355469 C 139.628906 263.4375 133.191406 270.484375 124.75 279.679688 Z M 164.773438 280.519531 C 160.480469 275.105469 156.144531 269.644531 151.804688 264.136719 C 155.304688 264.605469 158.804688 265.023438 162.347656 265.445312 C 167.292969 266.003906 172.285156 266.65625 176.949219 267.355469 Z M 180.726562 263.296875 C 180.632812 263.25 180.539062 263.203125 180.402344 263.15625 C 174.894531 262.175781 168.785156 261.476562 162.859375 260.777344 C 157.683594 260.167969 152.367188 259.515625 147.46875 258.722656 L 143.59375 255.128906 L 184.691406 258.910156 Z M 188.703125 254.664062 L 143.734375 250.507812 C 145.273438 248.828125 146.394531 247.613281 146.953125 246.960938 L 147.46875 246.355469 C 151.246094 246.589844 155.070312 246.820312 159.035156 247.101562 C 159.269531 247.195312 159.503906 247.242188 159.734375 247.242188 C 159.828125 247.242188 159.921875 247.195312 160.0625 247.195312 C 163.933594 247.429688 167.851562 247.707031 171.816406 247.988281 C 179.1875 248.5 186.511719 248.96875 193.554688 249.433594 Z M 178.816406 211.117188 C 179.1875 211.582031 179.609375 212.050781 179.980469 212.5625 C 181.007812 213.824219 182.078125 215.128906 183.105469 216.390625 C 182.917969 216.53125 182.6875 216.625 182.546875 216.8125 C 177.230469 222.785156 170.042969 230.484375 163.09375 237.953125 L 158.894531 242.433594 C 156.332031 242.246094 153.90625 242.105469 151.433594 241.96875 Z M 197.613281 245 C 189.496094 244.488281 180.820312 243.925781 172.097656 243.320312 C 169.671875 243.179688 167.292969 242.992188 164.867188 242.855469 L 166.453125 241.175781 C 173.402344 233.707031 180.585938 226.003906 185.953125 219.984375 C 191.269531 226.519531 196.726562 233.191406 202.230469 240.007812 Z M 126.148438 129.113281 C 127.175781 127.339844 128.25 125.519531 129.507812 123.558594 C 130.207031 123.605469 130.90625 123.746094 131.699219 123.746094 C 133.988281 123.746094 136.410156 123.511719 138.835938 123.230469 C 140.378906 123.089844 141.964844 122.90625 143.503906 122.859375 C 139.816406 125.890625 136.550781 129.390625 133.753906 133.21875 C 132.632812 133.21875 131.421875 133.21875 130.160156 133.171875 C 128.109375 133.125 125.917969 133.125 123.816406 133.125 C 124.609375 131.773438 125.402344 130.417969 126.148438 129.113281 Z M 229.894531 210.042969 L 225.929688 214.335938 L 221.917969 209.203125 C 224.714844 209.53125 227.046875 209.761719 229.332031 209.996094 C 229.519531 209.996094 229.707031 210.042969 229.894531 210.042969 Z M 228.867188 218.023438 L 235.164062 211.210938 C 235.351562 211.023438 235.445312 210.835938 235.539062 210.601562 C 237.078125 210.789062 238.757812 210.976562 240.714844 211.164062 C 240.761719 211.164062 240.761719 211.164062 240.808594 211.164062 C 243.140625 211.863281 245.472656 212.328125 247.851562 212.703125 C 246.21875 214.523438 244.402344 216.53125 242.582031 218.585938 C 240.109375 221.335938 237.636719 224.089844 235.585938 226.378906 Z M 175.96875 18.542969 C 189.777344 16.351562 203.910156 14.109375 218.746094 11.683594 C 208.34375 18.355469 202.605469 27.085938 197.847656 34.414062 L 196.867188 35.90625 C 187.863281 49.582031 182.734375 67.269531 181.941406 87.058594 C 181.195312 106.289062 184.320312 126.777344 191.410156 149.695312 C 196.214844 165.097656 203.632812 184.511719 218.605469 198.421875 C 221.355469 200.941406 224.296875 203.183594 227.328125 205.09375 C 224.761719 204.816406 222.011719 204.535156 218.371094 204.117188 C 218.183594 204.117188 218.046875 204.164062 217.90625 204.164062 L 152.925781 121.503906 C 152.738281 121.269531 152.457031 121.039062 152.226562 120.898438 C 152.226562 120.476562 152.132812 120.058594 151.898438 119.683594 C 151.433594 118.9375 150.546875 118.5625 149.707031 118.65625 C 149.566406 118.609375 149.425781 118.515625 149.285156 118.472656 C 146.066406 117.863281 142.148438 118.285156 138.324219 118.65625 C 134.824219 118.984375 131.234375 119.359375 128.714844 118.890625 C 128.433594 118.84375 128.15625 118.84375 127.921875 118.890625 C 127.269531 118.984375 126.710938 119.359375 126.335938 119.917969 C 124.75 122.390625 123.445312 124.585938 122.183594 126.777344 C 120.925781 128.925781 119.664062 131.074219 118.125 133.5 C 117.894531 133.824219 117.800781 134.246094 117.800781 134.621094 C 117.660156 134.945312 117.519531 135.320312 117.566406 135.691406 C 117.566406 135.878906 117.660156 136.019531 117.660156 136.160156 C 117.566406 136.8125 117.753906 137.511719 118.265625 138.027344 C 124.332031 144.1875 146.628906 171.492188 173.308594 204.300781 L 102.5 199.773438 C 102.265625 199.773438 102.078125 199.820312 101.894531 199.867188 L 50.90625 135.085938 C 50.953125 134.757812 51 134.433594 50.90625 134.105469 C 48.714844 122.859375 47.828125 112.03125 48.203125 101.902344 C 48.292969 99.476562 48.480469 97.046875 48.761719 94.714844 C 49.179688 95.132812 49.789062 95.414062 50.441406 95.414062 C 50.488281 95.414062 50.488281 95.414062 50.535156 95.414062 L 67 94.902344 C 68.308594 94.855469 69.285156 93.78125 69.238281 92.472656 C 69.191406 91.167969 68.121094 90.234375 66.8125 90.234375 L 50.347656 90.746094 C 49.925781 90.746094 49.554688 90.933594 49.226562 91.121094 C 50.953125 78.890625 54.824219 67.925781 60.65625 59.054688 C 68.867188 46.546875 90.929688 27.878906 117.941406 27.878906 C 118.078125 27.878906 118.21875 27.878906 118.3125 27.832031 C 138.699219 24.425781 157.683594 21.4375 175.96875 18.542969 Z M 117.613281 248.828125 C 102.21875 229.972656 87.246094 211.441406 73.90625 194.96875 C 50.441406 165.9375 31.734375 142.789062 25.019531 135.644531 C 28.238281 131.304688 32.15625 127.480469 36.539062 124.304688 C 36.539062 124.304688 36.539062 124.351562 36.585938 124.351562 L 126.757812 239.027344 C 123.675781 242.292969 120.644531 245.5625 117.613281 248.828125 Z M 129.976562 235.621094 L 105.671875 204.722656 L 155.722656 207.941406 C 147.375 216.902344 138.746094 226.191406 129.976562 235.621094 Z M 37.984375 101.949219 C 38.640625 85.332031 42.929688 70.492188 50.441406 59.054688 C 57.625 48.089844 67.046875 33.804688 89.390625 29.746094 C 74.089844 36.699219 62.382812 47.949219 56.738281 56.535156 C 48.761719 68.671875 44.238281 84.304688 43.535156 101.761719 C 43.210938 110.023438 43.769531 118.75 45.074219 127.757812 L 40.179688 121.503906 C 39.992188 121.269531 39.710938 121.039062 39.476562 120.898438 C 39.476562 120.476562 39.386719 120.058594 39.152344 119.683594 C 38.964844 119.402344 38.730469 119.171875 38.5 119.03125 C 37.984375 113.148438 37.800781 107.410156 37.984375 101.949219 Z M 18.953125 123.746094 C 21.238281 123.746094 23.664062 123.511719 26.089844 123.230469 C 27.628906 123.089844 29.214844 122.90625 30.753906 122.859375 C 27.070312 125.890625 23.804688 129.390625 21.007812 133.21875 C 19.886719 133.21875 18.671875 133.21875 17.414062 133.171875 C 15.363281 133.125 13.167969 133.125 11.070312 133.125 C 11.910156 131.773438 12.703125 130.417969 13.449219 129.113281 C 14.476562 127.339844 15.59375 125.519531 16.808594 123.558594 C 17.507812 123.652344 18.207031 123.746094 18.953125 123.746094 Z M 59.445312 196.085938 C 37.566406 169.015625 19.746094 146.941406 11.675781 137.792969 C 13.542969 137.792969 15.5 137.792969 17.320312 137.839844 C 18.582031 137.839844 19.746094 137.886719 20.820312 137.886719 C 20.867188 137.933594 20.867188 137.980469 20.914062 138.027344 C 26.695312 143.90625 45.914062 167.710938 70.3125 197.863281 C 83.746094 214.523438 98.90625 233.238281 114.441406 252.234375 C 112.761719 254.054688 111.082031 255.828125 109.402344 257.601562 C 91.910156 236.367188 74.652344 214.992188 59.445312 196.085938 Z M 49.132812 329.617188 C 57.484375 320.472656 65.835938 311.324219 74.089844 302.410156 C 88.273438 287.054688 103.480469 270.8125 118.640625 254.570312 L 119.851562 253.261719 C 134.125 238 148.355469 222.738281 161.742188 208.269531 L 174.382812 209.0625 L 143.457031 243.835938 C 141.496094 246.027344 131.980469 256.25 119.898438 269.175781 C 91.863281 299.234375 50.394531 343.761719 39.851562 356.175781 C 37.191406 355.664062 34.394531 355.335938 31.59375 355.101562 C 29.730469 354.960938 27.957031 354.777344 26.277344 354.542969 C 33.835938 346.375 41.484375 338.019531 49.132812 329.617188 Z M 29.496094 366.628906 C 28.5625 364.625 27.816406 362.945312 27.070312 361.261719 C 26.789062 360.609375 26.511719 359.957031 26.230469 359.304688 C 27.863281 359.488281 29.542969 359.675781 31.175781 359.816406 C 33.554688 360.003906 35.792969 360.285156 37.890625 360.65625 C 38.03125 360.984375 38.265625 361.308594 38.546875 361.542969 C 38.730469 361.683594 38.964844 361.683594 39.199219 361.777344 C 39.710938 363.128906 40.226562 364.625 40.691406 366.210938 C 41.019531 367.332031 41.34375 368.449219 41.71875 369.523438 C 40.085938 369.199219 38.453125 368.777344 36.773438 368.3125 C 34.394531 367.609375 31.96875 367.003906 29.496094 366.628906 Z M 145.742188 301.101562 C 140.46875 294.800781 135.011719 288.21875 129.460938 281.453125 C 131.234375 279.539062 132.914062 277.71875 134.453125 275.992188 C 139.957031 282.710938 145.414062 289.292969 150.734375 295.734375 L 147.515625 299.234375 C 146.90625 299.886719 146.300781 300.542969 145.742188 301.101562 C 145.742188 301.148438 145.742188 301.148438 145.742188 301.101562 Z M 125.871094 329.710938 C 134.265625 320.566406 142.617188 311.371094 150.871094 302.410156 L 205.21875 243.601562 C 207.597656 246.542969 209.976562 249.433594 212.402344 252.375 C 208.296875 256.761719 202.976562 262.503906 196.820312 269.085938 C 168.738281 299.1875 127.222656 343.714844 116.679688 356.175781 C 114.019531 355.664062 111.222656 355.335938 108.421875 355.101562 C 106.558594 354.960938 104.785156 354.777344 103.105469 354.542969 C 110.664062 346.421875 118.265625 338.066406 125.871094 329.710938 Z M 106.324219 366.628906 C 105.390625 364.625 104.644531 362.945312 103.898438 361.261719 C 103.617188 360.609375 103.339844 359.957031 103.058594 359.304688 C 104.691406 359.488281 106.371094 359.675781 108.003906 359.816406 C 110.382812 360.003906 112.621094 360.285156 114.722656 360.65625 C 114.859375 360.984375 115.09375 361.308594 115.375 361.542969 C 115.5625 361.683594 115.792969 361.683594 115.980469 361.777344 C 116.492188 363.128906 117.007812 364.625 117.472656 366.210938 C 117.800781 367.332031 118.125 368.449219 118.5 369.523438 C 116.867188 369.199219 115.234375 368.777344 113.554688 368.3125 C 111.269531 367.609375 108.796875 367.003906 106.324219 366.628906 Z M 171.023438 320.050781 C 181.519531 332.464844 190.148438 342.5 197.285156 350.480469 L 188.238281 350.574219 C 182.078125 343.761719 174.664062 335.3125 166.171875 325.371094 C 167.804688 323.550781 169.390625 321.824219 171.023438 320.050781 Z M 207.128906 341.289062 C 206.476562 342.5 205.402344 344.414062 204.332031 346.375 C 203.722656 347.449219 203.164062 348.523438 202.652344 349.457031 C 195.140625 341.101562 185.8125 330.320312 174.195312 316.550781 C 176.574219 313.9375 178.953125 311.324219 181.332031 308.757812 C 189.871094 319.492188 198.453125 330.226562 207.128906 341.289062 Z M 201.578125 279.679688 C 176.25 307.308594 135.664062 351.601562 122.605469 366.769531 C 122.417969 366.117188 122.183594 365.464844 121.996094 364.808594 C 121.4375 362.945312 120.832031 361.03125 120.132812 359.351562 C 130.300781 347.308594 173.730469 300.730469 200.226562 272.304688 C 206.195312 265.910156 211.328125 260.402344 215.386719 256.015625 C 216.597656 257.507812 217.859375 259.050781 219.070312 260.542969 C 216.273438 263.671875 209.882812 270.625 201.578125 279.679688 Z M 254.757812 220.589844 C 250.652344 225.070312 246.171875 230.019531 241.976562 234.6875 L 238.382812 230.160156 C 240.527344 227.777344 243.234375 224.746094 245.941406 221.757812 C 248.691406 218.675781 251.445312 215.691406 253.496094 213.355469 C 254.195312 213.402344 254.898438 213.449219 255.597656 213.449219 C 257.507812 213.449219 259.375 213.355469 261.289062 213.125 C 261.425781 213.125 261.519531 213.078125 261.613281 213.078125 C 259.5625 215.363281 257.277344 217.882812 254.757812 220.589844 Z M 308.496094 228.152344 C 308.496094 229.179688 307.933594 230.253906 307.28125 230.390625 C 306.347656 230.625 304.996094 229.367188 303.691406 227.078125 C 295.386719 212.84375 288.621094 198.515625 282.417969 182.273438 C 283.023438 182.085938 283.632812 181.851562 284.191406 181.527344 C 284.238281 181.527344 284.238281 181.574219 284.285156 181.574219 C 284.84375 181.804688 285.449219 181.804688 285.964844 181.664062 L 306.957031 223.625 C 307.703125 225.117188 308.496094 226.660156 308.496094 228.152344 Z M 284.097656 176.25 C 283.585938 176.296875 283.023438 176.53125 282.652344 176.953125 C 281.625 178.027344 279.757812 178.351562 278.40625 177.699219 C 275.234375 174.617188 274.300781 169.4375 276.214844 165.46875 C 276.960938 163.929688 278.453125 162.15625 280.320312 161.875 C 281.578125 161.691406 282.652344 162.296875 283.304688 162.808594 C 284.703125 163.882812 285.777344 165.796875 285.964844 167.617188 C 286.289062 170.464844 285.265625 173.453125 284.097656 176.25 Z M 312.273438 183.441406 C 308.214844 189.601562 303.875 194.082031 298.980469 197.253906 L 288.808594 176.953125 C 290.023438 173.917969 290.957031 170.558594 290.582031 167.058594 C 290.253906 163.976562 288.574219 160.988281 286.152344 159.078125 C 284.191406 157.582031 281.90625 156.929688 279.667969 157.210938 C 276.542969 157.675781 273.648438 159.964844 272.015625 163.371094 C 269.125 169.34375 270.570312 176.90625 275.46875 181.339844 C 275.703125 181.574219 275.980469 181.710938 276.308594 181.804688 C 276.308594 181.804688 276.308594 181.804688 276.355469 181.804688 C 276.726562 181.992188 277.101562 182.085938 277.472656 182.226562 C 280.132812 189.320312 282.976562 196.042969 285.917969 202.574219 C 284.425781 202.902344 282.886719 203.183594 281.253906 203.367188 C 267.492188 204.957031 253.3125 200.054688 242.300781 189.878906 C 228.074219 176.71875 220.984375 158.003906 216.367188 143.207031 C 209.367188 120.757812 206.335938 100.78125 207.082031 82.113281 C 207.828125 63.210938 212.726562 46.3125 221.265625 33.339844 C 231.105469 18.355469 246.40625 8.183594 262.128906 6.128906 C 276.027344 4.355469 290.628906 8.835938 301.265625 18.125 C 310.96875 26.617188 318.242188 39.546875 323.421875 57.609375 C 331.023438 84.121094 332.378906 111.9375 327.667969 138.960938 C 327.621094 139.148438 327.621094 139.285156 327.574219 139.472656 C 326.6875 144.46875 325.660156 149.414062 324.355469 154.316406 C 321.183594 166.496094 317.359375 175.738281 312.273438 183.441406 Z M 332.285156 139.707031 C 332.425781 138.679688 332.703125 137.652344 333.171875 136.671875 C 333.917969 135.132812 335.410156 133.359375 337.277344 133.078125 C 338.535156 132.894531 339.609375 133.5 340.261719 134.011719 C 341.660156 135.085938 342.734375 137 342.921875 138.820312 C 343.246094 141.714844 342.222656 144.699219 341.054688 147.5 C 340.542969 147.546875 339.980469 147.78125 339.609375 148.15625 C 338.582031 149.226562 336.714844 149.554688 335.363281 148.902344 C 333.03125 146.613281 331.910156 143.207031 332.238281 139.988281 C 332.238281 139.894531 332.238281 139.800781 332.285156 139.707031 Z M 364.285156 201.59375 C 363.351562 201.828125 362 200.570312 360.691406 198.28125 C 352.390625 184.046875 345.625 169.71875 339.421875 153.476562 C 340.027344 153.289062 340.632812 153.054688 341.195312 152.730469 C 341.242188 152.730469 341.242188 152.773438 341.289062 152.773438 C 341.847656 153.007812 342.453125 153.007812 342.96875 152.867188 L 363.957031 194.828125 C 364.703125 196.320312 365.496094 197.90625 365.496094 199.355469 C 365.496094 200.429688 364.9375 201.457031 364.285156 201.59375 Z M 364.285156 201.59375 " fill-opacity="1" fill-rule="nonzero"/></g></svg>