<svg xmlns="http://www.w3.org/2000/svg" xmlns:xlink="http://www.w3.org/1999/xlink" width="500" zoomAndPan="magnify" viewBox="0 0 375 374.999991" height="500" preserveAspectRatio="xMidYMid meet" version="1.0"><defs><clipPath id="9f833dc003"><path d="M 10.226562 222 L 364.976562 222 L 364.976562 374 L 10.226562 374 Z M 10.226562 222 " clip-rule="nonzero"/></clipPath></defs><g clip-path="url(#9f833dc003)"><path fill="#010101" d="M 328.664062 222.660156 C 338.34375 233.507812 343.910156 245.59375 343.910156 258.40625 C 343.910156 304.476562 273.890625 341.828125 187.496094 341.828125 C 101.113281 341.828125 31.082031 304.476562 31.082031 258.40625 C 31.082031 245.59375 36.660156 233.507812 46.328125 222.660156 C 23.773438 238.40625 10.226562 257.980469 10.226562 279.261719 C 10.226562 331.097656 89.59375 373.113281 187.496094 373.113281 C 285.402344 373.113281 364.765625 331.097656 364.765625 279.261719 C 364.765625 257.980469 351.222656 238.40625 328.664062 222.660156 Z M 328.664062 222.660156 " fill-opacity="1" fill-rule="nonzero"/></g><path fill="#010101" d="M 93.660156 284.476562 C 87.921875 284.476562 82.398438 281.308594 79.65625 275.832031 C 75.796875 268.105469 78.925781 258.710938 86.652344 254.839844 C 87.902344 254.195312 119.71875 237.199219 119.71875 195.84375 C 119.71875 173.664062 107.578125 157.949219 94.734375 141.316406 C 81.386719 124.039062 67.578125 106.164062 67.578125 81.136719 C 67.578125 33.496094 91.980469 8.550781 93.011719 7.507812 C 99.121094 1.398438 109.019531 1.398438 115.128906 7.507812 C 121.207031 13.578125 121.238281 23.402344 115.242188 29.511719 C 114.359375 30.460938 98.863281 47.375 98.863281 81.136719 C 98.863281 95.488281 108.425781 107.875 119.488281 122.203125 C 133.535156 140.367188 151 162.984375 151 195.84375 C 151 256.9375 102.699219 281.796875 100.644531 282.828125 C 98.402344 283.945312 96.015625 284.476562 93.660156 284.476562 Z M 93.660156 284.476562 " fill-opacity="1" fill-rule="nonzero"/><path fill="#010101" d="M 166.652344 284.476562 C 160.917969 284.476562 155.390625 281.308594 152.648438 275.832031 C 148.789062 268.105469 151.917969 258.710938 159.644531 254.839844 C 160.894531 254.195312 192.710938 237.199219 192.710938 195.84375 C 192.710938 173.664062 180.574219 157.949219 167.726562 141.316406 C 154.378906 124.039062 140.574219 106.164062 140.574219 81.136719 C 140.574219 33.496094 164.972656 8.550781 166.003906 7.507812 C 172.117188 1.398438 182.011719 1.398438 188.121094 7.507812 C 194.203125 13.578125 194.234375 23.402344 188.238281 29.511719 C 187.351562 30.460938 171.855469 47.375 171.855469 81.136719 C 171.855469 95.488281 181.417969 107.875 192.480469 122.203125 C 206.515625 140.367188 223.992188 162.984375 223.992188 195.84375 C 223.992188 256.9375 175.691406 281.796875 173.636719 282.828125 C 171.398438 283.945312 169.007812 284.476562 166.652344 284.476562 Z M 166.652344 284.476562 " fill-opacity="1" fill-rule="nonzero"/><path fill="#010101" d="M 239.644531 284.476562 C 233.910156 284.476562 228.382812 281.308594 225.640625 275.832031 C 221.78125 268.105469 224.910156 258.710938 232.636719 254.839844 C 233.890625 254.195312 265.703125 237.199219 265.703125 195.84375 C 265.703125 173.664062 253.566406 157.949219 240.71875 141.316406 C 227.371094 124.039062 213.566406 106.164062 213.566406 81.136719 C 213.566406 33.496094 237.964844 8.550781 239.007812 7.507812 C 245.121094 1.398438 255.015625 1.398438 261.125 7.507812 C 267.195312 13.578125 267.238281 23.402344 261.242188 29.511719 C 260.34375 30.460938 244.847656 47.375 244.847656 81.136719 C 244.847656 95.488281 254.410156 107.875 265.484375 122.203125 C 279.511719 140.367188 296.988281 162.984375 296.988281 195.84375 C 296.988281 256.9375 248.6875 281.796875 246.632812 282.828125 C 244.378906 283.945312 242 284.476562 239.644531 284.476562 Z M 239.644531 284.476562 " fill-opacity="1" fill-rule="nonzero"/></svg>