<svg xmlns="http://www.w3.org/2000/svg" xmlns:xlink="http://www.w3.org/1999/xlink" width="500" zoomAndPan="magnify" viewBox="0 0 375 374.999991" height="500" preserveAspectRatio="xMidYMid meet" version="1.0"><defs><clipPath id="e702ee95e0"><path d="M 2.007812 38 L 373.257812 38 L 373.257812 342 L 2.007812 342 Z M 2.007812 38 " clip-rule="nonzero"/></clipPath></defs><path fill="#000000" d="M 150.449219 209.964844 L 150.449219 194.210938 L 97.636719 195.472656 L 80.285156 209.78125 L 150.449219 209.964844 " fill-opacity="1" fill-rule="nonzero"/><g clip-path="url(#e702ee95e0)"><path fill="#000000" d="M 344.601562 278.628906 L 344.601562 262.925781 L 357.824219 278.726562 Z M 328.570312 278.496094 L 303.210938 278.308594 L 291.871094 261.0625 L 328.570312 260.625 Z M 293.890625 276.605469 L 269.632812 263.617188 L 268.453125 261.355469 L 288.226562 261.113281 L 298.425781 276.605469 Z M 263.367188 251.605469 L 261.097656 247.253906 L 272.847656 237.734375 L 281.804688 251.367188 Z M 255.601562 251.707031 L 258.664062 249.222656 L 259.925781 251.644531 Z M 251.320312 203.957031 L 250.546875 202.488281 L 258.375 202.398438 L 254.382812 205.601562 Z M 247.253906 196.164062 L 245.792969 193.339844 L 253.402344 187.175781 L 259.214844 196.003906 Z M 242.222656 196.230469 L 244.214844 194.621094 L 245.035156 196.191406 Z M 372.914062 278.847656 L 348.90625 250.484375 L 318.339844 250.886719 L 307.953125 251.027344 L 285.445312 251.316406 L 275.226562 235.804688 L 289.527344 224.214844 L 291.308594 222.785156 L 299.917969 215.808594 L 302.507812 213.707031 L 306.050781 210.832031 L 307.953125 209.292969 L 311.796875 206.179688 L 318.339844 200.875 L 330.5625 190.976562 C 342.269531 187.976562 333.242188 179.1875 333.242188 179.1875 L 311.777344 177.667969 L 301.527344 176.9375 L 299.917969 176.828125 L 289.527344 176.085938 L 282.632812 175.597656 C 277.730469 177.078125 273.9375 179.308594 271.023438 181.839844 C 270.492188 182.292969 270.003906 182.761719 269.542969 183.222656 C 269.324219 183.441406 269.113281 183.664062 268.902344 183.882812 C 268.574219 184.234375 268.261719 184.582031 267.960938 184.945312 L 267.210938 185.875 C 265.078125 188.617188 263.699219 191.417969 262.808594 193.808594 C 262.519531 194.582031 262.277344 195.300781 262.085938 195.972656 L 261.566406 195.980469 L 254.953125 185.914062 L 290.808594 156.863281 C 298.40625 154.917969 292.5625 149.226562 292.5625 149.226562 L 259.746094 146.894531 C 246.875 150.757812 245.875 162.785156 245.875 162.785156 L 208.414062 192.828125 L 190.992188 193.25 L 190.992188 139.449219 C 197.15625 139.347656 203.171875 139.097656 209.003906 138.726562 C 212.9375 138.476562 215.710938 136.683594 215.242188 134.734375 L 212.359375 122.714844 L 220.433594 134.625 C 221.625 136.375 225.257812 137.394531 228.851562 136.984375 C 238.46875 135.914062 247.386719 134.582031 255.402344 133.171875 C 259.042969 132.542969 261.027344 130.589844 259.925781 128.75 L 253.761719 118.472656 L 263.5 128.078125 C 265.230469 129.789062 269.324219 130.519531 272.824219 129.75 C 273.6875 129.558594 274.535156 129.371094 275.359375 129.179688 C 287.949219 126.335938 292.402344 118.511719 284.644531 112.796875 C 268.824219 101.128906 252.859375 93.542969 237.238281 89.019531 C 234.816406 89.128906 232.183594 88.757812 229.992188 87.757812 C 228.742188 89.929688 226.109375 91.511719 222.667969 92.109375 C 213.777344 93.671875 204.761719 94.960938 195.875 95.953125 C 194.324219 96.125 192.632812 96.101562 190.992188 95.84375 C 188.71875 95.484375 186.546875 94.664062 184.964844 93.269531 C 184.855469 93.441406 184.746094 93.621094 184.625 93.792969 C 184.195312 94.363281 183.664062 94.890625 183.046875 95.351562 C 181.261719 96.695312 178.75 97.535156 175.847656 97.714844 C 172.675781 97.914062 169.515625 98.085938 166.351562 98.207031 L 166.351562 138.597656 C 168.582031 138.15625 170.316406 137.15625 170.765625 135.894531 L 174.796875 124.617188 L 176.480469 136.164062 C 176.730469 137.9375 179.542969 139.347656 183.046875 139.496094 L 183.046875 193.441406 L 166.351562 193.832031 L 166.351562 210.003906 L 225.039062 210.152344 L 234.253906 202.6875 L 248.316406 202.515625 L 249.835938 205.417969 L 252.691406 206.949219 L 244.832031 213.253906 L 244.792969 213.253906 L 166.351562 212.65625 L 166.351562 220.683594 L 234.164062 221.824219 L 203.449219 246.460938 L 166.351562 247.34375 L 162.378906 247.441406 L 162.378906 94.363281 C 163.710938 94.332031 165.039062 94.28125 166.351562 94.230469 C 169.472656 94.101562 172.558594 93.941406 175.589844 93.75 C 179.511719 93.5 182.292969 91.710938 181.824219 89.75 L 180.554688 84.453125 C 181.382812 84.363281 182.214844 84.273438 183.046875 84.203125 C 183.136719 84.195312 183.214844 84.183594 183.304688 84.175781 L 187.019531 89.648438 C 187.699219 90.648438 189.179688 91.410156 190.992188 91.800781 C 192.351562 92.089844 193.894531 92.179688 195.433594 92.011719 C 205.050781 90.9375 213.96875 89.597656 221.984375 88.195312 C 223.90625 87.855469 225.359375 87.15625 226.148438 86.296875 L 237.238281 89.019531 C 238.296875 88.976562 239.320312 88.859375 240.261719 88.648438 C 241.128906 88.457031 241.980469 88.265625 242.8125 88.078125 C 251.808594 86.054688 257.652344 81.652344 258.835938 76.019531 C 259.695312 71.875 257.792969 67.722656 253.589844 64.617188 C 234.054688 50.21875 183.046875 39.710938 183.046875 39.710938 C 133.027344 33.175781 88.820312 54.710938 66.773438 68.242188 C 57.855469 73.714844 61.230469 81.890625 73.75 85.175781 C 77.25 86.085938 80.765625 86.925781 84.277344 87.6875 C 87.449219 88.386719 91.164062 87.847656 93.113281 86.414062 L 105.214844 77.539062 L 99.4375 86.757812 C 98.226562 88.675781 100.410156 90.738281 104.28125 91.289062 C 112.730469 92.5 121.117188 93.339844 129.363281 93.851562 C 133.164062 94.09375 136.667969 92.789062 137.347656 90.917969 L 141.382812 79.640625 L 143.054688 91.191406 C 143.132812 91.730469 143.453125 92.242188 143.953125 92.691406 C 145.183594 93.792969 147.515625 94.523438 150.179688 94.53125 L 150.449219 94.53125 C 151.789062 94.53125 153.113281 94.53125 154.433594 94.523438 L 154.433594 247.621094 L 150.449219 247.722656 L 88.429688 249.195312 L 88.429688 219.371094 L 99.519531 219.550781 L 99.519531 235.351562 L 109.628906 235.351562 L 109.628906 219.730469 L 150.449219 220.410156 L 150.449219 212.535156 L 78.964844 211.984375 L 77.882812 249.445312 L 32.566406 250.523438 L 5.785156 272.613281 L 150.449219 272.984375 L 154.433594 272.992188 L 166.351562 273.023438 L 229.089844 273.183594 L 243.3125 261.652344 L 265.007812 261.394531 L 267.351562 265.878906 L 290.390625 278.207031 L 166.351562 277.246094 L 162.378906 277.226562 L 154.433594 277.167969 L 150.449219 277.125 L 3.742188 275.996094 L 1.972656 337.605469 L 18.34375 337.605469 L 18.34375 287.394531 L 35.480469 287.683594 L 35.480469 312.054688 L 51.050781 312.054688 L 51.050781 287.945312 L 328.570312 292.617188 L 328.570312 311.914062 L 344.601562 311.914062 L 344.601562 292.886719 L 357.003906 293.089844 L 357.003906 341.878906 L 373.023438 341.878906 L 373.023438 278.847656 L 372.914062 278.847656 " fill-opacity="1" fill-rule="nonzero"/></g><path fill="#000000" d="M 137.699219 136.265625 C 141.972656 136.886719 146.226562 137.394531 150.449219 137.828125 L 150.449219 98.503906 L 150.167969 98.503906 C 145.515625 98.484375 141.722656 96.785156 140.019531 94.140625 C 137.929688 96.714844 133.894531 97.84375 130.234375 97.855469 C 118.035156 102.9375 107.796875 108.554688 100.191406 113.226562 C 91.273438 118.703125 94.644531 126.867188 107.175781 130.148438 C 110.679688 131.0625 114.179688 131.902344 117.695312 132.671875 C 120.867188 133.351562 124.578125 132.824219 126.53125 131.402344 L 138.628906 122.515625 L 132.855469 131.742188 C 131.65625 133.664062 133.824219 135.703125 137.699219 136.265625 " fill-opacity="1" fill-rule="nonzero"/></svg>