<svg xmlns="http://www.w3.org/2000/svg" xmlns:xlink="http://www.w3.org/1999/xlink" width="500" zoomAndPan="magnify" viewBox="0 0 375 374.999991" height="500" preserveAspectRatio="xMidYMid meet" version="1.0"><defs><clipPath id="36bdaa43d1"><path d="M 40.226562 0 L 334.976562 0 L 334.976562 375 L 40.226562 375 Z M 40.226562 0 " clip-rule="nonzero"/></clipPath></defs><path fill="#000000" d="M 98.292969 262.851562 L 148.207031 262.851562 C 149.851562 262.851562 151.179688 261.523438 151.179688 259.878906 C 151.179688 258.238281 149.851562 256.910156 148.207031 256.910156 L 98.292969 256.910156 C 96.648438 256.910156 95.320312 258.238281 95.320312 259.878906 C 95.320312 261.523438 96.648438 262.851562 98.292969 262.851562 Z M 98.292969 262.851562 " fill-opacity="1" fill-rule="nonzero"/><path fill="#000000" d="M 227.042969 262.851562 L 276.953125 262.851562 C 278.597656 262.851562 279.925781 261.523438 279.925781 259.878906 C 279.925781 258.238281 278.597656 256.910156 276.953125 256.910156 L 227.042969 256.910156 C 225.394531 256.910156 224.066406 258.238281 224.066406 259.878906 C 224.066406 261.523438 225.394531 262.851562 227.042969 262.851562 Z M 227.042969 262.851562 " fill-opacity="1" fill-rule="nonzero"/><path fill="#000000" d="M 88.695312 238.214844 L 286.546875 238.214844 C 288.007812 238.214844 289.253906 237.152344 289.484375 235.707031 C 289.710938 234.261719 288.859375 232.871094 287.46875 232.417969 C 244.492188 218.390625 215.21875 202.820312 189.582031 180.355469 C 188.457031 179.371094 186.78125 179.371094 185.660156 180.355469 C 160.023438 202.820312 130.746094 218.390625 87.769531 232.417969 C 86.382812 232.871094 85.527344 234.265625 85.757812 235.707031 C 85.988281 237.148438 87.234375 238.214844 88.695312 238.214844 Z M 170.742188 199.648438 L 204.5 199.648438 C 215.164062 207.15625 226.667969 213.851562 239.554688 220.007812 L 135.6875 220.007812 C 148.574219 213.851562 160.078125 207.15625 170.742188 199.648438 Z M 250.449219 225.949219 L 250.449219 232.269531 L 124.796875 232.269531 L 124.796875 225.949219 Z M 256.398438 232.269531 L 256.398438 227.433594 C 260.425781 229.078125 264.578125 230.683594 268.878906 232.269531 Z M 187.625 186.523438 C 190.511719 188.996094 193.449219 191.386719 196.445312 193.707031 L 178.796875 193.707031 C 181.792969 191.390625 184.730469 189 187.625 186.523438 Z M 118.847656 227.433594 L 118.847656 232.269531 L 106.367188 232.269531 C 110.667969 230.6875 114.820312 229.078125 118.847656 227.433594 Z M 118.847656 227.433594 " fill-opacity="1" fill-rule="nonzero"/><g clip-path="url(#36bdaa43d1)"><path fill="#000000" d="M 334.230469 238.707031 C 334.394531 238.527344 334.53125 238.328125 334.644531 238.117188 C 334.703125 238 334.765625 237.890625 334.8125 237.769531 C 334.894531 237.550781 334.933594 237.320312 334.960938 237.085938 C 334.976562 236.960938 335.007812 236.847656 335.003906 236.722656 C 335.003906 236.679688 335.019531 236.644531 335.019531 236.601562 C 335.007812 236.351562 334.933594 236.121094 334.863281 235.890625 C 334.84375 235.816406 334.84375 235.742188 334.816406 235.667969 C 334.6875 235.332031 334.488281 235.03125 334.246094 234.761719 C 334.226562 234.742188 334.222656 234.714844 334.199219 234.695312 C 334.136719 234.628906 334.058594 234.605469 333.992188 234.550781 C 333.804688 234.382812 333.609375 234.238281 333.382812 234.125 C 333.25 234.054688 333.117188 234.011719 332.980469 233.964844 C 332.875 233.929688 332.78125 233.867188 332.671875 233.839844 C 322.3125 231.613281 311.984375 228.882812 301.828125 225.8125 L 294.613281 195.984375 C 294.292969 194.652344 293.097656 193.707031 291.722656 193.707031 L 279.117188 193.707031 L 292.789062 171.789062 C 292.832031 171.722656 292.835938 171.648438 292.871094 171.574219 C 292.976562 171.371094 293.050781 171.160156 293.113281 170.9375 C 293.148438 170.792969 293.1875 170.660156 293.199219 170.515625 C 293.222656 170.300781 293.203125 170.09375 293.175781 169.875 C 293.160156 169.71875 293.152344 169.570312 293.113281 169.421875 C 293.097656 169.375 293.105469 169.324219 293.089844 169.277344 C 293.035156 169.109375 292.925781 168.976562 292.847656 168.824219 C 292.773438 168.695312 292.726562 168.5625 292.636719 168.441406 C 292.445312 168.179688 292.210938 167.96875 291.945312 167.785156 C 291.90625 167.757812 291.886719 167.714844 291.84375 167.691406 C 291.839844 167.6875 291.835938 167.6875 291.832031 167.683594 C 291.523438 167.496094 291.175781 167.371094 290.8125 167.304688 C 290.664062 167.277344 290.519531 167.296875 290.367188 167.289062 C 290.1875 167.285156 290.015625 167.246094 289.832031 167.273438 C 284.921875 168.003906 280.347656 168.316406 276.078125 168.285156 L 270.535156 146.714844 C 270.195312 145.402344 269.007812 144.484375 267.652344 144.484375 L 262.882812 144.484375 C 265.984375 139.953125 268.03125 134.8125 269.066406 128.90625 C 269.066406 128.902344 269.066406 128.902344 269.070312 128.898438 C 269.082031 128.828125 269.101562 128.765625 269.113281 128.703125 C 269.125 128.636719 269.101562 128.578125 269.105469 128.515625 C 269.125 128.355469 269.160156 128.203125 269.152344 128.039062 C 269.144531 127.925781 269.101562 127.824219 269.085938 127.710938 C 269.066406 127.601562 269.050781 127.496094 269.019531 127.386719 C 268.941406 127.105469 268.820312 126.839844 268.664062 126.59375 C 268.636719 126.554688 268.621094 126.503906 268.589844 126.464844 C 268.390625 126.191406 268.140625 125.957031 267.859375 125.765625 C 267.78125 125.710938 267.691406 125.671875 267.605469 125.625 C 267.476562 125.554688 267.359375 125.464844 267.21875 125.410156 C 257.445312 121.792969 247.746094 116.875 237.914062 110.539062 L 252.59375 99.617188 C 252.675781 99.554688 252.738281 99.472656 252.8125 99.40625 C 252.871094 99.351562 252.921875 99.304688 252.976562 99.25 C 253.207031 99 253.398438 98.730469 253.53125 98.425781 C 253.554688 98.378906 253.558594 98.332031 253.578125 98.285156 C 253.691406 97.992188 253.75 97.679688 253.765625 97.359375 C 253.769531 97.3125 253.792969 97.277344 253.792969 97.234375 C 253.792969 97.210938 253.78125 97.191406 253.78125 97.167969 C 253.78125 97.128906 253.789062 97.089844 253.789062 97.050781 C 253.769531 96.742188 253.6875 96.449219 253.582031 96.167969 C 253.554688 96.09375 253.519531 96.03125 253.484375 95.964844 C 253.347656 95.679688 253.179688 95.417969 252.960938 95.1875 C 252.941406 95.167969 252.929688 95.140625 252.910156 95.121094 C 252.726562 94.9375 252.523438 94.777344 252.292969 94.648438 L 233.582031 84.007812 C 233.117188 83.757812 232.613281 83.625 232.09375 83.625 L 220.324219 83.625 L 220.324219 66.550781 C 229.488281 59.757812 235.089844 50.539062 236.476562 39.738281 C 236.476562 39.714844 236.46875 39.695312 236.46875 39.675781 C 236.507812 39.324219 236.496094 38.964844 236.402344 38.609375 C 236.398438 38.597656 236.390625 38.59375 236.390625 38.582031 C 236.371094 38.519531 236.332031 38.472656 236.3125 38.410156 C 236.214844 38.125 236.089844 37.859375 235.917969 37.625 C 235.847656 37.527344 235.757812 37.457031 235.679688 37.371094 C 235.515625 37.195312 235.34375 37.035156 235.144531 36.902344 C 235.035156 36.832031 234.921875 36.777344 234.804688 36.71875 C 234.585938 36.613281 234.363281 36.539062 234.121094 36.488281 C 234.042969 36.472656 233.980469 36.421875 233.898438 36.410156 C 233.839844 36.40625 233.792969 36.425781 233.734375 36.421875 C 233.660156 36.417969 233.59375 36.386719 233.519531 36.386719 L 218.386719 36.386719 L 198.375 20.890625 C 198.90625 12.929688 195.949219 6.253906 189.480469 1.058594 C 188.394531 0.183594 186.839844 0.183594 185.753906 1.058594 C 179.285156 6.257812 176.328125 12.933594 176.859375 20.898438 L 156.871094 36.386719 L 141.714844 36.386719 C 141.640625 36.386719 141.574219 36.417969 141.5 36.421875 C 141.441406 36.425781 141.390625 36.40625 141.335938 36.410156 C 141.253906 36.421875 141.191406 36.472656 141.113281 36.488281 C 140.871094 36.539062 140.648438 36.613281 140.429688 36.71875 C 140.3125 36.773438 140.203125 36.828125 140.089844 36.898438 C 139.890625 37.03125 139.714844 37.191406 139.554688 37.371094 C 139.476562 37.457031 139.390625 37.527344 139.320312 37.621094 C 139.152344 37.851562 139.027344 38.117188 138.929688 38.398438 C 138.90625 38.464844 138.863281 38.515625 138.84375 38.582031 C 138.84375 38.589844 138.835938 38.597656 138.832031 38.605469 C 138.742188 38.960938 138.730469 39.316406 138.765625 39.667969 C 138.769531 39.691406 138.757812 39.710938 138.757812 39.734375 C 140.144531 50.53125 145.746094 59.75 154.910156 66.546875 L 154.910156 83.625 L 143.140625 83.625 C 142.621094 83.625 142.117188 83.757812 141.667969 84.011719 L 122.957031 94.65625 C 122.726562 94.785156 122.523438 94.949219 122.339844 95.125 C 122.320312 95.148438 122.304688 95.171875 122.289062 95.195312 C 122.070312 95.421875 121.902344 95.6875 121.765625 95.96875 C 121.730469 96.039062 121.699219 96.101562 121.671875 96.171875 C 121.5625 96.453125 121.480469 96.75 121.464844 97.058594 C 121.460938 97.097656 121.472656 97.136719 121.472656 97.171875 C 121.472656 97.199219 121.460938 97.214844 121.460938 97.238281 C 121.460938 97.285156 121.484375 97.320312 121.488281 97.363281 C 121.503906 97.683594 121.5625 97.996094 121.675781 98.292969 C 121.691406 98.335938 121.699219 98.382812 121.71875 98.429688 C 121.851562 98.734375 122.042969 99.003906 122.277344 99.25 C 122.328125 99.308594 122.382812 99.355469 122.4375 99.410156 C 122.511719 99.476562 122.574219 99.558594 122.660156 99.621094 L 137.335938 110.542969 C 127.503906 116.878906 117.804688 121.800781 108.035156 125.414062 C 107.890625 125.46875 107.777344 125.558594 107.644531 125.628906 C 107.558594 125.675781 107.472656 125.710938 107.390625 125.769531 C 107.109375 125.960938 106.855469 126.195312 106.660156 126.46875 C 106.628906 126.507812 106.617188 126.554688 106.589844 126.597656 C 106.429688 126.839844 106.3125 127.105469 106.230469 127.390625 C 106.203125 127.5 106.183594 127.601562 106.167969 127.714844 C 106.148438 127.824219 106.105469 127.929688 106.101562 128.042969 C 106.09375 128.207031 106.128906 128.359375 106.144531 128.519531 C 106.152344 128.582031 106.128906 128.644531 106.140625 128.707031 C 106.152344 128.773438 106.167969 128.835938 106.183594 128.902344 C 106.183594 128.90625 106.183594 128.90625 106.183594 128.910156 C 107.21875 134.816406 109.261719 139.957031 112.367188 144.488281 L 107.59375 144.488281 C 106.238281 144.488281 105.054688 145.40625 104.710938 146.71875 L 99.167969 168.289062 C 94.898438 168.320312 90.320312 168.003906 85.414062 167.273438 C 85.238281 167.25 85.070312 167.285156 84.894531 167.292969 C 84.738281 167.296875 84.585938 167.28125 84.429688 167.308594 C 84.09375 167.371094 83.78125 167.492188 83.492188 167.65625 C 83.460938 167.675781 83.429688 167.671875 83.402344 167.691406 C 83.34375 167.730469 83.308594 167.792969 83.253906 167.832031 C 83.011719 168.003906 82.792969 168.195312 82.609375 168.433594 C 82.519531 168.558594 82.464844 168.699219 82.394531 168.832031 C 82.3125 168.980469 82.210938 169.109375 82.152344 169.273438 C 82.136719 169.324219 82.144531 169.371094 82.132812 169.421875 C 82.089844 169.570312 82.085938 169.71875 82.066406 169.871094 C 82.042969 170.089844 82.023438 170.296875 82.042969 170.511719 C 82.058594 170.65625 82.097656 170.789062 82.132812 170.933594 C 82.1875 171.15625 82.261719 171.367188 82.371094 171.574219 C 82.40625 171.640625 82.410156 171.71875 82.449219 171.785156 L 96.121094 193.707031 L 83.519531 193.707031 C 82.144531 193.707031 80.949219 194.644531 80.625 195.980469 L 73.410156 225.808594 C 63.261719 228.882812 52.929688 231.609375 42.566406 233.839844 C 42.453125 233.863281 42.363281 233.929688 42.253906 233.964844 C 42.117188 234.007812 41.992188 234.050781 41.863281 234.117188 C 41.632812 234.234375 41.433594 234.382812 41.246094 234.550781 C 41.179688 234.605469 41.097656 234.628906 41.039062 234.691406 C 41.019531 234.710938 41.015625 234.738281 40.996094 234.761719 C 40.753906 235.027344 40.554688 235.328125 40.421875 235.667969 C 40.398438 235.738281 40.398438 235.816406 40.375 235.886719 C 40.3125 236.121094 40.238281 236.351562 40.226562 236.601562 C 40.222656 236.644531 40.242188 236.679688 40.242188 236.722656 C 40.242188 236.84375 40.273438 236.960938 40.285156 237.085938 C 40.3125 237.320312 40.351562 237.550781 40.433594 237.769531 C 40.480469 237.894531 40.539062 238 40.601562 238.117188 C 40.714844 238.332031 40.851562 238.527344 41.015625 238.707031 C 41.070312 238.765625 41.089844 238.839844 41.144531 238.894531 L 66.503906 263.074219 L 53.070312 371.554688 C 52.964844 372.402344 53.226562 373.25 53.792969 373.890625 C 54.359375 374.527344 55.171875 374.894531 56.023438 374.894531 L 319.222656 374.894531 C 320.074219 374.894531 320.886719 374.527344 321.449219 373.890625 C 322.015625 373.25 322.277344 372.402344 322.171875 371.554688 L 308.738281 263.074219 L 334.097656 238.894531 C 334.15625 238.839844 334.175781 238.765625 334.230469 238.707031 Z M 295.21875 223.777344 C 293.3125 223.164062 291.441406 222.511719 289.558594 221.871094 L 284.96875 199.648438 L 289.382812 199.648438 Z M 109.453125 199.648438 L 109.453125 212.902344 C 103.84375 215.25 98.105469 217.507812 92.226562 219.621094 L 96.351562 199.648438 Z M 115.402344 199.648438 L 137.347656 199.648438 C 136.425781 200.148438 135.519531 200.652344 134.585938 201.144531 C 128.496094 204.359375 122.058594 207.429688 115.402344 210.367188 Z M 147.707031 193.707031 L 115.402344 193.707031 L 115.402344 187.925781 C 136.789062 187.984375 149.269531 188.015625 156.644531 187.980469 C 155.519531 188.742188 154.390625 189.503906 153.230469 190.257812 C 151.445312 191.417969 149.589844 192.566406 147.707031 193.707031 Z M 164.980469 182.003906 C 159.753906 182.074219 132.203125 182.027344 113.175781 181.976562 L 102.324219 176.148438 C 115.777344 177.9375 130.257812 178.878906 144.328125 178.878906 C 153.328125 178.878906 162.128906 178.484375 170.375 177.714844 C 170.164062 177.890625 169.96875 178.074219 169.753906 178.246094 C 168.226562 179.507812 166.621094 180.757812 164.980469 182.003906 Z M 121.023438 150.433594 L 125.171875 150.433594 L 125.171875 160.460938 C 123.082031 162.210938 120.679688 163.679688 117.957031 164.847656 Z M 254.222656 150.433594 L 257.289062 164.847656 C 254.566406 163.679688 252.164062 162.210938 250.074219 160.460938 L 250.074219 150.429688 L 254.222656 150.429688 Z M 129.273438 164.875 L 176.210938 164.875 C 176.066406 166.890625 176.128906 168.960938 176.394531 171.085938 C 158.433594 173.335938 136.882812 173.5 116.511719 171.738281 C 121.453125 170.167969 125.742188 167.882812 129.273438 164.875 Z M 199.03125 164.875 L 245.972656 164.875 C 249.503906 167.886719 253.789062 170.167969 258.730469 171.738281 C 238.359375 173.5 216.8125 173.335938 198.847656 171.085938 C 199.117188 168.960938 199.175781 166.890625 199.03125 164.875 Z M 244.125 158.929688 L 198.011719 158.929688 C 197.4375 156.953125 196.609375 155.050781 195.597656 153.195312 L 211.070312 153.195312 C 212.714844 153.195312 214.042969 151.863281 214.042969 150.222656 C 214.042969 148.582031 212.714844 147.25 211.070312 147.25 L 191.421875 147.25 C 190.867188 146.617188 190.339844 145.980469 189.730469 145.363281 C 188.617188 144.242188 186.636719 144.242188 185.519531 145.363281 C 184.90625 145.980469 184.382812 146.617188 183.832031 147.25 L 164.183594 147.25 C 162.539062 147.25 161.207031 148.582031 161.207031 150.222656 C 161.207031 151.863281 162.539062 153.195312 164.183594 153.195312 L 179.65625 153.195312 C 178.644531 155.046875 177.8125 156.953125 177.238281 158.929688 L 131.121094 158.929688 L 131.121094 140.722656 L 244.125 140.722656 Z M 182.046875 166.785156 C 182.089844 161.308594 183.929688 156.378906 187.625 151.882812 C 191.3125 156.378906 193.152344 161.304688 193.199219 166.773438 C 192.046875 165.542969 190.9375 164.308594 189.898438 163.070312 C 189.335938 162.398438 188.5 162.015625 187.625 162.015625 C 186.746094 162.015625 185.914062 162.398438 185.347656 163.070312 C 184.304688 164.308594 183.199219 165.546875 182.046875 166.785156 Z M 230.914062 178.878906 C 244.980469 178.878906 259.464844 177.9375 272.917969 176.152344 L 262.066406 181.976562 C 243.011719 182.03125 215.410156 182.074219 210.238281 182.007812 C 208.941406 181.019531 207.679688 180.03125 206.457031 179.042969 C 205.917969 178.605469 205.421875 178.160156 204.894531 177.722656 C 213.128906 178.488281 221.921875 178.878906 230.914062 178.878906 Z M 259.839844 187.929688 L 259.839844 193.707031 L 227.523438 193.707031 C 225.894531 192.722656 224.296875 191.726562 222.742188 190.726562 C 221.332031 189.820312 219.949219 188.90625 218.589844 187.988281 C 225.957031 188.019531 238.4375 187.988281 259.839844 187.929688 Z M 259.839844 199.648438 L 259.839844 210.363281 C 253.289062 207.476562 246.941406 204.460938 240.941406 201.296875 C 239.914062 200.753906 238.90625 200.199219 237.890625 199.648438 Z M 265.789062 199.648438 L 278.890625 199.648438 L 283.015625 219.613281 C 277.136719 217.5 271.398438 215.246094 265.789062 212.898438 Z M 265.789062 193.707031 L 265.789062 186.722656 L 281.835938 178.109375 L 272.105469 193.707031 Z M 269.839844 167.933594 C 267.722656 167.710938 265.722656 167.363281 263.816406 166.925781 L 260.304688 150.433594 L 265.339844 150.433594 Z M 250.074219 144.488281 L 250.074219 139.589844 L 261.660156 133.789062 C 260.246094 137.816406 258.140625 141.355469 255.3125 144.488281 Z M 223.375 100.210938 L 241.828125 100.210938 L 232.660156 107.03125 C 229.585938 104.902344 226.492188 102.628906 223.375 100.210938 Z M 239.566406 94.265625 L 216.019531 94.265625 C 214.210938 92.75 212.394531 91.1875 210.5625 89.566406 L 231.304688 89.566406 Z M 204.046875 83.625 C 201.710938 81.433594 199.355469 79.152344 196.976562 76.800781 C 197.027344 76.035156 197.078125 75.273438 197.085938 74.53125 L 214.375 74.53125 L 214.375 83.625 Z M 160.871094 68.585938 L 160.871094 51.421875 L 168.519531 51.421875 L 168.519531 68.585938 Z M 174.46875 51.421875 L 184.648438 51.421875 L 184.648438 57.238281 C 181.601562 60.367188 179.585938 64.148438 178.699219 68.589844 L 174.472656 68.589844 L 174.472656 51.421875 Z M 200.777344 51.421875 L 200.777344 68.585938 L 196.550781 68.585938 C 195.660156 64.148438 193.644531 60.367188 190.601562 57.234375 L 190.601562 51.421875 Z M 214.375 51.421875 L 214.375 68.585938 L 206.726562 68.585938 L 206.726562 51.421875 Z M 187.625 62.796875 C 189.320312 65.003906 190.382812 67.605469 190.859375 70.613281 C 190.492188 70.238281 190.136719 69.878906 189.769531 69.5 C 188.648438 68.328125 186.601562 68.328125 185.480469 69.5 C 185.113281 69.878906 184.753906 70.238281 184.390625 70.613281 C 184.859375 67.605469 185.925781 65.003906 187.625 62.796875 Z M 220.324219 58.816406 L 220.324219 50.203125 L 229.113281 45.257812 C 227.402344 50.367188 224.433594 54.933594 220.324219 58.816406 Z M 187.625 7.363281 C 190.175781 9.925781 191.707031 12.84375 192.273438 16.160156 L 189.441406 13.972656 C 188.375 13.140625 186.875 13.140625 185.796875 13.972656 L 182.972656 16.160156 C 183.539062 12.84375 185.070312 9.925781 187.625 7.363281 Z M 187.625 20.082031 L 208.679688 36.390625 L 202.273438 36.390625 L 189.445312 26.429688 C 188.378906 25.59375 186.867188 25.59375 185.796875 26.429688 L 172.96875 36.390625 L 166.582031 36.390625 Z M 192.582031 36.390625 L 182.660156 36.390625 L 187.625 32.539062 Z M 222.179688 42.335938 L 216.59375 45.480469 L 158.671875 45.480469 L 153.078125 42.335938 Z M 146.128906 45.246094 L 154.921875 50.1875 L 154.921875 58.816406 C 150.8125 54.933594 147.839844 50.363281 146.128906 45.246094 Z M 160.871094 74.53125 L 178.160156 74.53125 C 178.164062 75.269531 178.214844 76.035156 178.269531 76.800781 C 175.890625 79.15625 173.535156 81.4375 171.199219 83.625 L 160.871094 83.625 Z M 143.9375 89.566406 L 164.679688 89.566406 C 162.851562 91.1875 161.03125 92.746094 159.226562 94.265625 L 135.675781 94.265625 Z M 133.414062 100.210938 L 151.871094 100.210938 C 148.753906 102.628906 145.660156 104.902344 142.582031 107.03125 Z M 162.335938 99.410156 C 162.378906 99.375 162.429688 99.34375 162.46875 99.296875 C 166.410156 96.003906 170.394531 92.5 174.425781 88.746094 C 174.464844 88.710938 174.5 88.679688 174.539062 88.644531 C 178.839844 84.640625 183.195312 80.382812 187.625 75.835938 C 192.054688 80.382812 196.410156 84.640625 200.707031 88.644531 C 200.742188 88.683594 200.78125 88.710938 200.820312 88.746094 C 204.851562 92.5 208.832031 96.007812 212.777344 99.296875 C 212.816406 99.339844 212.867188 99.371094 212.910156 99.410156 C 228.617188 112.511719 243.703125 122.046875 258.914062 128.515625 L 246.398438 134.777344 L 128.847656 134.777344 L 116.332031 128.515625 C 131.542969 122.050781 146.628906 112.511719 162.335938 99.410156 Z M 113.585938 133.789062 L 125.171875 139.585938 L 125.171875 144.488281 L 119.9375 144.488281 C 117.105469 141.351562 115 137.8125 113.585938 133.789062 Z M 109.902344 150.433594 L 114.9375 150.433594 L 111.429688 166.925781 C 109.519531 167.363281 107.515625 167.710938 105.402344 167.933594 Z M 93.410156 178.109375 L 109.457031 186.722656 L 109.457031 193.707031 L 103.140625 193.707031 Z M 85.863281 199.648438 L 90.277344 199.648438 L 85.6875 221.871094 C 83.804688 222.511719 81.933594 223.167969 80.027344 223.78125 Z M 89.015625 227.046875 C 89.164062 227.003906 89.300781 226.957031 89.441406 226.894531 C 106.566406 220.992188 122.871094 214.0625 137.371094 206.398438 C 144.148438 202.816406 150.574219 199.0625 156.464844 195.246094 C 160.375 192.710938 164.074219 190.113281 167.578125 187.492188 C 167.675781 187.4375 167.753906 187.382812 167.839844 187.320312 L 167.824219 187.304688 C 169.792969 185.824219 171.714844 184.335938 173.535156 182.839844 C 178.835938 178.476562 183.566406 174 187.621094 169.507812 C 191.933594 174.289062 196.996094 179.039062 202.710938 183.660156 C 204.222656 184.882812 205.800781 186.097656 207.414062 187.308594 L 207.40625 187.320312 C 207.480469 187.375 207.550781 187.425781 207.632812 187.472656 C 211.359375 190.265625 215.324219 193.03125 219.515625 195.722656 C 225.285156 199.433594 231.5625 203.078125 238.164062 206.558594 C 252.585938 214.152344 268.777344 221.027344 285.78125 226.890625 C 285.929688 226.957031 286.082031 227.007812 286.242188 227.054688 C 297.5 230.917969 309.09375 234.347656 320.792969 237.210938 L 303.132812 242.832031 L 72.105469 242.832031 L 54.449219 237.210938 C 66.15625 234.34375 77.757812 230.914062 89.015625 227.046875 Z M 74.269531 248.773438 L 78.273438 248.773438 L 73.816406 288.703125 L 69.324219 288.703125 Z M 290.980469 248.773438 L 295.441406 288.703125 L 208.265625 288.703125 L 206.035156 248.769531 L 290.980469 248.769531 Z M 93.421875 311.832031 L 118.503906 311.832031 L 117.5625 322.644531 L 92.480469 322.644531 Z M 86.507812 322.644531 L 65.121094 322.644531 L 66.460938 311.832031 L 87.449219 311.832031 Z M 120.003906 294.644531 L 119.023438 305.890625 L 93.941406 305.890625 L 94.921875 294.644531 Z M 184.648438 294.644531 L 184.648438 305.890625 L 157.53125 305.890625 L 158.136719 294.644531 Z M 217.109375 294.644531 L 217.714844 305.890625 L 190.597656 305.890625 L 190.597656 294.644531 Z M 280.320312 294.644531 L 281.304688 305.890625 L 256.222656 305.890625 L 255.238281 294.644531 Z M 249.269531 294.644531 L 250.253906 305.890625 L 223.675781 305.890625 L 223.070312 294.644531 Z M 190.597656 311.832031 L 218.035156 311.832031 L 218.613281 322.644531 L 190.597656 322.644531 Z M 184.648438 322.644531 L 156.632812 322.644531 L 157.210938 311.832031 L 184.648438 311.832031 Z M 151.570312 305.890625 L 124.992188 305.890625 L 125.976562 294.644531 L 152.175781 294.644531 Z M 124.476562 311.832031 L 151.25 311.832031 L 150.671875 322.644531 L 123.535156 322.644531 Z M 150.347656 328.585938 L 149.675781 341.15625 L 121.917969 341.15625 L 123.015625 328.585938 Z M 156.308594 328.585938 L 184.648438 328.585938 L 184.648438 341.15625 L 155.636719 341.15625 Z M 190.597656 328.585938 L 218.9375 328.585938 L 219.613281 341.15625 L 190.597656 341.15625 Z M 224.894531 328.585938 L 252.230469 328.585938 L 253.328125 341.15625 L 225.570312 341.15625 Z M 224.574219 322.644531 L 223.996094 311.832031 L 250.769531 311.832031 L 251.710938 322.644531 Z M 256.738281 311.832031 L 281.820312 311.832031 L 282.765625 322.644531 L 257.683594 322.644531 Z M 287.792969 311.832031 L 308.78125 311.832031 L 310.121094 322.644531 L 288.734375 322.644531 Z M 287.273438 305.890625 L 286.292969 294.644531 L 306.65625 294.644531 L 308.046875 305.890625 Z M 200.078125 248.773438 L 202.308594 288.703125 L 172.9375 288.703125 L 175.167969 248.769531 L 200.078125 248.769531 Z M 166.980469 288.703125 L 79.804688 288.703125 L 84.261719 248.769531 L 169.210938 248.769531 Z M 88.953125 294.644531 L 87.96875 305.890625 L 67.199219 305.890625 L 68.589844 294.644531 Z M 64.386719 328.585938 L 85.988281 328.585938 L 84.890625 341.15625 L 62.828125 341.15625 Z M 91.957031 328.585938 L 117.042969 328.585938 L 115.945312 341.15625 L 90.859375 341.15625 Z M 115.429688 347.101562 L 113.523438 368.949219 L 88.4375 368.949219 L 90.34375 347.097656 L 115.429688 347.097656 Z M 121.398438 347.101562 L 149.351562 347.101562 L 148.179688 368.949219 L 119.492188 368.949219 Z M 155.3125 347.101562 L 184.648438 347.101562 L 184.648438 368.949219 L 154.140625 368.949219 Z M 190.597656 347.101562 L 219.933594 347.101562 L 221.105469 368.949219 L 190.597656 368.949219 Z M 225.890625 347.101562 L 253.84375 347.101562 L 255.75 368.949219 L 227.066406 368.949219 Z M 259.816406 347.101562 L 284.898438 347.101562 L 286.804688 368.949219 L 261.722656 368.949219 Z M 259.296875 341.15625 L 258.199219 328.585938 L 283.285156 328.585938 L 284.382812 341.15625 Z M 289.253906 328.585938 L 310.855469 328.585938 L 312.410156 341.15625 L 290.347656 341.15625 Z M 301.429688 288.703125 L 296.972656 248.769531 L 300.976562 248.769531 L 305.917969 288.703125 Z M 54.585938 243.488281 L 68.386719 247.886719 L 67.417969 255.726562 Z M 62.09375 347.101562 L 84.375 347.101562 L 82.46875 368.949219 L 59.386719 368.949219 Z M 292.777344 368.949219 L 290.871094 347.097656 L 313.152344 347.097656 L 315.859375 368.949219 Z M 306.859375 247.886719 L 320.664062 243.488281 L 307.832031 255.722656 Z M 306.859375 247.886719 " fill-opacity="1" fill-rule="nonzero"/></g><path fill="#000000" d="M 169.792969 214.304688 L 205.476562 214.304688 C 207.121094 214.304688 208.453125 212.972656 208.453125 211.332031 C 208.453125 209.6875 207.121094 208.359375 205.476562 208.359375 L 169.792969 208.359375 C 168.148438 208.359375 166.816406 209.6875 166.816406 211.332031 C 166.816406 212.972656 168.148438 214.304688 169.792969 214.304688 Z M 169.792969 214.304688 " fill-opacity="1" fill-rule="nonzero"/><path fill="#000000" d="M 139.417969 153.195312 L 150.171875 153.195312 C 151.816406 153.195312 153.144531 151.863281 153.144531 150.222656 C 153.144531 148.582031 151.816406 147.25 150.171875 147.25 L 139.417969 147.25 C 137.773438 147.25 136.445312 148.582031 136.445312 150.222656 C 136.445312 151.863281 137.773438 153.195312 139.417969 153.195312 Z M 139.417969 153.195312 " fill-opacity="1" fill-rule="nonzero"/><path fill="#000000" d="M 225.070312 153.195312 L 235.824219 153.195312 C 237.46875 153.195312 238.796875 151.863281 238.796875 150.222656 C 238.796875 148.582031 237.46875 147.25 235.824219 147.25 L 225.070312 147.25 C 223.425781 147.25 222.097656 148.582031 222.097656 150.222656 C 222.097656 151.863281 223.429688 153.195312 225.070312 153.195312 Z M 225.070312 153.195312 " fill-opacity="1" fill-rule="nonzero"/><path fill="#000000" d="M 132.746094 128.894531 C 133.066406 130.234375 134.265625 131.179688 135.640625 131.179688 L 239.601562 131.179688 C 240.976562 131.179688 242.175781 130.234375 242.496094 128.890625 C 242.8125 127.550781 242.171875 126.167969 240.941406 125.546875 C 220.058594 115.035156 199.144531 98.328125 190.089844 84.929688 C 188.980469 83.289062 186.265625 83.289062 185.15625 84.929688 C 176.101562 98.328125 155.1875 115.03125 134.304688 125.546875 C 133.074219 126.171875 132.429688 127.554688 132.746094 128.894531 Z M 176.6875 103.382812 L 198.558594 103.382812 C 202.871094 107.40625 207.722656 111.402344 212.941406 115.238281 L 162.304688 115.238281 C 167.523438 111.402344 172.378906 107.40625 176.6875 103.382812 Z M 187.625 91.648438 C 189.097656 93.546875 190.8125 95.484375 192.621094 97.433594 L 182.625 97.433594 C 184.433594 95.488281 186.148438 93.546875 187.625 91.648438 Z M 153.753906 121.179688 L 221.492188 121.179688 C 223.628906 122.570312 225.796875 123.929688 228 125.234375 L 147.246094 125.234375 C 149.445312 123.933594 151.613281 122.574219 153.753906 121.179688 Z M 153.753906 121.179688 " fill-opacity="1" fill-rule="nonzero"/><path fill="#000000" d="M 179.382812 112.222656 L 195.859375 112.222656 C 197.503906 112.222656 198.832031 110.894531 198.832031 109.253906 C 198.832031 107.613281 197.503906 106.28125 195.859375 106.28125 L 179.382812 106.28125 C 177.738281 106.28125 176.40625 107.613281 176.40625 109.253906 C 176.40625 110.894531 177.738281 112.222656 179.382812 112.222656 Z M 179.382812 112.222656 " fill-opacity="1" fill-rule="nonzero"/></svg>