<svg xmlns="http://www.w3.org/2000/svg" xmlns:xlink="http://www.w3.org/1999/xlink" width="500" zoomAndPan="magnify" viewBox="0 0 375 374.999991" height="500" preserveAspectRatio="xMidYMid meet" version="1.0"><defs><clipPath id="a4dfc4d585"><path d="M 3.171875 88.546875 L 371.910156 88.546875 L 371.910156 338.464844 L 3.171875 338.464844 Z M 3.171875 88.546875 " clip-rule="nonzero"/></clipPath><clipPath id="30fa2feff3"><path d="M 49 36.246094 L 155 36.246094 L 155 189 L 49 189 Z M 49 36.246094 " clip-rule="nonzero"/></clipPath></defs><rect x="-37.5" width="450" fill="#ffffff" y="-37.499999" height="449.999989" fill-opacity="1"/><rect x="-37.5" width="450" fill="#ffffff" y="-37.499999" height="449.999989" fill-opacity="1"/><path fill="#000000" d="M 244.882812 152.898438 L 245.640625 160.222656 C 248.066406 159.988281 250.578125 159.863281 253.109375 159.863281 C 255.195312 159.863281 257.351562 159.949219 259.503906 160.113281 L 260.089844 152.769531 C 257.738281 152.59375 255.390625 152.503906 253.109375 152.503906 C 250.328125 152.503906 247.5625 152.636719 244.882812 152.898438 " fill-opacity="1" fill-rule="nonzero"/><path fill="#000000" d="M 215.855469 162.015625 L 219.671875 168.367188 C 223.621094 166.109375 227.832031 164.277344 232.175781 162.921875 L 229.878906 155.910156 C 225.003906 157.429688 220.289062 159.480469 215.855469 162.015625 " fill-opacity="1" fill-rule="nonzero"/><path fill="#000000" d="M 114.957031 262.542969 C 119.933594 261.554688 124.832031 260.167969 129.519531 258.421875 L 126.816406 251.542969 C 122.519531 253.144531 118.023438 254.417969 113.449219 255.328125 L 114.957031 262.542969 " fill-opacity="1" fill-rule="nonzero"/><path fill="#000000" d="M 193.199219 181.699219 L 199.132812 186.25 C 202.101562 182.570312 205.28125 179.226562 208.589844 176.320312 L 203.53125 170.855469 C 199.90625 174.042969 196.433594 177.691406 193.199219 181.699219 " fill-opacity="1" fill-rule="nonzero"/><path fill="#000000" d="M 85.550781 256.691406 L 84.878906 264.023438 C 88.25 264.316406 91.628906 264.464844 94.914062 264.464844 C 96.597656 264.464844 98.289062 264.429688 99.945312 264.351562 L 99.585938 256.996094 C 98.046875 257.066406 96.476562 257.101562 94.914062 257.101562 C 91.847656 257.101562 88.699219 256.964844 85.550781 256.691406 " fill-opacity="1" fill-rule="nonzero"/><path fill="#000000" d="M 150.792969 237.859375 C 147.144531 240.777344 143.296875 243.402344 139.355469 245.65625 L 143.179688 252.007812 C 147.457031 249.558594 151.628906 246.71875 155.578125 243.558594 L 150.792969 237.859375 " fill-opacity="1" fill-rule="nonzero"/><path fill="#000000" d="M 169.929688 217.835938 C 167.089844 221.636719 164.082031 225.214844 160.988281 228.472656 L 166.53125 233.476562 C 169.820312 230.007812 173.019531 226.203125 176.03125 222.167969 L 169.929688 217.835938 " fill-opacity="1" fill-rule="nonzero"/><path fill="#000000" d="M 55.589844 258.050781 C 60.398438 259.574219 65.261719 260.847656 70.039062 261.832031 L 71.601562 254.632812 C 67.085938 253.695312 62.484375 252.492188 57.925781 251.046875 L 55.589844 258.050781 " fill-opacity="1" fill-rule="nonzero"/><path fill="#000000" d="M 300.160156 171.132812 C 304.351562 172.984375 308.652344 175.082031 312.9375 177.367188 L 316.5625 170.90625 C 312.109375 168.53125 307.640625 166.351562 303.269531 164.425781 L 300.160156 171.132812 " fill-opacity="1" fill-rule="nonzero"/><path fill="#000000" d="M 273.355469 162.175781 C 277.765625 163.140625 282.339844 164.417969 286.953125 165.976562 L 289.425781 159.019531 C 284.542969 157.371094 279.691406 156.015625 275.007812 154.988281 L 273.355469 162.175781 " fill-opacity="1" fill-rule="nonzero"/><g clip-path="url(#a4dfc4d585)"><path fill="#000000" d="M 277.425781 233.683594 L 273.386719 233.9375 L 270.414062 236.679688 L 220.167969 282.976562 L 173.488281 142.667969 L 223.152344 100.34375 L 292.992188 102.953125 L 329.75 178.523438 C 329.609375 178.4375 329.464844 178.347656 329.324219 178.257812 L 325.277344 184.476562 C 328.921875 186.730469 332.558594 189.125 336.109375 191.59375 L 354.214844 228.824219 Z M 300.257812 91.820312 L 219.136719 88.789062 L 164.921875 134.988281 L 151.527344 132.632812 C 149.777344 136.035156 147.863281 139.558594 145.789062 143.191406 L 162.625 146.15625 L 180.816406 200.824219 C 179.792969 202.679688 178.742188 204.5 177.6875 206.261719 L 183.785156 209.753906 L 209.554688 287.21875 L 131.578125 283.660156 L 128.207031 283.503906 L 125.292969 285.207031 L 63.382812 321.386719 L 41.882812 252.292969 L 44.660156 246.121094 C 42.613281 245.246094 40.78125 244.402344 39.191406 243.640625 L 16.636719 171.171875 L 58.824219 143.957031 C 56.847656 140.519531 55.011719 137.175781 53.324219 133.941406 L 3.171875 166.292969 L 56.753906 338.464844 L 131.054688 295.042969 L 219.511719 299.082031 L 278.148438 245.058594 L 371.910156 239.125 L 300.257812 91.820312 " fill-opacity="1" fill-rule="nonzero"/></g><g clip-path="url(#30fa2feff3)"><path fill="#000000" d="M 73.527344 85.316406 C 73.527344 69.5625 86.316406 56.789062 102.085938 56.789062 C 117.859375 56.789062 130.648438 69.5625 130.648438 85.316406 C 130.648438 101.074219 117.859375 113.847656 102.085938 113.847656 C 86.316406 113.847656 73.527344 101.074219 73.527344 85.316406 Z M 154.496094 88.59375 C 154.496094 59.679688 131.03125 36.242188 102.085938 36.242188 C 73.140625 36.242188 49.675781 59.679688 49.675781 88.59375 C 49.675781 122.363281 102.085938 188.382812 102.085938 188.382812 C 102.085938 188.382812 154.496094 122.363281 154.496094 88.59375 " fill-opacity="1" fill-rule="nonzero"/></g></svg>