<svg xmlns="http://www.w3.org/2000/svg" xmlns:xlink="http://www.w3.org/1999/xlink" width="500" zoomAndPan="magnify" viewBox="0 0 375 374.999991" height="500" preserveAspectRatio="xMidYMid meet" version="1.0"><defs><clipPath id="cd95cc9b20"><path d="M 4 68.664062 L 371 68.664062 L 371 129 L 4 129 Z M 4 68.664062 " clip-rule="nonzero"/></clipPath><clipPath id="f1981d9e50"><path d="M 4 245 L 371 245 L 371 306.414062 L 4 306.414062 Z M 4 245 " clip-rule="nonzero"/></clipPath></defs><rect x="-37.5" width="450" fill="#ffffff" y="-37.499999" height="449.999989" fill-opacity="1"/><rect x="-37.5" width="450" fill="#ffffff" y="-37.499999" height="449.999989" fill-opacity="1"/><g clip-path="url(#cd95cc9b20)"><path fill="#000000" d="M 10.714844 105.339844 L 246.113281 105.339844 C 246.496094 107.007812 247.015625 108.632812 247.671875 110.210938 C 248.328125 111.789062 249.113281 113.304688 250.023438 114.75 C 250.933594 116.199219 251.957031 117.558594 253.097656 118.832031 C 254.238281 120.105469 255.476562 121.277344 256.8125 122.34375 C 258.148438 123.40625 259.566406 124.355469 261.0625 125.179688 C 262.558594 126.007812 264.113281 126.703125 265.726562 127.265625 C 267.339844 127.832031 268.988281 128.257812 270.675781 128.542969 C 272.359375 128.828125 274.054688 128.972656 275.765625 128.972656 C 277.472656 128.972656 279.171875 128.828125 280.855469 128.542969 C 282.542969 128.257812 284.191406 127.832031 285.804688 127.265625 C 287.417969 126.703125 288.972656 126.007812 290.46875 125.179688 C 291.964844 124.351562 293.378906 123.40625 294.71875 122.34375 C 296.054688 121.277344 297.292969 120.105469 298.433594 118.832031 C 299.574219 117.558594 300.597656 116.195312 301.507812 114.75 C 302.417969 113.300781 303.203125 111.789062 303.859375 110.210938 C 304.515625 108.628906 305.035156 107.007812 305.417969 105.339844 L 364.117188 105.339844 C 364.546875 105.339844 364.96875 105.300781 365.390625 105.214844 C 365.8125 105.132812 366.222656 105.007812 366.621094 104.84375 C 367.015625 104.679688 367.394531 104.476562 367.75 104.238281 C 368.109375 104 368.4375 103.726562 368.742188 103.421875 C 369.046875 103.117188 369.316406 102.789062 369.558594 102.429688 C 369.796875 102.074219 369.996094 101.695312 370.160156 101.296875 C 370.324219 100.902344 370.449219 100.492188 370.535156 100.070312 C 370.617188 99.648438 370.660156 99.222656 370.660156 98.792969 C 370.660156 98.363281 370.617188 97.9375 370.535156 97.515625 C 370.449219 97.09375 370.324219 96.683594 370.160156 96.285156 C 369.996094 95.886719 369.796875 95.511719 369.558594 95.152344 C 369.316406 94.796875 369.046875 94.464844 368.742188 94.160156 C 368.4375 93.855469 368.109375 93.585938 367.75 93.347656 C 367.394531 93.105469 367.015625 92.90625 366.621094 92.742188 C 366.222656 92.578125 365.8125 92.453125 365.390625 92.367188 C 364.96875 92.285156 364.546875 92.242188 364.117188 92.242188 L 305.417969 92.242188 C 305.050781 90.5625 304.542969 88.925781 303.898438 87.332031 C 303.25 85.738281 302.476562 84.210938 301.574219 82.75 C 300.667969 81.289062 299.648438 79.914062 298.507812 78.625 C 297.371094 77.335938 296.132812 76.152344 294.792969 75.074219 C 293.457031 73.996094 292.035156 73.039062 290.535156 72.203125 C 289.035156 71.367188 287.472656 70.664062 285.851562 70.09375 C 284.234375 69.519531 282.574219 69.089844 280.882812 68.800781 C 279.1875 68.511719 277.484375 68.367188 275.765625 68.367188 C 274.046875 68.367188 272.34375 68.511719 270.648438 68.800781 C 268.953125 69.089844 267.296875 69.519531 265.679688 70.09375 C 264.058594 70.664062 262.496094 71.367188 260.996094 72.203125 C 259.496094 73.039062 258.074219 73.996094 256.738281 75.074219 C 255.398438 76.152344 254.160156 77.335938 253.023438 78.625 C 251.882812 79.914062 250.863281 81.289062 249.957031 82.75 C 249.054688 84.210938 248.277344 85.738281 247.632812 87.332031 C 246.988281 88.925781 246.480469 90.5625 246.113281 92.242188 L 10.714844 92.242188 C 10.292969 92.25 9.871094 92.296875 9.453125 92.386719 C 9.039062 92.476562 8.636719 92.601562 8.246094 92.769531 C 7.851562 92.9375 7.480469 93.140625 7.132812 93.382812 C 6.78125 93.621094 6.453125 93.894531 6.15625 94.199219 C 5.859375 94.5 5.59375 94.832031 5.359375 95.1875 C 5.125 95.542969 4.925781 95.914062 4.765625 96.308594 C 4.605469 96.703125 4.480469 97.109375 4.398438 97.527344 C 4.316406 97.945312 4.277344 98.367188 4.277344 98.792969 C 4.277344 99.21875 4.316406 99.640625 4.398438 100.058594 C 4.480469 100.472656 4.605469 100.878906 4.765625 101.273438 C 4.925781 101.667969 5.125 102.042969 5.359375 102.398438 C 5.59375 102.753906 5.859375 103.082031 6.15625 103.386719 C 6.453125 103.691406 6.78125 103.960938 7.132812 104.203125 C 7.480469 104.441406 7.851562 104.644531 8.246094 104.8125 C 8.636719 104.980469 9.039062 105.109375 9.453125 105.199219 C 9.871094 105.285156 10.292969 105.335938 10.714844 105.339844 Z M 275.765625 81.464844 C 276.328125 81.472656 276.890625 81.503906 277.449219 81.566406 C 278.007812 81.628906 278.5625 81.714844 279.113281 81.832031 C 279.664062 81.949219 280.210938 82.089844 280.746094 82.257812 C 281.285156 82.425781 281.8125 82.621094 282.328125 82.839844 C 282.847656 83.0625 283.351562 83.304688 283.847656 83.574219 C 284.34375 83.84375 284.820312 84.136719 285.289062 84.453125 C 285.753906 84.769531 286.203125 85.109375 286.636719 85.46875 C 287.066406 85.828125 287.480469 86.210938 287.878906 86.609375 C 288.273438 87.011719 288.648438 87.429688 289.003906 87.867188 C 289.359375 88.304688 289.691406 88.757812 290 89.226562 C 290.3125 89.699219 290.597656 90.179688 290.863281 90.679688 C 291.125 91.175781 291.367188 91.6875 291.578125 92.207031 C 291.792969 92.726562 291.980469 93.257812 292.144531 93.796875 C 292.304688 94.335938 292.441406 94.882812 292.550781 95.4375 C 292.660156 95.988281 292.742188 96.546875 292.796875 97.105469 C 292.851562 97.667969 292.878906 98.226562 292.878906 98.792969 C 292.878906 99.355469 292.851562 99.917969 292.796875 100.476562 C 292.742188 101.039062 292.660156 101.59375 292.550781 102.148438 C 292.441406 102.699219 292.304688 103.246094 292.144531 103.785156 C 291.980469 104.324219 291.792969 104.855469 291.578125 105.375 C 291.363281 105.898438 291.125 106.40625 290.863281 106.90625 C 290.597656 107.402344 290.3125 107.886719 290 108.355469 C 289.691406 108.824219 289.359375 109.277344 289.003906 109.714844 C 288.648438 110.152344 288.273438 110.574219 287.878906 110.972656 C 287.480469 111.375 287.066406 111.753906 286.636719 112.113281 C 286.203125 112.472656 285.753906 112.8125 285.289062 113.128906 C 284.820312 113.445312 284.339844 113.738281 283.847656 114.007812 C 283.351562 114.277344 282.847656 114.523438 282.328125 114.742188 C 281.8125 114.960938 281.28125 115.15625 280.746094 115.324219 C 280.207031 115.492188 279.664062 115.636719 279.113281 115.75 C 278.5625 115.867188 278.007812 115.957031 277.449219 116.015625 C 276.890625 116.078125 276.328125 116.113281 275.765625 116.117188 C 275.203125 116.113281 274.640625 116.078125 274.082031 116.015625 C 273.523438 115.957031 272.964844 115.867188 272.414062 115.75 C 271.863281 115.636719 271.320312 115.492188 270.785156 115.324219 C 270.246094 115.15625 269.71875 114.960938 269.203125 114.742188 C 268.683594 114.523438 268.175781 114.277344 267.683594 114.007812 C 267.1875 113.738281 266.707031 113.445312 266.242188 113.128906 C 265.777344 112.8125 265.328125 112.472656 264.894531 112.113281 C 264.460938 111.753906 264.046875 111.375 263.652344 110.972656 C 263.257812 110.570312 262.882812 110.152344 262.527344 109.714844 C 262.171875 109.277344 261.839844 108.824219 261.527344 108.355469 C 261.21875 107.886719 260.929688 107.402344 260.667969 106.902344 C 260.402344 106.40625 260.164062 105.898438 259.953125 105.375 C 259.738281 104.855469 259.550781 104.324219 259.386719 103.785156 C 259.226562 103.246094 259.089844 102.699219 258.980469 102.148438 C 258.871094 101.59375 258.789062 101.039062 258.734375 100.476562 C 258.679688 99.917969 258.652344 99.355469 258.652344 98.792969 C 258.652344 98.226562 258.679688 97.667969 258.734375 97.105469 C 258.789062 96.546875 258.871094 95.988281 258.980469 95.4375 C 259.089844 94.882812 259.226562 94.335938 259.386719 93.796875 C 259.550781 93.257812 259.738281 92.726562 259.953125 92.207031 C 260.164062 91.6875 260.402344 91.175781 260.667969 90.679688 C 260.929688 90.179688 261.21875 89.699219 261.527344 89.226562 C 261.839844 88.757812 262.171875 88.304688 262.527344 87.867188 C 262.882812 87.429688 263.257812 87.011719 263.652344 86.609375 C 264.046875 86.210938 264.460938 85.828125 264.894531 85.46875 C 265.328125 85.109375 265.777344 84.769531 266.242188 84.453125 C 266.710938 84.136719 267.1875 83.84375 267.683594 83.574219 C 268.175781 83.304688 268.683594 83.0625 269.203125 82.839844 C 269.71875 82.621094 270.246094 82.425781 270.785156 82.257812 C 271.320312 82.089844 271.867188 81.949219 272.417969 81.832031 C 272.96875 81.714844 273.523438 81.628906 274.082031 81.566406 C 274.640625 81.503906 275.203125 81.472656 275.765625 81.464844 Z M 275.765625 81.464844 " fill-opacity="1" fill-rule="nonzero"/></g><path fill="#000000" d="M 364.117188 180.660156 L 128.71875 180.660156 C 128.335938 178.996094 127.816406 177.371094 127.160156 175.792969 C 126.503906 174.214844 125.71875 172.699219 124.808594 171.253906 C 123.898438 169.804688 122.875 168.445312 121.734375 167.171875 C 120.59375 165.894531 119.355469 164.726562 118.019531 163.660156 C 116.679688 162.59375 115.265625 161.648438 113.769531 160.824219 C 112.273438 159.996094 110.71875 159.300781 109.105469 158.738281 C 107.492188 158.171875 105.84375 157.746094 104.15625 157.460938 C 102.472656 157.175781 100.773438 157.03125 99.066406 157.03125 C 97.355469 157.03125 95.660156 157.175781 93.976562 157.460938 C 92.289062 157.746094 90.640625 158.171875 89.027344 158.738281 C 87.414062 159.300781 85.859375 159.996094 84.363281 160.824219 C 82.867188 161.648438 81.449219 162.597656 80.113281 163.660156 C 78.777344 164.726562 77.539062 165.898438 76.398438 167.171875 C 75.257812 168.445312 74.234375 169.804688 73.324219 171.253906 C 72.410156 172.699219 71.628906 174.214844 70.972656 175.792969 C 70.316406 177.371094 69.796875 178.996094 69.414062 180.664062 L 10.714844 180.660156 C 10.285156 180.660156 9.859375 180.703125 9.441406 180.789062 C 9.019531 180.871094 8.609375 180.996094 8.210938 181.160156 C 7.816406 181.324219 7.4375 181.527344 7.082031 181.765625 C 6.722656 182.003906 6.394531 182.277344 6.089844 182.578125 C 5.785156 182.882812 5.511719 183.214844 5.273438 183.574219 C 5.035156 183.929688 4.835938 184.308594 4.671875 184.703125 C 4.503906 185.101562 4.382812 185.511719 4.296875 185.933594 C 4.214844 186.355469 4.171875 186.78125 4.171875 187.210938 C 4.171875 187.640625 4.214844 188.066406 4.296875 188.488281 C 4.382812 188.910156 4.503906 189.320312 4.671875 189.71875 C 4.835938 190.113281 5.035156 190.492188 5.273438 190.851562 C 5.511719 191.207031 5.785156 191.539062 6.089844 191.84375 C 6.394531 192.148438 6.722656 192.417969 7.082031 192.65625 C 7.4375 192.894531 7.816406 193.097656 8.210938 193.261719 C 8.609375 193.425781 9.019531 193.550781 9.441406 193.636719 C 9.859375 193.71875 10.285156 193.761719 10.714844 193.761719 L 69.414062 193.761719 C 69.78125 195.441406 70.289062 197.078125 70.933594 198.671875 C 71.578125 200.265625 72.355469 201.792969 73.257812 203.253906 C 74.164062 204.714844 75.183594 206.089844 76.324219 207.378906 C 77.460938 208.667969 78.699219 209.847656 80.039062 210.925781 C 81.375 212.003906 82.796875 212.960938 84.296875 213.800781 C 85.796875 214.636719 87.359375 215.339844 88.976562 215.910156 C 90.597656 216.480469 92.253906 216.914062 93.949219 217.203125 C 95.640625 217.492188 97.347656 217.636719 99.066406 217.636719 C 100.785156 217.636719 102.488281 217.492188 104.183594 217.203125 C 105.875 216.914062 107.535156 216.480469 109.152344 215.910156 C 110.773438 215.339844 112.335938 214.636719 113.835938 213.800781 C 115.335938 212.960938 116.757812 212.003906 118.09375 210.925781 C 119.433594 209.847656 120.671875 208.667969 121.808594 207.378906 C 122.945312 206.089844 123.96875 204.714844 124.871094 203.253906 C 125.777344 201.792969 126.550781 200.265625 127.199219 198.671875 C 127.84375 197.078125 128.351562 195.441406 128.71875 193.761719 L 364.117188 193.761719 C 364.539062 193.753906 364.960938 193.707031 365.378906 193.617188 C 365.792969 193.527344 366.195312 193.398438 366.585938 193.230469 C 366.976562 193.066406 367.347656 192.859375 367.699219 192.621094 C 368.050781 192.378906 368.375 192.109375 368.675781 191.804688 C 368.972656 191.503906 369.238281 191.171875 369.472656 190.816406 C 369.707031 190.460938 369.90625 190.085938 370.066406 189.695312 C 370.226562 189.300781 370.351562 188.894531 370.433594 188.476562 C 370.515625 188.058594 370.554688 187.636719 370.554688 187.210938 C 370.554688 186.785156 370.515625 186.363281 370.433594 185.945312 C 370.351562 185.527344 370.226562 185.121094 370.066406 184.730469 C 369.90625 184.335938 369.707031 183.960938 369.472656 183.605469 C 369.238281 183.25 368.972656 182.921875 368.675781 182.617188 C 368.375 182.3125 368.050781 182.042969 367.699219 181.800781 C 367.347656 181.5625 366.976562 181.359375 366.585938 181.191406 C 366.195312 181.023438 365.792969 180.894531 365.378906 180.804688 C 364.960938 180.714844 364.539062 180.667969 364.117188 180.660156 Z M 99.066406 204.539062 C 98.503906 204.53125 97.941406 204.496094 97.382812 204.4375 C 96.824219 204.375 96.269531 204.285156 95.71875 204.171875 C 95.167969 204.054688 94.621094 203.914062 94.085938 203.746094 C 93.546875 203.578125 93.019531 203.382812 92.503906 203.160156 C 91.984375 202.941406 91.476562 202.695312 90.984375 202.425781 C 90.488281 202.15625 90.011719 201.863281 89.542969 201.546875 C 89.078125 201.230469 88.628906 200.894531 88.195312 200.535156 C 87.765625 200.171875 87.351562 199.792969 86.953125 199.390625 C 86.558594 198.992188 86.183594 198.574219 85.828125 198.136719 C 85.472656 197.699219 85.140625 197.246094 84.832031 196.773438 C 84.519531 196.304688 84.230469 195.820312 83.96875 195.324219 C 83.707031 194.828125 83.464844 194.316406 83.253906 193.796875 C 83.039062 193.273438 82.851562 192.746094 82.6875 192.207031 C 82.527344 191.664062 82.390625 191.121094 82.28125 190.566406 C 82.171875 190.015625 82.089844 189.457031 82.035156 188.898438 C 81.980469 188.335938 81.953125 187.773438 81.953125 187.210938 C 81.953125 186.648438 81.980469 186.085938 82.035156 185.527344 C 82.089844 184.964844 82.171875 184.40625 82.28125 183.855469 C 82.390625 183.304688 82.527344 182.757812 82.6875 182.21875 C 82.851562 181.679688 83.039062 181.148438 83.253906 180.625 C 83.464844 180.105469 83.707031 179.597656 83.96875 179.097656 C 84.234375 178.601562 84.519531 178.117188 84.832031 177.648438 C 85.140625 177.175781 85.472656 176.722656 85.828125 176.285156 C 86.183594 175.851562 86.558594 175.429688 86.953125 175.03125 C 87.351562 174.628906 87.765625 174.25 88.195312 173.890625 C 88.628906 173.527344 89.078125 173.191406 89.542969 172.875 C 90.011719 172.558594 90.488281 172.265625 90.984375 171.996094 C 91.480469 171.726562 91.984375 171.480469 92.503906 171.261719 C 93.019531 171.039062 93.546875 170.847656 94.085938 170.679688 C 94.621094 170.507812 95.167969 170.367188 95.71875 170.25 C 96.269531 170.136719 96.824219 170.046875 97.382812 169.984375 C 97.941406 169.925781 98.503906 169.890625 99.066406 169.882812 C 99.628906 169.890625 100.191406 169.925781 100.75 169.984375 C 101.308594 170.046875 101.863281 170.136719 102.414062 170.25 C 102.964844 170.367188 103.511719 170.507812 104.046875 170.679688 C 104.585938 170.847656 105.113281 171.039062 105.628906 171.261719 C 106.148438 171.480469 106.65625 171.726562 107.148438 171.996094 C 107.644531 172.265625 108.121094 172.558594 108.589844 172.875 C 109.054688 173.191406 109.503906 173.527344 109.9375 173.890625 C 110.367188 174.25 110.78125 174.628906 111.179688 175.03125 C 111.574219 175.429688 111.949219 175.851562 112.304688 176.285156 C 112.660156 176.722656 112.992188 177.179688 113.300781 177.648438 C 113.613281 178.117188 113.898438 178.601562 114.164062 179.097656 C 114.425781 179.597656 114.667969 180.105469 114.878906 180.625 C 115.09375 181.148438 115.28125 181.679688 115.445312 182.21875 C 115.605469 182.757812 115.742188 183.304688 115.851562 183.855469 C 115.960938 184.410156 116.042969 184.964844 116.097656 185.527344 C 116.152344 186.085938 116.179688 186.648438 116.179688 187.210938 C 116.179688 187.773438 116.152344 188.335938 116.097656 188.898438 C 116.042969 189.457031 115.960938 190.015625 115.851562 190.566406 C 115.742188 191.121094 115.605469 191.664062 115.445312 192.207031 C 115.28125 192.746094 115.09375 193.273438 114.878906 193.796875 C 114.664062 194.316406 114.425781 194.828125 114.164062 195.324219 C 113.898438 195.820312 113.613281 196.304688 113.300781 196.773438 C 112.992188 197.246094 112.660156 197.699219 112.304688 198.136719 C 111.949219 198.574219 111.574219 198.992188 111.179688 199.390625 C 110.78125 199.792969 110.367188 200.171875 109.9375 200.535156 C 109.503906 200.894531 109.054688 201.230469 108.589844 201.546875 C 108.121094 201.863281 107.640625 202.15625 107.148438 202.425781 C 106.652344 202.695312 106.148438 202.941406 105.628906 203.160156 C 105.113281 203.382812 104.585938 203.578125 104.046875 203.746094 C 103.511719 203.914062 102.964844 204.054688 102.414062 204.171875 C 101.863281 204.285156 101.308594 204.375 100.75 204.4375 C 100.191406 204.496094 99.628906 204.53125 99.066406 204.539062 Z M 99.066406 204.539062 " fill-opacity="1" fill-rule="nonzero"/><g clip-path="url(#f1981d9e50)"><path fill="#000000" d="M 364.117188 269.082031 L 217.066406 269.082031 C 216.699219 267.402344 216.191406 265.765625 215.546875 264.171875 C 214.902344 262.578125 214.128906 261.050781 213.222656 259.589844 C 212.316406 258.128906 211.296875 256.753906 210.160156 255.464844 C 209.019531 254.175781 207.785156 252.992188 206.445312 251.914062 C 205.105469 250.835938 203.6875 249.878906 202.1875 249.042969 C 200.683594 248.207031 199.125 247.503906 197.503906 246.929688 C 195.882812 246.359375 194.226562 245.929688 192.53125 245.640625 C 190.839844 245.347656 189.132812 245.203125 187.414062 245.203125 C 185.699219 245.203125 183.992188 245.347656 182.296875 245.640625 C 180.605469 245.929688 178.949219 246.359375 177.328125 246.929688 C 175.707031 247.503906 174.148438 248.207031 172.644531 249.042969 C 171.144531 249.878906 169.726562 250.835938 168.386719 251.914062 C 167.046875 252.992188 165.808594 254.175781 164.671875 255.464844 C 163.535156 256.753906 162.511719 258.128906 161.609375 259.589844 C 160.703125 261.050781 159.929688 262.578125 159.285156 264.171875 C 158.640625 265.765625 158.132812 267.402344 157.765625 269.082031 L 10.714844 269.082031 C 10.292969 269.089844 9.871094 269.136719 9.453125 269.226562 C 9.039062 269.3125 8.636719 269.441406 8.246094 269.609375 C 7.851562 269.777344 7.480469 269.980469 7.132812 270.222656 C 6.78125 270.460938 6.453125 270.734375 6.15625 271.035156 C 5.859375 271.339844 5.59375 271.667969 5.359375 272.023438 C 5.125 272.378906 4.925781 272.753906 4.765625 273.148438 C 4.605469 273.542969 4.480469 273.949219 4.398438 274.367188 C 4.316406 274.785156 4.277344 275.207031 4.277344 275.632812 C 4.277344 276.054688 4.316406 276.476562 4.398438 276.894531 C 4.480469 277.3125 4.605469 277.71875 4.765625 278.113281 C 4.925781 278.507812 5.125 278.882812 5.359375 279.238281 C 5.59375 279.59375 5.859375 279.921875 6.15625 280.226562 C 6.457031 280.527344 6.78125 280.800781 7.132812 281.039062 C 7.484375 281.28125 7.855469 281.484375 8.246094 281.652344 C 8.636719 281.820312 9.039062 281.949219 9.453125 282.035156 C 9.871094 282.125 10.292969 282.171875 10.714844 282.179688 L 157.765625 282.179688 C 158.132812 283.859375 158.640625 285.496094 159.285156 287.089844 C 159.929688 288.683594 160.703125 290.210938 161.609375 291.671875 C 162.511719 293.132812 163.535156 294.507812 164.671875 295.796875 C 165.808594 297.085938 167.046875 298.269531 168.386719 299.347656 C 169.726562 300.425781 171.144531 301.382812 172.644531 302.21875 C 174.148438 303.054688 175.707031 303.757812 177.328125 304.332031 C 178.949219 304.902344 180.605469 305.332031 182.296875 305.621094 C 183.992188 305.910156 185.699219 306.058594 187.414062 306.058594 C 189.132812 306.058594 190.839844 305.910156 192.53125 305.621094 C 194.226562 305.332031 195.882812 304.902344 197.503906 304.332031 C 199.125 303.757812 200.683594 303.054688 202.1875 302.21875 C 203.6875 301.382812 205.105469 300.425781 206.445312 299.347656 C 207.785156 298.269531 209.019531 297.085938 210.160156 295.796875 C 211.296875 294.507812 212.316406 293.132812 213.222656 291.671875 C 214.128906 290.210938 214.902344 288.683594 215.546875 287.089844 C 216.191406 285.496094 216.699219 283.859375 217.066406 282.179688 L 364.117188 282.179688 C 364.539062 282.171875 364.960938 282.125 365.378906 282.035156 C 365.792969 281.949219 366.195312 281.820312 366.585938 281.652344 C 366.976562 281.484375 367.347656 281.28125 367.699219 281.039062 C 368.050781 280.800781 368.375 280.527344 368.675781 280.226562 C 368.972656 279.921875 369.238281 279.59375 369.472656 279.238281 C 369.707031 278.882812 369.90625 278.507812 370.066406 278.113281 C 370.226562 277.71875 370.351562 277.3125 370.433594 276.894531 C 370.515625 276.476562 370.554688 276.054688 370.554688 275.628906 C 370.554688 275.203125 370.515625 274.785156 370.433594 274.367188 C 370.351562 273.949219 370.226562 273.542969 370.066406 273.148438 C 369.90625 272.753906 369.707031 272.378906 369.472656 272.023438 C 369.238281 271.667969 368.972656 271.339844 368.675781 271.035156 C 368.375 270.734375 368.050781 270.460938 367.699219 270.222656 C 367.347656 269.980469 366.976562 269.777344 366.585938 269.609375 C 366.195312 269.441406 365.792969 269.3125 365.378906 269.226562 C 364.960938 269.136719 364.539062 269.089844 364.117188 269.082031 Z M 187.414062 292.957031 C 186.851562 292.949219 186.292969 292.917969 185.730469 292.855469 C 185.171875 292.792969 184.617188 292.707031 184.066406 292.589844 C 183.515625 292.476562 182.972656 292.332031 182.433594 292.164062 C 181.898438 291.996094 181.371094 291.800781 180.851562 291.582031 C 180.335938 291.359375 179.828125 291.117188 179.335938 290.847656 C 178.839844 290.578125 178.359375 290.285156 177.894531 289.96875 C 177.429688 289.652344 176.980469 289.3125 176.546875 288.953125 C 176.113281 288.59375 175.699219 288.210938 175.304688 287.8125 C 174.910156 287.410156 174.535156 286.992188 174.179688 286.554688 C 173.824219 286.117188 173.492188 285.664062 173.179688 285.195312 C 172.871094 284.722656 172.582031 284.242188 172.320312 283.742188 C 172.054688 283.246094 171.816406 282.734375 171.601562 282.214844 C 171.390625 281.695312 171.199219 281.164062 171.039062 280.625 C 170.875 280.085938 170.742188 279.539062 170.632812 278.984375 C 170.523438 278.433594 170.441406 277.875 170.386719 277.316406 C 170.332031 276.753906 170.304688 276.195312 170.304688 275.628906 C 170.304688 275.066406 170.332031 274.503906 170.386719 273.945312 C 170.441406 273.382812 170.523438 272.828125 170.632812 272.273438 C 170.742188 271.722656 170.875 271.175781 171.039062 270.636719 C 171.203125 270.097656 171.390625 269.566406 171.601562 269.046875 C 171.816406 268.523438 172.054688 268.015625 172.320312 267.519531 C 172.582031 267.019531 172.871094 266.535156 173.179688 266.066406 C 173.492188 265.597656 173.824219 265.144531 174.179688 264.707031 C 174.535156 264.269531 174.910156 263.851562 175.304688 263.449219 C 175.699219 263.050781 176.113281 262.667969 176.546875 262.308594 C 176.980469 261.949219 177.429688 261.609375 177.894531 261.292969 C 178.359375 260.976562 178.839844 260.683594 179.335938 260.414062 C 179.828125 260.144531 180.335938 259.902344 180.851562 259.679688 C 181.371094 259.460938 181.898438 259.265625 182.4375 259.097656 C 182.972656 258.929688 183.515625 258.785156 184.066406 258.671875 C 184.617188 258.554688 185.171875 258.46875 185.734375 258.40625 C 186.292969 258.34375 186.855469 258.308594 187.417969 258.304688 C 187.980469 258.308594 188.539062 258.34375 189.101562 258.40625 C 189.660156 258.46875 190.214844 258.554688 190.765625 258.671875 C 191.316406 258.785156 191.859375 258.929688 192.398438 259.097656 C 192.933594 259.265625 193.460938 259.460938 193.980469 259.679688 C 194.496094 259.902344 195.003906 260.144531 195.496094 260.414062 C 195.992188 260.683594 196.472656 260.976562 196.9375 261.292969 C 197.402344 261.609375 197.851562 261.949219 198.285156 262.308594 C 198.71875 262.667969 199.132812 263.050781 199.527344 263.449219 C 199.921875 263.851562 200.296875 264.269531 200.652344 264.707031 C 201.007812 265.144531 201.339844 265.597656 201.652344 266.066406 C 201.960938 266.535156 202.25 267.019531 202.511719 267.519531 C 202.777344 268.015625 203.015625 268.527344 203.230469 269.046875 C 203.441406 269.566406 203.632812 270.097656 203.792969 270.636719 C 203.957031 271.175781 204.089844 271.722656 204.199219 272.273438 C 204.308594 272.828125 204.390625 273.382812 204.445312 273.945312 C 204.5 274.503906 204.527344 275.066406 204.527344 275.628906 C 204.527344 276.195312 204.5 276.757812 204.445312 277.316406 C 204.390625 277.878906 204.308594 278.433594 204.199219 278.988281 C 204.089844 279.539062 203.957031 280.085938 203.792969 280.625 C 203.628906 281.164062 203.441406 281.695312 203.230469 282.214844 C 203.015625 282.734375 202.777344 283.246094 202.511719 283.742188 C 202.25 284.242188 201.960938 284.726562 201.652344 285.195312 C 201.339844 285.664062 201.007812 286.117188 200.652344 286.554688 C 200.296875 286.992188 199.921875 287.410156 199.527344 287.8125 C 199.132812 288.210938 198.71875 288.59375 198.285156 288.953125 C 197.851562 289.3125 197.402344 289.652344 196.9375 289.96875 C 196.472656 290.285156 195.992188 290.578125 195.496094 290.847656 C 195.003906 291.117188 194.496094 291.359375 193.980469 291.582031 C 193.460938 291.800781 192.933594 291.996094 192.398438 292.164062 C 191.859375 292.332031 191.316406 292.476562 190.765625 292.589844 C 190.214844 292.707031 189.660156 292.792969 189.097656 292.855469 C 188.539062 292.917969 187.980469 292.949219 187.414062 292.957031 Z M 187.414062 292.957031 " fill-opacity="1" fill-rule="nonzero"/></g></svg>