<svg xmlns="http://www.w3.org/2000/svg" xmlns:xlink="http://www.w3.org/1999/xlink" width="500" zoomAndPan="magnify" viewBox="0 0 375 374.999991" height="500" preserveAspectRatio="xMidYMid meet" version="1.0"><defs><clipPath id="99e416910d"><path d="M 280 159 L 361.703125 159 L 361.703125 240 L 280 240 Z M 280 159 " clip-rule="nonzero"/></clipPath></defs><path fill="#010101" d="M 73.730469 155.777344 C 73.578125 155.015625 73.324219 154.289062 72.964844 153.601562 C 72.609375 152.914062 72.164062 152.285156 71.628906 151.722656 C 71.09375 151.160156 70.492188 150.683594 69.824219 150.289062 C 69.15625 149.894531 68.445312 149.601562 67.695312 149.410156 L 57.011719 146.617188 L 53.253906 136.230469 C 52.988281 135.5 52.632812 134.820312 52.175781 134.191406 C 51.722656 133.5625 51.191406 133.007812 50.582031 132.527344 C 49.976562 132.046875 49.3125 131.660156 48.59375 131.363281 C 47.878906 131.070312 47.132812 130.878906 46.363281 130.792969 C 45.59375 130.707031 44.824219 130.726562 44.058594 130.855469 C 43.296875 130.984375 42.5625 131.21875 41.863281 131.550781 C 41.164062 131.886719 40.523438 132.3125 39.941406 132.824219 C 39.363281 133.339844 38.863281 133.921875 38.445312 134.574219 L 32.496094 143.882812 L 21.460938 144.25 C 20.683594 144.277344 19.929688 144.410156 19.191406 144.644531 C 18.453125 144.882812 17.761719 145.21875 17.117188 145.648438 C 16.472656 146.082031 15.898438 146.59375 15.398438 147.183594 C 14.894531 147.777344 14.484375 148.425781 14.164062 149.132812 C 13.847656 149.839844 13.628906 150.578125 13.515625 151.34375 C 13.402344 152.113281 13.398438 152.878906 13.5 153.648438 C 13.601562 154.417969 13.804688 155.160156 14.113281 155.871094 C 14.421875 156.582031 14.824219 157.238281 15.316406 157.839844 L 22.316406 166.378906 L 19.257812 176.996094 C 19.042969 177.742188 18.933594 178.503906 18.933594 179.277344 C 18.929688 180.054688 19.035156 180.816406 19.246094 181.5625 C 19.457031 182.308594 19.765625 183.011719 20.171875 183.671875 C 20.582031 184.332031 21.070312 184.921875 21.644531 185.445312 C 22.214844 185.96875 22.847656 186.402344 23.542969 186.746094 C 24.238281 187.09375 24.964844 187.335938 25.726562 187.476562 C 26.488281 187.617188 27.257812 187.652344 28.027344 187.578125 C 28.800781 187.503906 29.546875 187.328125 30.269531 187.042969 L 40.546875 183.015625 L 49.6875 189.210938 C 50.328125 189.644531 51.019531 189.984375 51.753906 190.226562 C 52.492188 190.46875 53.246094 190.601562 54.023438 190.632812 C 54.796875 190.664062 55.558594 190.585938 56.3125 190.402344 C 57.066406 190.21875 57.777344 189.933594 58.453125 189.550781 C 59.125 189.167969 59.734375 188.699219 60.277344 188.144531 C 60.820312 187.589844 61.273438 186.972656 61.644531 186.292969 C 62.015625 185.609375 62.285156 184.890625 62.453125 184.132812 C 62.621094 183.375 62.679688 182.609375 62.636719 181.835938 L 61.992188 170.804688 L 70.699219 164.015625 C 71.3125 163.539062 71.847656 162.992188 72.308594 162.363281 C 72.765625 161.738281 73.128906 161.0625 73.398438 160.332031 C 73.667969 159.605469 73.828125 158.851562 73.886719 158.078125 C 73.941406 157.304688 73.890625 156.535156 73.730469 155.777344 Z M 49.222656 137.691406 L 45.191406 139.15625 Z M 56.609375 164.117188 C 56.078125 164.53125 55.601562 165.003906 55.1875 165.53125 C 54.769531 166.0625 54.421875 166.632812 54.144531 167.25 C 53.867188 167.863281 53.667969 168.5 53.542969 169.164062 C 53.421875 169.828125 53.378906 170.496094 53.421875 171.167969 L 54.046875 181.785156 L 45.246094 175.824219 C 44.691406 175.445312 44.09375 175.140625 43.464844 174.90625 C 42.832031 174.675781 42.179688 174.519531 41.511719 174.445312 C 40.839844 174.371094 40.171875 174.378906 39.503906 174.464844 C 38.835938 174.554688 38.191406 174.71875 37.5625 174.964844 L 27.671875 178.832031 L 30.617188 168.617188 C 30.804688 167.96875 30.910156 167.308594 30.9375 166.632812 C 30.960938 165.960938 30.90625 165.292969 30.769531 164.632812 C 30.636719 163.972656 30.421875 163.339844 30.132812 162.730469 C 29.839844 162.121094 29.484375 161.558594 29.054688 161.035156 L 22.3125 152.824219 L 32.925781 152.46875 C 33.601562 152.445312 34.261719 152.34375 34.910156 152.160156 C 35.558594 151.976562 36.175781 151.71875 36.757812 151.386719 C 37.34375 151.050781 37.882812 150.652344 38.371094 150.1875 C 38.859375 149.722656 39.285156 149.207031 39.648438 148.640625 L 45.375 139.6875 L 48.992188 149.679688 C 49.21875 150.3125 49.519531 150.910156 49.894531 151.472656 C 50.269531 152.03125 50.703125 152.539062 51.203125 152.996094 C 51.699219 153.449219 52.246094 153.835938 52.835938 154.160156 C 53.429688 154.480469 54.050781 154.726562 54.703125 154.894531 L 64.980469 157.582031 Z M 56.609375 164.117188 " fill-opacity="1" fill-rule="nonzero"/><path fill="#010101" d="M 108.78125 44.785156 L 118.621094 49.023438 L 120.714844 59.546875 C 120.863281 60.300781 121.109375 61.019531 121.460938 61.703125 C 121.808594 62.386719 122.246094 63.007812 122.769531 63.566406 C 123.292969 64.128906 123.882812 64.605469 124.542969 64.996094 C 125.203125 65.390625 125.902344 65.683594 126.644531 65.878906 C 127.347656 66.066406 128.0625 66.164062 128.789062 66.164062 C 129.964844 66.164062 131.089844 65.917969 132.160156 65.433594 C 133.234375 64.945312 134.15625 64.257812 134.929688 63.371094 L 142 55.308594 L 152.640625 56.566406 C 153.398438 56.65625 154.15625 56.640625 154.914062 56.519531 C 155.671875 56.394531 156.394531 56.171875 157.089844 55.847656 C 157.78125 55.519531 158.417969 55.105469 158.996094 54.601562 C 159.574219 54.097656 160.070312 53.527344 160.488281 52.882812 C 160.902344 52.238281 161.226562 51.550781 161.449219 50.820312 C 161.675781 50.085938 161.796875 49.335938 161.808594 48.570312 C 161.824219 47.804688 161.734375 47.050781 161.539062 46.308594 C 161.34375 45.566406 161.050781 44.867188 160.660156 44.207031 L 155.1875 34.988281 L 159.664062 25.25 C 159.984375 24.554688 160.203125 23.828125 160.324219 23.070312 C 160.441406 22.3125 160.449219 21.550781 160.355469 20.792969 C 160.261719 20.03125 160.0625 19.296875 159.761719 18.59375 C 159.464844 17.886719 159.074219 17.238281 158.589844 16.640625 C 158.109375 16.042969 157.554688 15.527344 156.929688 15.085938 C 156.300781 14.644531 155.625 14.300781 154.902344 14.046875 C 154.179688 13.796875 153.433594 13.648438 152.671875 13.605469 C 151.90625 13.5625 151.148438 13.625 150.402344 13.796875 L 139.949219 16.15625 L 132.085938 8.875 C 131.523438 8.355469 130.898438 7.921875 130.214844 7.578125 C 129.535156 7.234375 128.816406 6.988281 128.0625 6.84375 C 127.3125 6.699219 126.554688 6.664062 125.792969 6.730469 C 125.03125 6.796875 124.292969 6.96875 123.578125 7.246094 C 122.863281 7.519531 122.203125 7.886719 121.589844 8.347656 C 120.976562 8.808594 120.441406 9.34375 119.980469 9.953125 C 119.515625 10.5625 119.148438 11.226562 118.871094 11.941406 C 118.59375 12.65625 118.421875 13.394531 118.351562 14.15625 L 117.363281 24.832031 L 108.019531 30.078125 C 107.351562 30.453125 106.746094 30.910156 106.207031 31.453125 C 105.667969 32 105.210938 32.605469 104.84375 33.277344 C 104.472656 33.949219 104.203125 34.660156 104.03125 35.40625 C 103.859375 36.152344 103.792969 36.910156 103.832031 37.675781 C 103.875 38.441406 104.015625 39.1875 104.265625 39.910156 C 104.515625 40.636719 104.859375 41.3125 105.296875 41.941406 C 105.734375 42.570312 106.25 43.128906 106.84375 43.613281 C 107.4375 44.097656 108.085938 44.492188 108.789062 44.792969 Z M 147.707031 39.199219 L 152.882812 47.929688 L 142.796875 46.734375 C 142.136719 46.660156 141.476562 46.660156 140.820312 46.746094 C 140.160156 46.828125 139.523438 46.988281 138.902344 47.226562 C 138.28125 47.464844 137.699219 47.773438 137.15625 48.15625 C 136.609375 48.535156 136.121094 48.976562 135.683594 49.476562 L 128.988281 57.113281 L 127.003906 47.148438 C 126.875 46.496094 126.667969 45.867188 126.386719 45.265625 C 126.101562 44.660156 125.75 44.101562 125.332031 43.582031 C 124.914062 43.066406 124.441406 42.605469 123.910156 42.203125 C 123.378906 41.800781 122.808594 41.46875 122.195312 41.203125 L 112.871094 37.1875 L 121.722656 32.226562 C 122.300781 31.898438 122.835938 31.507812 123.320312 31.054688 C 123.808594 30.597656 124.230469 30.09375 124.59375 29.535156 C 124.957031 28.976562 125.246094 28.382812 125.464844 27.75 C 125.683594 27.121094 125.824219 26.476562 125.886719 25.8125 L 126.820312 15.695312 L 134.273438 22.589844 C 134.761719 23.042969 135.296875 23.429688 135.878906 23.75 C 136.460938 24.074219 137.074219 24.320312 137.71875 24.492188 C 138.359375 24.664062 139.015625 24.757812 139.679688 24.769531 C 140.347656 24.785156 141.003906 24.714844 141.652344 24.570312 L 151.554688 22.328125 " fill-opacity="1" fill-rule="nonzero"/><path fill="#010101" d="M 93.175781 278.5625 C 86.671875 273.523438 80.613281 267.992188 75.003906 261.96875 C 78.777344 262.335938 82.5625 262.570312 86.355469 262.667969 C 90.148438 262.765625 93.9375 262.730469 97.730469 262.558594 C 101.519531 262.386719 105.296875 262.082031 109.066406 261.640625 C 112.835938 261.199219 116.582031 260.625 120.3125 259.921875 C 124.039062 259.214844 127.734375 258.375 131.40625 257.40625 C 135.074219 256.4375 138.703125 255.335938 142.292969 254.109375 C 145.882812 252.882812 149.425781 251.53125 152.917969 250.050781 C 156.414062 248.570312 159.851562 246.96875 163.230469 245.246094 C 166.613281 243.519531 169.925781 241.679688 173.175781 239.71875 C 176.425781 237.761719 179.601562 235.6875 182.707031 233.503906 C 185.808594 231.316406 188.828125 229.023438 191.769531 226.625 C 194.710938 224.226562 197.5625 221.722656 200.324219 219.121094 C 203.085938 216.515625 205.753906 213.820312 208.324219 211.027344 C 210.894531 208.234375 213.363281 205.355469 215.730469 202.386719 C 218.097656 199.417969 220.355469 196.371094 222.507812 193.242188 C 224.65625 190.113281 226.695312 186.910156 228.617188 183.636719 C 230.539062 180.363281 232.347656 177.027344 234.03125 173.625 C 235.71875 170.222656 237.28125 166.765625 238.722656 163.253906 C 240.164062 159.738281 241.480469 156.179688 242.667969 152.574219 C 243.855469 148.96875 244.914062 145.324219 245.84375 141.640625 C 246.777344 137.960938 247.574219 134.25 248.242188 130.511719 C 248.90625 126.773438 249.441406 123.015625 249.839844 119.238281 C 250.242188 115.460938 250.507812 111.675781 250.636719 107.882812 C 250.769531 104.085938 250.765625 100.289062 250.628906 96.496094 C 250.488281 92.699219 250.21875 88.914062 249.8125 85.140625 C 249.402344 81.363281 248.863281 77.605469 248.191406 73.871094 C 247.519531 70.132812 246.714844 66.421875 245.777344 62.742188 C 244.839844 59.0625 243.773438 55.421875 242.582031 51.816406 C 241.386719 48.210938 240.0625 44.65625 238.617188 41.144531 C 237.171875 37.632812 235.601562 34.179688 233.90625 30.78125 C 232.214844 27.382812 230.40625 24.046875 228.476562 20.777344 C 226.546875 17.507812 224.503906 14.308594 222.347656 11.183594 C 224.441406 11.703125 226.523438 12.269531 228.589844 12.878906 C 230.660156 13.484375 232.714844 14.136719 234.757812 14.835938 C 236.800781 15.53125 238.824219 16.269531 240.835938 17.050781 C 242.84375 17.835938 244.835938 18.660156 246.8125 19.527344 C 248.785156 20.394531 250.742188 21.304688 252.675781 22.253906 C 254.613281 23.207031 256.527344 24.199219 258.421875 25.230469 C 260.316406 26.261719 262.1875 27.335938 264.035156 28.449219 C 265.882812 29.5625 267.707031 30.710938 269.507812 31.902344 C 271.304688 33.09375 273.078125 34.320312 274.824219 35.585938 C 276.574219 36.851562 278.292969 38.15625 279.984375 39.492188 C 281.675781 40.832031 283.335938 42.207031 284.96875 43.617188 C 286.601562 45.027344 288.207031 46.472656 289.777344 47.949219 C 291.347656 49.429688 292.886719 50.941406 294.394531 52.484375 C 295.902344 54.027344 297.375 55.605469 298.816406 57.210938 C 300.253906 58.816406 301.660156 60.453125 303.03125 62.121094 C 304.402344 63.789062 305.734375 65.484375 307.035156 67.207031 C 308.332031 68.929688 309.59375 70.679688 310.816406 72.457031 C 312.039062 74.238281 313.226562 76.039062 314.371094 77.867188 C 315.519531 79.695312 316.628906 81.546875 317.695312 83.421875 C 318.761719 85.296875 319.792969 87.195312 320.777344 89.113281 C 321.765625 91.035156 322.710938 92.972656 323.617188 94.933594 C 324.523438 96.890625 325.382812 98.871094 326.203125 100.867188 C 327.027344 102.863281 327.804688 104.875 328.539062 106.90625 C 329.273438 108.933594 329.964844 110.976562 330.613281 113.039062 C 331.261719 115.097656 331.863281 117.167969 332.425781 119.253906 C 332.984375 121.335938 333.5 123.433594 333.96875 125.539062 C 334.441406 127.648438 334.867188 129.761719 335.246094 131.886719 C 335.625 134.011719 335.960938 136.144531 336.25 138.285156 C 336.539062 140.421875 336.785156 142.566406 336.984375 144.714844 C 337.179688 146.867188 337.335938 149.019531 337.441406 151.175781 C 337.546875 153.332031 337.609375 155.488281 337.625 157.648438 C 337.636719 159.804688 337.605469 161.964844 337.53125 164.121094 C 337.519531 164.402344 337.539062 164.683594 337.582031 164.960938 C 337.628906 165.242188 337.699219 165.511719 337.796875 165.777344 C 337.898438 166.039062 338.019531 166.292969 338.167969 166.535156 C 338.316406 166.773438 338.488281 166.996094 338.679688 167.203125 C 338.871094 167.410156 339.082031 167.597656 339.3125 167.761719 C 339.539062 167.925781 339.78125 168.066406 340.039062 168.183594 C 340.296875 168.300781 340.5625 168.390625 340.835938 168.457031 C 341.109375 168.523438 341.386719 168.558594 341.671875 168.570312 C 341.953125 168.578125 342.230469 168.5625 342.511719 168.515625 C 342.789062 168.472656 343.058594 168.398438 343.324219 168.300781 C 343.589844 168.203125 343.839844 168.078125 344.082031 167.929688 C 344.320312 167.78125 344.542969 167.613281 344.75 167.417969 C 344.957031 167.226562 345.140625 167.015625 345.308594 166.785156 C 345.472656 166.558594 345.613281 166.316406 345.730469 166.058594 C 345.847656 165.800781 345.9375 165.535156 346.003906 165.261719 C 346.066406 164.984375 346.105469 164.707031 346.113281 164.425781 C 346.410156 155.925781 346.039062 147.453125 345.003906 139.011719 C 343.976562 130.40625 342.257812 121.941406 339.847656 113.617188 C 337.433594 105.292969 334.363281 97.222656 330.632812 89.402344 C 326.902344 81.582031 322.558594 74.117188 317.609375 67.007812 C 312.65625 59.898438 307.164062 53.238281 301.121094 47.03125 C 295.214844 40.949219 288.871094 35.371094 282.089844 30.289062 C 275.304688 25.210938 268.167969 20.691406 260.675781 16.734375 C 253.179688 12.78125 245.425781 9.433594 237.40625 6.699219 C 229.386719 3.964844 221.203125 1.875 212.855469 0.429688 C 212.425781 0.355469 211.996094 0.347656 211.566406 0.40625 C 211.132812 0.464844 210.71875 0.585938 210.324219 0.769531 C 209.929688 0.953125 209.570312 1.191406 209.25 1.484375 C 208.925781 1.777344 208.65625 2.113281 208.433594 2.488281 C 208.214844 2.863281 208.054688 3.265625 207.957031 3.6875 C 207.855469 4.113281 207.824219 4.542969 207.855469 4.976562 C 207.886719 5.414062 207.984375 5.832031 208.140625 6.238281 C 208.300781 6.644531 208.519531 7.015625 208.792969 7.355469 C 211.179688 10.335938 213.453125 13.402344 215.609375 16.554688 C 217.765625 19.707031 219.800781 22.9375 221.714844 26.242188 C 223.628906 29.550781 225.414062 32.925781 227.070312 36.363281 C 228.730469 39.804688 230.257812 43.304688 231.652344 46.863281 C 233.046875 50.417969 234.304688 54.023438 235.429688 57.675781 C 236.550781 61.324219 237.535156 65.015625 238.378906 68.742188 C 239.226562 72.46875 239.929688 76.21875 240.488281 80 C 241.050781 83.777344 241.46875 87.574219 241.746094 91.382812 C 242.019531 95.195312 242.152344 99.011719 242.140625 102.832031 C 242.125 106.652344 241.96875 110.46875 241.667969 114.277344 C 241.371094 118.085938 240.925781 121.878906 240.339844 125.652344 C 239.753906 129.429688 239.023438 133.175781 238.15625 136.898438 C 237.285156 140.617188 236.277344 144.300781 235.132812 147.945312 C 233.984375 151.589844 232.703125 155.183594 231.285156 158.730469 C 229.867188 162.277344 228.316406 165.769531 226.632812 169.199219 C 224.953125 172.628906 223.144531 175.988281 221.210938 179.285156 C 219.273438 182.578125 217.21875 185.792969 215.039062 188.929688 C 212.863281 192.070312 210.570312 195.121094 208.164062 198.085938 C 205.753906 201.050781 203.238281 203.917969 200.613281 206.695312 C 197.988281 209.46875 195.265625 212.140625 192.4375 214.707031 C 189.613281 217.277344 186.695312 219.734375 183.683594 222.082031 C 180.671875 224.429688 177.578125 226.664062 174.398438 228.777344 C 171.21875 230.890625 167.960938 232.882812 164.632812 234.75 C 161.300781 236.617188 157.90625 238.355469 154.445312 239.96875 C 150.984375 241.582031 147.46875 243.058594 143.894531 244.402344 C 140.324219 245.75 136.703125 246.957031 133.042969 248.03125 C 129.378906 249.101562 125.679688 250.035156 121.945312 250.828125 C 118.210938 251.621094 114.453125 252.269531 110.667969 252.777344 C 106.886719 253.285156 103.089844 253.652344 99.277344 253.875 C 95.464844 254.09375 91.652344 254.171875 87.835938 254.105469 C 84.019531 254.039062 80.210938 253.828125 76.410156 253.472656 C 72.609375 253.117188 68.828125 252.621094 65.066406 251.980469 C 64.636719 251.90625 64.207031 251.898438 63.773438 251.957031 C 63.34375 252.015625 62.929688 252.136719 62.535156 252.320312 C 62.140625 252.503906 61.78125 252.742188 61.460938 253.035156 C 61.136719 253.332031 60.867188 253.664062 60.644531 254.039062 C 60.425781 254.417969 60.265625 254.816406 60.167969 255.242188 C 60.070312 255.664062 60.035156 256.09375 60.066406 256.53125 C 60.097656 256.964844 60.195312 257.382812 60.355469 257.789062 C 60.511719 258.195312 60.730469 258.566406 61.003906 258.90625 C 68.9375 268.78125 77.910156 277.59375 87.917969 285.351562 C 88.144531 285.523438 88.378906 285.675781 88.632812 285.800781 C 88.882812 285.925781 89.148438 286.023438 89.417969 286.097656 C 89.691406 286.171875 89.964844 286.21875 90.246094 286.238281 C 90.527344 286.257812 90.808594 286.25 91.089844 286.214844 C 91.367188 286.179688 91.640625 286.117188 91.90625 286.027344 C 92.175781 285.9375 92.429688 285.824219 92.675781 285.683594 C 92.921875 285.542969 93.148438 285.378906 93.359375 285.195312 C 93.574219 285.011719 93.765625 284.804688 93.9375 284.582031 C 94.109375 284.359375 94.261719 284.121094 94.386719 283.871094 C 94.511719 283.617188 94.613281 283.355469 94.6875 283.082031 C 94.761719 282.8125 94.808594 282.535156 94.828125 282.253906 C 94.847656 281.972656 94.839844 281.691406 94.804688 281.414062 C 94.769531 281.132812 94.707031 280.859375 94.617188 280.589844 C 94.527344 280.324219 94.414062 280.066406 94.273438 279.824219 C 94.132812 279.578125 93.972656 279.347656 93.785156 279.136719 C 93.601562 278.921875 93.398438 278.730469 93.175781 278.558594 Z M 93.175781 278.5625 " fill-opacity="1" fill-rule="nonzero"/><path fill="#010101" d="M 319.570312 239.164062 C 319.332031 239.011719 319.082031 238.886719 318.820312 238.78125 C 318.558594 238.679688 318.289062 238.601562 318.011719 238.550781 C 317.734375 238.5 317.453125 238.480469 317.171875 238.484375 C 316.890625 238.488281 316.613281 238.519531 316.335938 238.582031 C 316.0625 238.640625 315.796875 238.726562 315.539062 238.839844 C 315.277344 238.953125 315.035156 239.089844 314.800781 239.25 C 314.570312 239.410156 314.355469 239.589844 314.160156 239.792969 C 313.964844 239.996094 313.792969 240.21875 313.640625 240.453125 C 311.386719 243.964844 308.980469 247.347656 306.476562 250.636719 C 302.042969 256.46875 297.214844 261.945312 291.984375 267.074219 C 286.757812 272.199219 281.1875 276.921875 275.273438 281.238281 C 269.359375 285.554688 263.164062 289.417969 256.6875 292.832031 C 250.210938 296.246094 243.523438 299.171875 236.621094 301.613281 C 232.746094 302.984375 228.808594 304.226562 224.800781 305.285156 C 224.527344 305.355469 224.265625 305.453125 224.011719 305.578125 C 223.757812 305.703125 223.519531 305.847656 223.296875 306.019531 C 223.070312 306.191406 222.867188 306.382812 222.679688 306.59375 C 222.492188 306.804688 222.328125 307.03125 222.1875 307.277344 C 222.046875 307.519531 221.929688 307.773438 221.835938 308.042969 C 221.746094 308.308594 221.679688 308.582031 221.640625 308.859375 C 221.605469 309.140625 221.59375 309.421875 221.613281 309.703125 C 221.628906 309.984375 221.671875 310.261719 221.746094 310.535156 C 221.816406 310.808594 221.914062 311.070312 222.039062 311.324219 C 222.164062 311.578125 222.308594 311.816406 222.480469 312.039062 C 222.652344 312.265625 222.839844 312.472656 223.054688 312.65625 C 223.265625 312.84375 223.492188 313.007812 223.734375 313.152344 C 223.976562 313.292969 224.234375 313.410156 224.5 313.5 C 224.765625 313.59375 225.039062 313.660156 225.320312 313.695312 C 225.597656 313.734375 225.878906 313.746094 226.160156 313.726562 C 226.441406 313.710938 226.71875 313.664062 226.992188 313.59375 C 231.785156 312.328125 236.507812 310.84375 241.164062 309.140625 C 245.820312 307.433594 250.386719 305.515625 254.863281 303.386719 C 259.34375 301.253906 263.710938 298.921875 267.972656 296.382812 C 272.230469 293.84375 276.363281 291.113281 280.371094 288.191406 C 284.375 285.265625 288.238281 282.164062 291.957031 278.878906 C 295.671875 275.597656 299.230469 272.148438 302.625 268.535156 C 306.023438 264.917969 309.246094 261.152344 312.292969 257.238281 C 315.335938 253.324219 318.195312 249.277344 320.867188 245.09375 C 321.015625 244.855469 321.144531 244.605469 321.246094 244.34375 C 321.347656 244.082031 321.425781 243.8125 321.472656 243.535156 C 321.523438 243.257812 321.546875 242.976562 321.539062 242.695312 C 321.535156 242.414062 321.503906 242.136719 321.441406 241.863281 C 321.382812 241.585938 321.296875 241.320312 321.183594 241.0625 C 321.070312 240.804688 320.933594 240.558594 320.773438 240.328125 C 320.613281 240.097656 320.429688 239.882812 320.226562 239.6875 C 320.027344 239.492188 319.804688 239.316406 319.570312 239.164062 Z M 319.570312 239.164062 " fill-opacity="1" fill-rule="nonzero"/><g clip-path="url(#99e416910d)"><path fill="#010101" d="M 360.757812 192.464844 C 360.554688 191.566406 360.234375 190.714844 359.796875 189.910156 C 359.355469 189.101562 358.8125 188.371094 358.167969 187.71875 C 357.523438 187.066406 356.800781 186.511719 356 186.0625 C 355.199219 185.613281 354.351562 185.28125 353.460938 185.070312 L 338.4375 181.476562 C 338.007812 181.375 337.714844 181.117188 337.558594 180.707031 L 332.835938 168.480469 L 331.988281 166.28125 C 331.660156 165.425781 331.21875 164.628906 330.664062 163.894531 C 330.113281 163.160156 329.472656 162.519531 328.738281 161.964844 C 328.003906 161.410156 327.210938 160.96875 326.355469 160.636719 C 325.5 160.304688 324.613281 160.097656 323.699219 160.015625 C 322.785156 159.933594 321.878906 159.976562 320.976562 160.148438 C 320.074219 160.320312 319.214844 160.613281 318.394531 161.027344 C 317.574219 161.4375 316.824219 161.957031 316.152344 162.578125 C 315.476562 163.199219 314.898438 163.902344 314.421875 164.6875 L 306.359375 177.878906 C 306.128906 178.253906 305.796875 178.453125 305.359375 178.476562 L 289.9375 179.3125 C 289.550781 179.332031 289.167969 179.375 288.789062 179.4375 C 288.410156 179.503906 288.035156 179.589844 287.664062 179.699219 C 287.292969 179.8125 286.933594 179.941406 286.578125 180.09375 C 286.222656 180.246094 285.878906 180.417969 285.546875 180.609375 C 285.210938 180.804688 284.890625 181.015625 284.582031 181.246094 C 284.273438 181.476562 283.976562 181.726562 283.699219 181.992188 C 283.417969 182.257812 283.152344 182.539062 282.90625 182.835938 C 282.660156 183.132812 282.433594 183.441406 282.222656 183.765625 C 282.011719 184.089844 281.820312 184.421875 281.648438 184.769531 C 281.480469 185.117188 281.328125 185.46875 281.199219 185.832031 C 281.070312 186.199219 280.964844 186.566406 280.878906 186.945312 C 280.792969 187.320312 280.730469 187.699219 280.6875 188.085938 C 280.648438 188.46875 280.628906 188.851562 280.636719 189.238281 C 280.640625 189.625 280.667969 190.007812 280.71875 190.390625 C 280.765625 190.773438 280.839844 191.152344 280.933594 191.527344 C 281.027344 191.902344 281.144531 192.269531 281.28125 192.628906 C 281.6875 193.699219 282.257812 194.671875 283 195.546875 L 293.042969 207.292969 C 293.328125 207.628906 293.414062 208.007812 293.300781 208.429688 L 289.328125 223.375 C 289.089844 224.261719 288.980469 225.164062 289 226.082031 C 289.015625 227 289.15625 227.898438 289.425781 228.777344 C 289.691406 229.65625 290.074219 230.480469 290.574219 231.253906 C 291.070312 232.023438 291.664062 232.714844 292.355469 233.316406 C 293.046875 233.921875 293.808594 234.421875 294.636719 234.8125 C 295.46875 235.207031 296.335938 235.476562 297.242188 235.625 C 298.148438 235.773438 299.054688 235.792969 299.96875 235.6875 C 300.878906 235.582031 301.757812 235.355469 302.605469 235.003906 L 316.875 229.070312 C 317.277344 228.902344 317.664062 228.9375 318.03125 229.175781 L 331 237.578125 C 331.773438 238.078125 332.597656 238.460938 333.472656 238.726562 C 334.351562 238.996094 335.25 239.136719 336.167969 239.15625 C 337.085938 239.171875 337.984375 239.0625 338.871094 238.824219 C 339.761719 238.589844 340.597656 238.234375 341.386719 237.765625 C 342.171875 237.292969 342.882812 236.726562 343.511719 236.054688 C 344.140625 235.386719 344.664062 234.644531 345.085938 233.828125 C 345.507812 233.011719 345.808594 232.152344 345.988281 231.253906 C 346.167969 230.351562 346.222656 229.445312 346.152344 228.53125 L 344.925781 213.117188 C 344.886719 212.675781 345.039062 212.320312 345.382812 212.042969 L 357.375 202.289062 C 358.089844 201.714844 358.707031 201.046875 359.238281 200.296875 C 359.765625 199.542969 360.175781 198.734375 360.476562 197.863281 C 360.773438 196.996094 360.949219 196.101562 360.996094 195.183594 C 361.042969 194.265625 360.964844 193.359375 360.757812 192.464844 Z M 336.359375 213.792969 L 337.585938 229.207031 C 337.605469 229.445312 337.5625 229.671875 337.453125 229.886719 C 337.34375 230.097656 337.1875 230.265625 336.980469 230.390625 C 336.773438 230.511719 336.550781 230.570312 336.3125 230.566406 C 336.074219 230.558594 335.855469 230.492188 335.65625 230.359375 L 322.683594 221.957031 C 322.015625 221.523438 321.304688 221.179688 320.550781 220.917969 C 319.796875 220.65625 319.023438 220.492188 318.230469 220.417969 C 317.433594 220.347656 316.644531 220.371094 315.855469 220.492188 C 315.066406 220.613281 314.304688 220.824219 313.570312 221.128906 L 299.300781 227.0625 C 299.082031 227.164062 298.855469 227.195312 298.617188 227.15625 C 298.378906 227.117188 298.171875 227.015625 298 226.847656 C 297.8125 226.695312 297.683594 226.503906 297.613281 226.273438 C 297.542969 226.042969 297.542969 225.8125 297.613281 225.578125 L 301.585938 210.640625 C 301.792969 209.867188 301.902344 209.082031 301.917969 208.285156 C 301.933594 207.488281 301.851562 206.699219 301.671875 205.921875 C 301.496094 205.140625 301.230469 204.394531 300.871094 203.683594 C 300.511719 202.96875 300.074219 202.308594 299.554688 201.703125 L 289.511719 189.957031 C 289.355469 189.773438 289.261719 189.566406 289.226562 189.328125 C 289.1875 189.09375 289.21875 188.867188 289.3125 188.648438 C 289.40625 188.425781 289.550781 188.25 289.746094 188.113281 C 289.941406 187.976562 290.160156 187.902344 290.394531 187.890625 L 305.820312 187.054688 C 306.613281 187.011719 307.394531 186.875 308.15625 186.640625 C 308.921875 186.410156 309.644531 186.089844 310.328125 185.679688 C 311.015625 185.269531 311.640625 184.785156 312.207031 184.222656 C 312.773438 183.660156 313.265625 183.039062 313.683594 182.359375 L 321.742188 169.167969 C 321.863281 168.960938 322.027344 168.800781 322.242188 168.695312 C 322.457031 168.585938 322.683594 168.546875 322.921875 168.574219 C 323.164062 168.585938 323.378906 168.667969 323.570312 168.8125 C 323.765625 168.957031 323.898438 169.144531 323.976562 169.371094 L 329.539062 183.800781 C 329.824219 184.546875 330.195312 185.246094 330.652344 185.898438 C 331.109375 186.550781 331.640625 187.140625 332.238281 187.667969 C 332.839844 188.191406 333.492188 188.636719 334.203125 189.003906 C 334.910156 189.371094 335.652344 189.648438 336.425781 189.832031 L 351.449219 193.425781 C 351.679688 193.484375 351.878906 193.597656 352.046875 193.765625 C 352.214844 193.933594 352.324219 194.136719 352.378906 194.367188 C 352.429688 194.601562 352.417969 194.828125 352.339844 195.054688 C 352.261719 195.28125 352.132812 195.46875 351.949219 195.617188 L 339.957031 205.367188 C 339.339844 205.871094 338.789062 206.441406 338.308594 207.082031 C 337.828125 207.71875 337.433594 208.402344 337.121094 209.136719 C 336.804688 209.871094 336.585938 210.632812 336.457031 211.417969 C 336.328125 212.207031 336.296875 213 336.359375 213.792969 Z M 336.359375 213.792969 " fill-opacity="1" fill-rule="nonzero"/></g><path fill="#010101" d="M 256.328125 349.753906 C 253.957031 349.75 251.613281 350.007812 249.296875 350.523438 C 247.480469 347.960938 245.421875 345.605469 243.125 343.460938 C 240.828125 341.3125 238.339844 339.421875 235.660156 337.78125 C 232.980469 336.140625 230.164062 334.789062 227.207031 333.722656 C 224.253906 332.65625 221.21875 331.894531 218.113281 331.445312 C 211.378906 301.671875 180.851562 279.597656 145.621094 279.597656 C 110.65625 279.597656 80.253906 301.398438 73.261719 330.871094 C 49.371094 332.125 30.378906 349.53125 30.378906 370.746094 C 30.378906 371.03125 30.40625 371.308594 30.460938 371.585938 C 30.515625 371.863281 30.597656 372.132812 30.703125 372.390625 C 30.8125 372.652344 30.945312 372.898438 31.101562 373.132812 C 31.257812 373.367188 31.433594 373.585938 31.632812 373.785156 C 31.832031 373.984375 32.050781 374.164062 32.285156 374.320312 C 32.519531 374.476562 32.765625 374.609375 33.027344 374.71875 C 33.289062 374.824219 33.554688 374.90625 33.832031 374.960938 C 34.109375 375.015625 34.386719 375.042969 34.667969 375.042969 L 98.660156 375.042969 C 98.941406 375.042969 99.21875 375.015625 99.496094 374.960938 C 99.773438 374.90625 100.042969 374.824219 100.300781 374.71875 C 100.5625 374.609375 100.808594 374.476562 101.042969 374.320312 C 101.277344 374.164062 101.496094 373.984375 101.695312 373.785156 C 101.894531 373.585938 102.070312 373.367188 102.226562 373.132812 C 102.382812 372.898438 102.515625 372.652344 102.625 372.390625 C 102.734375 372.132812 102.8125 371.863281 102.867188 371.585938 C 102.925781 371.308594 102.953125 371.03125 102.953125 370.746094 C 102.953125 370.464844 102.925781 370.1875 102.867188 369.910156 C 102.8125 369.632812 102.734375 369.363281 102.625 369.101562 C 102.515625 368.84375 102.382812 368.59375 102.226562 368.359375 C 102.070312 368.125 101.894531 367.910156 101.695312 367.710938 C 101.496094 367.511719 101.277344 367.332031 101.042969 367.175781 C 100.808594 367.019531 100.5625 366.886719 100.300781 366.777344 C 100.042969 366.671875 99.773438 366.589844 99.496094 366.535156 C 99.21875 366.476562 98.941406 366.449219 98.660156 366.449219 L 39.3125 366.449219 C 41.796875 351.183594 57.316406 339.382812 76.03125 339.382812 L 76.726562 339.398438 L 76.777344 339.398438 C 77.285156 339.398438 77.777344 339.3125 78.253906 339.136719 C 78.730469 338.964844 79.160156 338.714844 79.546875 338.386719 C 79.933594 338.058594 80.253906 337.675781 80.503906 337.234375 C 80.757812 336.796875 80.925781 336.324219 81.011719 335.824219 C 85.636719 308.664062 113.417969 288.1875 145.625 288.1875 C 177.945312 288.1875 205.734375 308.746094 210.269531 336.011719 C 210.347656 336.480469 210.5 336.921875 210.722656 337.339844 C 210.945312 337.757812 211.230469 338.128906 211.578125 338.449219 C 211.921875 338.773438 212.3125 339.03125 212.742188 339.226562 C 213.175781 339.421875 213.628906 339.539062 214.097656 339.585938 C 226.851562 340.796875 238.136719 347.695312 243.570312 357.589844 C 243.8125 358.035156 244.121094 358.421875 244.5 358.753906 C 244.878906 359.089844 245.304688 359.347656 245.773438 359.53125 C 246.246094 359.714844 246.730469 359.808594 247.238281 359.820312 C 247.742188 359.832031 248.230469 359.757812 248.710938 359.597656 C 251.179688 358.757812 253.722656 358.335938 256.332031 358.339844 C 257.992188 358.300781 259.632812 358.457031 261.253906 358.796875 C 262.878906 359.140625 264.441406 359.664062 265.945312 360.367188 C 267.445312 361.066406 268.851562 361.933594 270.152344 362.960938 C 271.457031 363.984375 272.625 365.148438 273.664062 366.445312 L 132.859375 366.445312 C 132.574219 366.445312 132.296875 366.472656 132.019531 366.527344 C 131.746094 366.582031 131.476562 366.664062 131.214844 366.773438 C 130.953125 366.878906 130.707031 367.011719 130.472656 367.167969 C 130.238281 367.324219 130.023438 367.503906 129.824219 367.703125 C 129.625 367.902344 129.445312 368.121094 129.289062 368.355469 C 129.132812 368.589844 129 368.835938 128.890625 369.097656 C 128.785156 369.355469 128.703125 369.625 128.648438 369.902344 C 128.59375 370.179688 128.566406 370.457031 128.566406 370.742188 C 128.566406 371.023438 128.59375 371.300781 128.648438 371.578125 C 128.703125 371.855469 128.785156 372.125 128.890625 372.386719 C 129 372.644531 129.132812 372.894531 129.289062 373.128906 C 129.445312 373.363281 129.625 373.578125 129.824219 373.777344 C 130.023438 373.976562 130.238281 374.15625 130.472656 374.3125 C 130.707031 374.46875 130.953125 374.601562 131.214844 374.710938 C 131.476562 374.816406 131.746094 374.898438 132.019531 374.953125 C 132.296875 375.011719 132.574219 375.039062 132.859375 375.039062 L 280.386719 375.039062 C 280.714844 375.039062 281.035156 375 281.355469 374.925781 C 281.671875 374.851562 281.976562 374.746094 282.269531 374.601562 C 282.566406 374.457031 282.839844 374.28125 283.09375 374.078125 C 283.34375 373.871094 283.574219 373.636719 283.773438 373.378906 C 283.972656 373.121094 284.144531 372.84375 284.28125 372.550781 C 284.417969 372.253906 284.519531 371.945312 284.585938 371.625 C 284.65625 371.304688 284.683594 370.980469 284.679688 370.652344 C 284.671875 370.328125 284.628906 370.003906 284.546875 369.6875 C 281.582031 357.964844 269.980469 349.753906 256.328125 349.753906 Z M 256.328125 349.753906 " fill-opacity="1" fill-rule="nonzero"/><path fill="#010101" d="M 120.003906 370.746094 C 120.003906 371.03125 119.976562 371.308594 119.921875 371.585938 C 119.863281 371.863281 119.785156 372.132812 119.675781 372.390625 C 119.566406 372.652344 119.4375 372.898438 119.277344 373.132812 C 119.121094 373.367188 118.945312 373.585938 118.746094 373.785156 C 118.546875 373.984375 118.328125 374.164062 118.09375 374.320312 C 117.859375 374.476562 117.613281 374.609375 117.351562 374.71875 C 117.09375 374.824219 116.824219 374.90625 116.546875 374.960938 C 116.269531 375.015625 115.992188 375.042969 115.710938 375.042969 C 115.429688 375.042969 115.148438 375.015625 114.871094 374.960938 C 114.597656 374.90625 114.328125 374.824219 114.066406 374.71875 C 113.808594 374.609375 113.558594 374.476562 113.324219 374.320312 C 113.089844 374.164062 112.875 373.984375 112.675781 373.785156 C 112.476562 373.585938 112.296875 373.367188 112.140625 373.132812 C 111.984375 372.898438 111.851562 372.652344 111.746094 372.390625 C 111.636719 372.132812 111.554688 371.863281 111.5 371.585938 C 111.445312 371.308594 111.417969 371.03125 111.417969 370.746094 C 111.417969 370.464844 111.445312 370.1875 111.5 369.910156 C 111.554688 369.632812 111.636719 369.363281 111.746094 369.101562 C 111.851562 368.84375 111.984375 368.59375 112.140625 368.359375 C 112.296875 368.125 112.476562 367.910156 112.675781 367.710938 C 112.875 367.511719 113.089844 367.332031 113.324219 367.175781 C 113.558594 367.019531 113.808594 366.886719 114.066406 366.777344 C 114.328125 366.671875 114.597656 366.589844 114.871094 366.535156 C 115.148438 366.476562 115.429688 366.449219 115.710938 366.449219 C 115.992188 366.449219 116.269531 366.476562 116.546875 366.535156 C 116.824219 366.589844 117.09375 366.671875 117.351562 366.777344 C 117.613281 366.886719 117.859375 367.019531 118.09375 367.175781 C 118.328125 367.332031 118.546875 367.511719 118.746094 367.710938 C 118.945312 367.910156 119.121094 368.125 119.277344 368.359375 C 119.4375 368.59375 119.566406 368.84375 119.675781 369.101562 C 119.785156 369.363281 119.863281 369.632812 119.921875 369.910156 C 119.976562 370.1875 120.003906 370.464844 120.003906 370.746094 Z M 120.003906 370.746094 " fill-opacity="1" fill-rule="nonzero"/></svg>