<svg xmlns="http://www.w3.org/2000/svg" xmlns:xlink="http://www.w3.org/1999/xlink" width="500" zoomAndPan="magnify" viewBox="0 0 375 374.999991" height="500" preserveAspectRatio="xMidYMid meet" version="1.0"><defs><clipPath id="42665ad3c0"><path d="M 2.242188 94.871094 L 372.742188 94.871094 L 372.742188 280 L 2.242188 280 Z M 2.242188 94.871094 " clip-rule="nonzero"/></clipPath></defs><g clip-path="url(#42665ad3c0)"><path fill="#000000" d="M 372.613281 278.996094 C 367.246094 279.933594 356.667969 280.140625 355.851562 279.25 C 344.835938 267.257812 333.773438 255.304688 322.96875 243.128906 C 321.125 241.050781 319.46875 239.550781 317.460938 239.289062 C 315.199219 239 313.339844 240.253906 312.601562 240.742188 C 305.878906 245.171875 286.855469 270.792969 285.910156 272.070312 C 294.03125 255.40625 299.734375 242.878906 301.742188 238.207031 C 302.328125 236.835938 302.703125 234.015625 303.253906 230.46875 C 303.515625 228.796875 303.039062 226.378906 301.933594 225.214844 C 286.9375 209.464844 271.761719 193.886719 256.664062 178.234375 C 255.042969 176.558594 253.8125 176.308594 252.0625 178.195312 C 239.316406 191.910156 226.515625 205.574219 213.65625 219.1875 C 211.847656 221.101562 211.589844 222.78125 212.273438 225.367188 C 216.121094 239.828125 219.691406 254.359375 223.335938 268.878906 C 223.503906 269.546875 223.441406 270.277344 223.542969 271.890625 C 212.921875 260.46875 202.875 249.652344 192.824219 238.84375 C 192.035156 238 191.253906 237.148438 190.460938 236.3125 C 185.476562 231.070312 185.570312 231.238281 179.136719 234.832031 C 161.898438 244.460938 144.578125 253.9375 127.285156 263.46875 C 126.550781 263.871094 125.769531 264.183594 124.570312 264.070312 C 140.316406 246.921875 156.0625 229.769531 171.808594 212.621094 C 181.179688 210.324219 190.550781 208.03125 199.921875 205.734375 C 180.464844 179.035156 161.410156 152.886719 141.804688 125.976562 C 119.574219 162.460938 97.890625 198.054688 75.714844 234.464844 C 71.246094 224.953125 67.132812 216.210938 62.71875 206.820312 C 42.671875 229.3125 23.023438 251.367188 3.371094 273.425781 C 3.039062 273.246094 2.710938 273.074219 2.382812 272.898438 C 22.8125 240.085938 43.246094 207.273438 63.675781 174.460938 C 80.382812 173.925781 89.144531 173.644531 89.144531 173.644531 C 89.144531 173.644531 91.207031 173.6875 92.503906 172.96875 C 93.367188 172.488281 94.089844 171.734375 94.761719 170.636719 C 106.96875 150.582031 119.28125 130.59375 131.566406 110.585938 C 134.640625 105.585938 137.71875 100.585938 141.226562 94.875 C 166.636719 127.328125 191.699219 159.34375 217.140625 191.835938 C 230.539062 180.277344 243.472656 169.117188 256.796875 157.625 C 295.265625 197.9375 333.507812 238.011719 372.617188 278.996094 Z M 372.613281 278.996094 " fill-opacity="1" fill-rule="nonzero"/></g></svg>